VotoSerifGX-CondensedBoldText.ufo
<glyph name="zero" format="2">
  <advance width="397"/>
  <unicode hex="0030"/>
  <outline>
    <contour>
      <point x="198" y="-10" type="curve" smooth="yes"/>
      <point x="334" y="-10"/>
      <point x="381" y="132"/>
      <point x="381" y="358" type="curve" smooth="yes"/>
      <point x="381" y="587"/>
      <point x="334" y="724"/>
      <point x="199" y="724" type="curve" smooth="yes"/>
      <point x="57" y="724"/>
      <point x="14" y="583"/>
      <point x="14" y="359" type="curve" smooth="yes"/>
      <point x="14" y="130"/>
      <point x="57" y="-10"/>
    </contour>
    <contour>
      <point x="198" y="53" type="curve" smooth="yes"/>
      <point x="157" y="53"/>
      <point x="155" y="165"/>
      <point x="155" y="358" type="curve" smooth="yes"/>
      <point x="155" y="551"/>
      <point x="157" y="661"/>
      <point x="199" y="661" type="curve" smooth="yes"/>
      <point x="239" y="661"/>
      <point x="242" y="551"/>
      <point x="242" y="358" type="curve" smooth="yes"/>
      <point x="242" y="165"/>
      <point x="239" y="53"/>
    </contour>
  </outline>
</glyph>
<glyph name="one" format="2">
  <advance width="397"/>
  <unicode hex="0031"/>
  <outline>
    <contour>
      <point x="52" y="0" type="line"/>
      <point x="376" y="0" type="line"/>
      <point x="376" y="53" type="line"/>
      <point x="337" y="53" type="line" smooth="yes"/>
      <point x="310" y="53"/>
      <point x="288" y="71"/>
      <point x="288" y="118" type="curve" smooth="yes"/>
      <point x="288" y="718" type="line"/>
      <point x="179" y="718" type="line"/>
      <point x="129" y="673" type="line" smooth="yes"/>
      <point x="78" y="627"/>
      <point x="42" y="611"/>
      <point x="14" y="601" type="curve"/>
      <point x="14" y="556"/>
      <point x="34" y="528"/>
      <point x="60" y="528" type="curve" smooth="yes"/>
      <point x="90" y="528"/>
      <point x="121" y="552"/>
      <point x="154" y="607" type="curve"/>
      <point x="154" y="118" type="line" smooth="yes"/>
      <point x="154" y="63"/>
      <point x="125" y="53"/>
      <point x="103" y="53" type="curve" smooth="yes"/>
      <point x="52" y="53" type="line"/>
    </contour>
  </outline>
</glyph>
<glyph name="question" format="2">
  <advance width="429"/>
  <unicode hex="003F"/>
  <outline>
    <contour>
      <point x="168" y="226" type="line"/>
      <point x="217" y="226" type="line"/>
      <point x="240" y="323" type="line"/>
      <point x="340" y="378"/>
      <point x="389" y="435"/>
      <point x="389" y="541" type="curve" smooth="yes"/>
      <point x="389" y="657"/>
      <point x="313" y="724"/>
      <point x="194" y="724" type="curve" smooth="yes"/>
      <point x="78" y="724"/>
      <point x="27" y="669"/>
      <point x="27" y="612" type="curve" smooth="yes"/>
      <point x="27" y="556"/>
      <point x="72" y="538"/>
      <point x="149" y="538" type="curve"/>
      <point x="149" y="612"/>
      <point x="166" y="664"/>
      <point x="195" y="664" type="curve" smooth="yes"/>
      <point x="222" y="664"/>
      <point x="238" y="612"/>
      <point x="238" y="551" type="curve" smooth="yes"/>
      <point x="238" y="473"/>
      <point x="228" y="389"/>
      <point x="145" y="348" type="curve"/>
    </contour>
    <contour>
      <point x="190" y="-7" type="curve" smooth="yes"/>
      <point x="228" y="-7"/>
      <point x="261" y="11"/>
      <point x="261" y="68" type="curve" smooth="yes"/>
      <point x="261" y="125"/>
      <point x="228" y="143"/>
      <point x="190" y="143" type="curve" smooth="yes"/>
      <point x="150" y="143"/>
      <point x="119" y="125"/>
      <point x="119" y="68" type="curve" smooth="yes"/>
      <point x="119" y="11"/>
      <point x="150" y="-7"/>
    </contour>
  </outline>
</glyph>
<glyph name="bracketright" format="2">
  <advance width="329"/>
  <unicode hex="005D"/>
  <outline>
    <contour>
      <point x="27" y="-128" type="line"/>
      <point x="257" y="-128" type="line"/>
      <point x="257" y="760" type="line"/>
      <point x="27" y="760" type="line"/>
      <point x="27" y="707" type="line"/>
      <point x="58" y="707" type="line" smooth="yes"/>
      <point x="92" y="707"/>
      <point x="117" y="698"/>
      <point x="117" y="635" type="curve" smooth="yes"/>
      <point x="117" y="-3" type="line" smooth="yes"/>
      <point x="117" y="-66"/>
      <point x="92" y="-75"/>
      <point x="58" y="-75" type="curve" smooth="yes"/>
      <point x="27" y="-75" type="line"/>
    </contour>
  </outline>
</glyph>
<glyph name="exclamdown" format="2">
  <advance width="329"/>
  <unicode hex="00A1"/>
  <outline>
    <contour>
      <point x="190" y="301" type="line"/>
      <point x="139" y="301" type="line"/>
      <point x="86" y="-180" type="line"/>
      <point x="243" y="-180" type="line"/>
    </contour>
    <contour>
      <point x="162" y="541" type="curve" smooth="yes"/>
      <point x="124" y="541"/>
      <point x="92" y="523"/>
      <point x="92" y="466" type="curve" smooth="yes"/>
      <point x="92" y="409"/>
      <point x="124" y="391"/>
      <point x="162" y="391" type="curve" smooth="yes"/>
      <point x="203" y="391"/>
      <point x="234" y="409"/>
      <point x="234" y="466" type="curve" smooth="yes"/>
      <point x="234" y="523"/>
      <point x="203" y="541"/>
    </contour>
  </outline>
</glyph>
<glyph name="twosuperior" format="2">
  <advance width="288"/>
  <unicode hex="00B2"/>
  <outline>
    <contour>
      <point x="16" y="387" type="line"/>
      <point x="268" y="387" type="line"/>
      <point x="271" y="531" type="line"/>
      <point x="244" y="531" type="line"/>
      <point x="239" y="504" type="line"/>
      <point x="235" y="484"/>
      <point x="228" y="471"/>
      <point x="209" y="471" type="curve"/>
      <point x="78" y="471" type="line"/>
      <point x="122" y="516" type="line" smooth="yes"/>
      <point x="226" y="614"/>
      <point x="267" y="639"/>
      <point x="267" y="707" type="curve" smooth="yes"/>
      <point x="267" y="776"/>
      <point x="234" y="825"/>
      <point x="143" y="825" type="curve" smooth="yes"/>
      <point x="57" y="825"/>
      <point x="18" y="785"/>
      <point x="18" y="736" type="curve" smooth="yes"/>
      <point x="18" y="702"/>
      <point x="37" y="686"/>
      <point x="94" y="686" type="curve"/>
      <point x="94" y="739"/>
      <point x="98" y="777"/>
      <point x="131" y="777" type="curve" smooth="yes"/>
      <point x="153" y="777"/>
      <point x="165" y="752"/>
      <point x="165" y="710" type="curve" smooth="yes"/>
      <point x="165" y="651"/>
      <point x="137" y="616"/>
      <point x="88" y="552" type="curve" smooth="yes"/>
      <point x="16" y="462" type="line"/>
    </contour>
  </outline>
</glyph>
<glyph name="periodcentered" format="2">
  <advance width="238"/>
  <unicode hex="00B7"/>
  <outline>
    <contour>
      <point x="118" y="277" type="curve" smooth="yes"/>
      <point x="156" y="277"/>
      <point x="189" y="298"/>
      <point x="189" y="356" type="curve" smooth="yes"/>
      <point x="189" y="414"/>
      <point x="156" y="433"/>
      <point x="118" y="433" type="curve" smooth="yes"/>
      <point x="79" y="433"/>
      <point x="49" y="414"/>
      <point x="49" y="356" type="curve" smooth="yes"/>
      <point x="49" y="298"/>
      <point x="79" y="277"/>
    </contour>
  </outline>
</glyph>
<glyph name="Thorn" format="2">
  <advance width="480"/>
  <unicode hex="00DE"/>
  <anchor x="240" y="0" name="bottom"/>
  <anchor x="240" y="714" name="top"/>
  <outline>
    <contour>
      <point x="16" y="0" type="line"/>
      <point x="294" y="0" type="line"/>
      <point x="294" y="53" type="line"/>
      <point x="254" y="53" type="line" smooth="yes"/>
      <point x="241" y="53"/>
      <point x="228" y="69"/>
      <point x="228" y="112" type="curve" smooth="yes"/>
      <point x="228" y="143" type="line"/>
      <point x="235" y="143" type="line" smooth="yes"/>
      <point x="401" y="143"/>
      <point x="463" y="252"/>
      <point x="463" y="371" type="curve" smooth="yes"/>
      <point x="463" y="501"/>
      <point x="395" y="583"/>
      <point x="250" y="583" type="curve" smooth="yes"/>
      <point x="228" y="583" type="line"/>
      <point x="228" y="602" type="line" smooth="yes"/>
      <point x="228" y="648"/>
      <point x="237" y="661"/>
      <point x="254" y="661" type="curve" smooth="yes"/>
      <point x="294" y="661" type="line"/>
      <point x="294" y="714" type="line"/>
      <point x="16" y="714" type="line"/>
      <point x="16" y="661" type="line"/>
      <point x="54" y="661" type="line" smooth="yes"/>
      <point x="65" y="661"/>
      <point x="81" y="648"/>
      <point x="81" y="602" type="curve" smooth="yes"/>
      <point x="81" y="110" type="line" smooth="yes"/>
      <point x="81" y="66"/>
      <point x="65" y="53"/>
      <point x="54" y="53" type="curve" smooth="yes"/>
      <point x="16" y="53" type="line"/>
    </contour>
    <contour>
      <point x="228" y="201" type="line"/>
      <point x="228" y="523" type="line"/>
      <point x="238" y="523" type="line" smooth="yes"/>
      <point x="289" y="523"/>
      <point x="309" y="473"/>
      <point x="309" y="367" type="curve" smooth="yes"/>
      <point x="309" y="247"/>
      <point x="287" y="201"/>
      <point x="237" y="201" type="curve" smooth="yes"/>
    </contour>
  </outline>
</glyph>
<glyph name="divide" format="2">
  <advance width="329"/>
  <unicode hex="00F7"/>
  <outline>
    <contour>
      <point x="17" y="323" type="line"/>
      <point x="312" y="323" type="line"/>
      <point x="312" y="392" type="line"/>
      <point x="17" y="392" type="line"/>
    </contour>
    <contour>
      <point x="165" y="115" type="curve" smooth="yes"/>
      <point x="190" y="115"/>
      <point x="211" y="130"/>
      <point x="211" y="175" type="curve" smooth="yes"/>
      <point x="211" y="220"/>
      <point x="190" y="235"/>
      <point x="165" y="235" type="curve" smooth="yes"/>
      <point x="137" y="235"/>
      <point x="118" y="220"/>
      <point x="118" y="175" type="curve" smooth="yes"/>
      <point x="118" y="130"/>
      <point x="137" y="115"/>
    </contour>
    <contour>
      <point x="165" y="480" type="curve" smooth="yes"/>
      <point x="190" y="480"/>
      <point x="211" y="496"/>
      <point x="211" y="540" type="curve" smooth="yes"/>
      <point x="211" y="586"/>
      <point x="190" y="600"/>
      <point x="165" y="600" type="curve" smooth="yes"/>
      <point x="137" y="600"/>
      <point x="118" y="586"/>
      <point x="118" y="540" type="curve" smooth="yes"/>
      <point x="118" y="496"/>
      <point x="137" y="480"/>
    </contour>
  </outline>
</glyph>
<glyph name="Hbar" format="2">
  <advance width="606"/>
  <unicode hex="0126"/>
  <anchor x="304" y="0" name="bottom"/>
  <anchor x="304" y="714" name="top"/>
  <outline>
    <contour>
      <point x="16" y="0" type="line"/>
      <point x="281" y="0" type="line"/>
      <point x="281" y="53" type="line"/>
      <point x="252" y="53" type="line" smooth="yes"/>
      <point x="237" y="53"/>
      <point x="228" y="71"/>
      <point x="228" y="111" type="curve" smooth="yes"/>
      <point x="228" y="343" type="line"/>
      <point x="379" y="343" type="line"/>
      <point x="379" y="115" type="line" smooth="yes"/>
      <point x="379" y="71"/>
      <point x="371" y="53"/>
      <point x="352" y="53" type="curve" smooth="yes"/>
      <point x="328" y="53" type="line"/>
      <point x="328" y="0" type="line"/>
      <point x="591" y="0" type="line"/>
      <point x="591" y="53" type="line"/>
      <point x="553" y="53" type="line" smooth="yes"/>
      <point x="537" y="53"/>
      <point x="526" y="70"/>
      <point x="526" y="111" type="curve" smooth="yes"/>
      <point x="526" y="501" type="line"/>
      <point x="605" y="501" type="line"/>
      <point x="605" y="552" type="line"/>
      <point x="526" y="552" type="line"/>
      <point x="526" y="602" type="line" smooth="yes"/>
      <point x="526" y="648"/>
      <point x="536" y="661"/>
      <point x="553" y="661" type="curve" smooth="yes"/>
      <point x="591" y="661" type="line"/>
      <point x="591" y="714" type="line"/>
      <point x="328" y="714" type="line"/>
      <point x="328" y="661" type="line"/>
      <point x="351" y="661" type="line" smooth="yes"/>
      <point x="372" y="661"/>
      <point x="379" y="648"/>
      <point x="379" y="602" type="curve" smooth="yes"/>
      <point x="379" y="552" type="line"/>
      <point x="228" y="552" type="line"/>
      <point x="228" y="605" type="line" smooth="yes"/>
      <point x="228" y="648"/>
      <point x="237" y="661"/>
      <point x="252" y="661" type="curve" smooth="yes"/>
      <point x="281" y="661" type="line"/>
      <point x="281" y="714" type="line"/>
      <point x="16" y="714" type="line"/>
      <point x="16" y="661" type="line"/>
      <point x="47" y="661" type="line" smooth="yes"/>
      <point x="67" y="661"/>
      <point x="81" y="648"/>
      <point x="81" y="602" type="curve" smooth="yes"/>
      <point x="81" y="552" type="line"/>
      <point x="3" y="552" type="line"/>
      <point x="3" y="501" type="line"/>
      <point x="81" y="501" type="line"/>
      <point x="81" y="111" type="line" smooth="yes"/>
      <point x="81" y="71"/>
      <point x="70" y="53"/>
      <point x="54" y="53" type="curve" smooth="yes"/>
      <point x="16" y="53" type="line"/>
    </contour>
    <contour>
      <point x="228" y="404" type="line"/>
      <point x="228" y="501" type="line"/>
      <point x="379" y="501" type="line"/>
      <point x="379" y="404" type="line"/>
    </contour>
  </outline>
</glyph>
<glyph name="Tbar" format="2">
  <advance width="494"/>
  <unicode hex="0166"/>
  <anchor x="248" y="0" name="bottom"/>
  <anchor x="248" y="714" name="top"/>
  <outline>
    <contour>
      <point x="114" y="0" type="line"/>
      <point x="380" y="0" type="line"/>
      <point x="380" y="53" type="line"/>
      <point x="341" y="53" type="line" smooth="yes"/>
      <point x="329" y="53"/>
      <point x="321" y="60"/>
      <point x="321" y="118" type="curve" smooth="yes"/>
      <point x="321" y="332" type="line"/>
      <point x="411" y="332" type="line"/>
      <point x="411" y="383" type="line"/>
      <point x="321" y="383" type="line"/>
      <point x="321" y="653" type="line"/>
      <point x="369" y="653" type="line" smooth="yes"/>
      <point x="413" y="653"/>
      <point x="426" y="626"/>
      <point x="429" y="582" type="curve" smooth="yes"/>
      <point x="435" y="521" type="line"/>
      <point x="492" y="521" type="line"/>
      <point x="488" y="714" type="line"/>
      <point x="5" y="714" type="line"/>
      <point x="1" y="521" type="line"/>
      <point x="58" y="521" type="line"/>
      <point x="65" y="582" type="line" smooth="yes"/>
      <point x="68" y="626"/>
      <point x="81" y="653"/>
      <point x="125" y="653" type="curve" smooth="yes"/>
      <point x="174" y="653" type="line"/>
      <point x="174" y="383" type="line"/>
      <point x="82" y="383" type="line"/>
      <point x="82" y="332" type="line"/>
      <point x="174" y="332" type="line"/>
      <point x="174" y="118" type="line" smooth="yes"/>
      <point x="174" y="61"/>
      <point x="166" y="53"/>
      <point x="155" y="53" type="curve" smooth="yes"/>
      <point x="114" y="53" type="line"/>
    </contour>
  </outline>
</glyph>
<glyph name="longs" format="2">
  <advance width="304"/>
  <unicode hex="017F"/>
  <anchor x="152" y="0" name="bottom"/>
  <anchor x="215" y="770" name="top"/>
  <outline>
    <contour>
      <point x="1" y="0" type="line"/>
      <point x="294" y="0" type="line"/>
      <point x="294" y="53" type="line"/>
      <point x="255" y="53" type="line" smooth="yes"/>
      <point x="228" y="53"/>
      <point x="209" y="68"/>
      <point x="209" y="124" type="curve" smooth="yes"/>
      <point x="209" y="588" type="line" smooth="yes"/>
      <point x="209" y="676"/>
      <point x="219" y="713"/>
      <point x="241" y="713" type="curve" smooth="yes"/>
      <point x="266" y="713"/>
      <point x="272" y="678"/>
      <point x="272" y="631" type="curve"/>
      <point x="339" y="631"/>
      <point x="367" y="651"/>
      <point x="367" y="690" type="curve" smooth="yes"/>
      <point x="367" y="729"/>
      <point x="344" y="770"/>
      <point x="236" y="770" type="curve" smooth="yes"/>
      <point x="119" y="770"/>
      <point x="68" y="698"/>
      <point x="68" y="573" type="curve" smooth="yes"/>
      <point x="68" y="124" type="line" smooth="yes"/>
      <point x="68" y="66"/>
      <point x="51" y="53"/>
      <point x="24" y="53" type="curve" smooth="yes"/>
      <point x="1" y="53" type="line"/>
    </contour>
  </outline>
</glyph>
<glyph name="uni0184" format="2">
  <advance width="523"/>
  <unicode hex="0184"/>
  <anchor x="262" y="0" name="bottom"/>
  <anchor x="262" y="714" name="top"/>
  <outline>
    <contour>
      <point x="269" y="-10" type="curve" smooth="yes"/>
      <point x="427" y="-10"/>
      <point x="492" y="74"/>
      <point x="492" y="202" type="curve" smooth="yes"/>
      <point x="492" y="341"/>
      <point x="408" y="402"/>
      <point x="282" y="402" type="curve" smooth="yes"/>
      <point x="225" y="402" type="line"/>
      <point x="225" y="596" type="line" smooth="yes"/>
      <point x="225" y="650"/>
      <point x="235" y="661"/>
      <point x="263" y="661" type="curve" smooth="yes"/>
      <point x="291" y="661" type="line"/>
      <point x="291" y="714" type="line"/>
      <point x="13" y="714" type="line"/>
      <point x="13" y="661" type="line"/>
      <point x="42" y="661" type="line" smooth="yes"/>
      <point x="64" y="661"/>
      <point x="80" y="652"/>
      <point x="80" y="599" type="curve" smooth="yes"/>
      <point x="80" y="219" type="line" smooth="yes"/>
      <point x="80" y="75"/>
      <point x="126" y="-10"/>
    </contour>
    <contour>
      <point x="280" y="49" type="curve"/>
      <point x="239" y="49"/>
      <point x="224" y="92"/>
      <point x="224" y="192" type="curve" smooth="yes"/>
      <point x="224" y="343" type="line"/>
      <point x="248" y="343" type="line" smooth="yes"/>
      <point x="310" y="343"/>
      <point x="338" y="306"/>
      <point x="338" y="198" type="curve" smooth="yes"/>
      <point x="338" y="92"/>
      <point x="317" y="49"/>
    </contour>
  </outline>
</glyph>
<glyph name="uni0186" format="2">
  <advance width="512"/>
  <unicode hex="0186"/>
  <anchor x="257" y="0" name="bottom"/>
  <anchor x="257" y="714" name="top"/>
  <outline>
    <contour>
      <point x="204" y="-10" type="curve" smooth="yes"/>
      <point x="384" y="-10"/>
      <point x="479" y="147"/>
      <point x="479" y="364" type="curve" smooth="yes"/>
      <point x="479" y="597"/>
      <point x="394" y="724"/>
      <point x="218" y="724" type="curve" smooth="yes"/>
      <point x="123" y="724"/>
      <point x="35" y="677"/>
      <point x="35" y="586" type="curve" smooth="yes"/>
      <point x="35" y="540"/>
      <point x="54" y="509"/>
      <point x="131" y="509" type="curve"/>
      <point x="130" y="599"/>
      <point x="151" y="656"/>
      <point x="218" y="656" type="curve" smooth="yes"/>
      <point x="298" y="656"/>
      <point x="326" y="564"/>
      <point x="326" y="356" type="curve" smooth="yes"/>
      <point x="326" y="171"/>
      <point x="295" y="54"/>
      <point x="211" y="54" type="curve" smooth="yes"/>
      <point x="143" y="54"/>
      <point x="130" y="130"/>
      <point x="130" y="207" type="curve"/>
      <point x="46" y="207"/>
      <point x="23" y="173"/>
      <point x="23" y="120" type="curve" smooth="yes"/>
      <point x="23" y="62"/>
      <point x="70" y="-10"/>
    </contour>
  </outline>
</glyph>
<glyph name="uni0191" format="2">
  <advance width="466"/>
  <unicode hex="0191"/>
  <anchor x="234" y="-240" name="bottom"/>
  <anchor x="234" y="714" name="top"/>
  <outline>
    <contour>
      <point x="-29" y="-240" type="line"/>
      <point x="-4" y="-240" type="line" smooth="yes"/>
      <point x="164" y="-240"/>
      <point x="225" y="-162"/>
      <point x="225" y="49" type="curve" smooth="yes"/>
      <point x="225" y="320" type="line"/>
      <point x="395" y="320" type="line"/>
      <point x="395" y="381" type="line"/>
      <point x="225" y="381" type="line"/>
      <point x="225" y="653" type="line"/>
      <point x="338" y="653" type="line" smooth="yes"/>
      <point x="356" y="653"/>
      <point x="379" y="631"/>
      <point x="382" y="578" type="curve" smooth="yes"/>
      <point x="386" y="530" type="line"/>
      <point x="445" y="530" type="line"/>
      <point x="442" y="714" type="line"/>
      <point x="14" y="714" type="line"/>
      <point x="14" y="661" type="line"/>
      <point x="51" y="661" type="line" smooth="yes"/>
      <point x="67" y="661"/>
      <point x="81" y="648"/>
      <point x="81" y="605" type="curve" smooth="yes"/>
      <point x="81" y="23" type="line" smooth="yes"/>
      <point x="81" y="-127"/>
      <point x="44" y="-188"/>
      <point x="-22" y="-188" type="curve" smooth="yes"/>
      <point x="-29" y="-188" type="line"/>
    </contour>
  </outline>
</glyph>
<glyph name="uni019D" format="2">
  <advance width="583"/>
  <unicode hex="019D"/>
  <anchor x="291" y="-240" name="bottom"/>
  <anchor x="291" y="714" name="top"/>
  <outline>
    <contour>
      <point x="-3" y="-240" type="line"/>
      <point x="38" y="-240" type="line" smooth="yes"/>
      <point x="105" y="-240"/>
      <point x="143" y="-203"/>
      <point x="143" y="-38" type="curve" smooth="yes"/>
      <point x="143" y="560" type="line"/>
      <point x="432" y="0" type="line"/>
      <point x="511" y="0" type="line"/>
      <point x="511" y="596" type="line" smooth="yes"/>
      <point x="511" y="648"/>
      <point x="525" y="661"/>
      <point x="547" y="661" type="curve" smooth="yes"/>
      <point x="576" y="661" type="line"/>
      <point x="576" y="714" type="line"/>
      <point x="383" y="714" type="line"/>
      <point x="383" y="661" type="line"/>
      <point x="415" y="661" type="line" smooth="yes"/>
      <point x="433" y="661"/>
      <point x="448" y="649"/>
      <point x="448" y="600" type="curve" smooth="yes"/>
      <point x="448" y="210" type="line"/>
      <point x="197" y="714" type="line"/>
      <point x="14" y="714" type="line"/>
      <point x="14" y="661" type="line"/>
      <point x="45" y="661" type="line" smooth="yes"/>
      <point x="64" y="661"/>
      <point x="81" y="654"/>
      <point x="81" y="600" type="curve" smooth="yes"/>
      <point x="81" y="-12" type="line" smooth="yes"/>
      <point x="81" y="-138"/>
      <point x="52" y="-179"/>
      <point x="5" y="-179" type="curve" smooth="yes"/>
      <point x="-3" y="-179" type="line"/>
    </contour>
  </outline>
</glyph>
<glyph name="uni019E" format="2">
  <advance width="493"/>
  <unicode hex="019E"/>
  <anchor x="247" y="-240" name="bottom"/>
  <anchor x="247" y="536" name="top"/>
  <outline>
    <contour>
      <point x="240" y="-240" type="line"/>
      <point x="476" y="-240" type="line"/>
      <point x="476" y="-187" type="line"/>
      <point x="473" y="-187" type="line" smooth="yes"/>
      <point x="440" y="-187"/>
      <point x="431" y="-176"/>
      <point x="431" y="-119" type="curve" smooth="yes"/>
      <point x="431" y="355" type="line" smooth="yes"/>
      <point x="431" y="493"/>
      <point x="387" y="549"/>
      <point x="314" y="549" type="curve" smooth="yes"/>
      <point x="266" y="549"/>
      <point x="227" y="525"/>
      <point x="205" y="464" type="curve"/>
      <point x="201" y="464" type="line"/>
      <point x="192" y="536" type="line"/>
      <point x="12" y="536" type="line"/>
      <point x="12" y="483" type="line"/>
      <point x="15" y="483" type="line" smooth="yes"/>
      <point x="48" y="483"/>
      <point x="62" y="474"/>
      <point x="62" y="419" type="curve" smooth="yes"/>
      <point x="62" y="121" type="line" smooth="yes"/>
      <point x="62" y="66"/>
      <point x="49" y="53"/>
      <point x="17" y="53" type="curve" smooth="yes"/>
      <point x="9" y="53" type="line"/>
      <point x="9" y="0" type="line"/>
      <point x="252" y="0" type="line"/>
      <point x="252" y="53" type="line"/>
      <point x="248" y="53" type="line" smooth="yes"/>
      <point x="216" y="53"/>
      <point x="204" y="61"/>
      <point x="204" y="118" type="curve" smooth="yes"/>
      <point x="204" y="309" type="line" smooth="yes"/>
      <point x="204" y="394"/>
      <point x="215" y="466"/>
      <point x="250" y="466" type="curve" smooth="yes"/>
      <point x="282" y="466"/>
      <point x="290" y="415"/>
      <point x="290" y="330" type="curve" smooth="yes"/>
      <point x="290" y="-116" type="line" smooth="yes"/>
      <point x="290" y="-177"/>
      <point x="279" y="-187"/>
      <point x="246" y="-187" type="curve" smooth="yes"/>
      <point x="240" y="-187" type="line"/>
    </contour>
  </outline>
</glyph>
<glyph name="uni01A3" format="2">
  <advance width="732"/>
  <unicode hex="01A3"/>
  <anchor x="366" y="-240" name="bottom"/>
  <anchor x="366" y="536" name="top"/>
  <outline>
    <contour>
      <point x="523" y="-240" type="line"/>
      <point x="708" y="-240" type="line"/>
      <point x="708" y="-187" type="line"/>
      <point x="708" y="-187" type="line" smooth="yes"/>
      <point x="676" y="-187"/>
      <point x="665" y="-178"/>
      <point x="665" y="-117" type="curve" smooth="yes"/>
      <point x="665" y="346" type="line" smooth="yes"/>
      <point x="665" y="494"/>
      <point x="624" y="549"/>
      <point x="527" y="549" type="curve" smooth="yes"/>
      <point x="454" y="549"/>
      <point x="417" y="506"/>
      <point x="397" y="436" type="curve"/>
      <point x="396" y="436" type="line"/>
      <point x="369" y="511"/>
      <point x="313" y="549"/>
      <point x="228" y="549" type="curve" smooth="yes"/>
      <point x="94" y="549"/>
      <point x="29" y="459"/>
      <point x="29" y="269" type="curve" smooth="yes"/>
      <point x="29" y="81"/>
      <point x="103" y="-10"/>
      <point x="224" y="-10" type="curve" smooth="yes"/>
      <point x="355" y="-10"/>
      <point x="422" y="80"/>
      <point x="422" y="268" type="curve" smooth="yes"/>
      <point x="422" y="331" type="line" smooth="yes"/>
      <point x="422" y="410"/>
      <point x="433" y="466"/>
      <point x="474" y="466" type="curve" smooth="yes"/>
      <point x="515" y="466"/>
      <point x="523" y="426"/>
      <point x="523" y="344" type="curve" smooth="yes"/>
    </contour>
    <contour>
      <point x="225" y="53" type="curve" smooth="yes"/>
      <point x="188" y="53"/>
      <point x="174" y="126"/>
      <point x="174" y="269" type="curve" smooth="yes"/>
      <point x="174" y="414"/>
      <point x="187" y="486"/>
      <point x="225" y="486" type="curve" smooth="yes"/>
      <point x="264" y="486"/>
      <point x="279" y="414"/>
      <point x="279" y="269" type="curve" smooth="yes"/>
      <point x="279" y="126"/>
      <point x="265" y="53"/>
    </contour>
  </outline>
</glyph>
<glyph name="uni01A7" format="2">
  <advance width="447"/>
  <unicode hex="01A7"/>
  <anchor x="224" y="0" name="bottom"/>
  <anchor x="224" y="714" name="top"/>
  <outline>
    <contour>
      <point x="221" y="-10" type="curve" smooth="yes"/>
      <point x="377" y="-10"/>
      <point x="422" y="68"/>
      <point x="422" y="117" type="curve" smooth="yes"/>
      <point x="422" y="152"/>
      <point x="406" y="170"/>
      <point x="386" y="176" type="curve"/>
      <point x="356" y="90"/>
      <point x="299" y="54"/>
      <point x="227" y="54" type="curve" smooth="yes"/>
      <point x="171" y="54"/>
      <point x="140" y="90"/>
      <point x="140" y="158" type="curve" smooth="yes"/>
      <point x="140" y="227"/>
      <point x="178" y="261"/>
      <point x="266" y="309" type="curve" smooth="yes"/>
      <point x="373" y="366"/>
      <point x="407" y="434"/>
      <point x="407" y="535" type="curve" smooth="yes"/>
      <point x="407" y="651"/>
      <point x="336" y="724"/>
      <point x="218" y="724" type="curve" smooth="yes"/>
      <point x="101" y="724"/>
      <point x="46" y="660"/>
      <point x="46" y="601" type="curve" smooth="yes"/>
      <point x="46" y="554"/>
      <point x="74" y="523"/>
      <point x="152" y="523" type="curve"/>
      <point x="152" y="589"/>
      <point x="170" y="665"/>
      <point x="236" y="665" type="curve" smooth="yes"/>
      <point x="270" y="665"/>
      <point x="293" y="626"/>
      <point x="293" y="568" type="curve" smooth="yes"/>
      <point x="293" y="513"/>
      <point x="274" y="475"/>
      <point x="165" y="421" type="curve" smooth="yes"/>
      <point x="56" y="367"/>
      <point x="25" y="304"/>
      <point x="25" y="200" type="curve" smooth="yes"/>
      <point x="25" y="75"/>
      <point x="91" y="-10"/>
    </contour>
  </outline>
</glyph>
<glyph name="uni01BA" format="2">
  <advance width="400"/>
  <unicode hex="01BA"/>
  <anchor x="200" y="-240" name="bottom"/>
  <anchor x="200" y="536" name="top"/>
  <outline>
    <contour>
      <point x="182" y="-240" type="curve" smooth="yes"/>
      <point x="283" y="-240"/>
      <point x="349" y="-196"/>
      <point x="349" y="-133" type="curve" smooth="yes"/>
      <point x="349" y="-110"/>
      <point x="338" y="-99"/>
      <point x="328" y="-92" type="curve"/>
      <point x="302" y="-138"/>
      <point x="255" y="-174"/>
      <point x="190" y="-174" type="curve" smooth="yes"/>
      <point x="134" y="-174"/>
      <point x="109" y="-150"/>
      <point x="109" y="-108" type="curve" smooth="yes"/>
      <point x="109" y="-63"/>
      <point x="129" y="-43"/>
      <point x="187" y="-33" type="curve" smooth="yes"/>
      <point x="291" y="-14"/>
      <point x="370" y="29"/>
      <point x="370" y="143" type="curve" smooth="yes"/>
      <point x="370" y="244"/>
      <point x="312" y="285"/>
      <point x="218" y="288" type="curve"/>
      <point x="342" y="460" type="line"/>
      <point x="342" y="536" type="line"/>
      <point x="37" y="536" type="line"/>
      <point x="23" y="341" type="line"/>
      <point x="64" y="341" type="line"/>
      <point x="72" y="369" type="line" smooth="yes"/>
      <point x="82" y="410"/>
      <point x="91" y="434"/>
      <point x="143" y="434" type="curve" smooth="yes"/>
      <point x="245" y="434" type="line"/>
      <point x="137" y="276" type="line"/>
      <point x="137" y="225" type="line"/>
      <point x="147" y="225" type="line" smooth="yes"/>
      <point x="202" y="225"/>
      <point x="233" y="193"/>
      <point x="233" y="132" type="curve" smooth="yes"/>
      <point x="233" y="60"/>
      <point x="204" y="34"/>
      <point x="130" y="17" type="curve" smooth="yes"/>
      <point x="40" y="-3"/>
      <point x="23" y="-38"/>
      <point x="23" y="-112" type="curve" smooth="yes"/>
      <point x="23" y="-196"/>
      <point x="73" y="-240"/>
    </contour>
  </outline>
</glyph>
<glyph name="uni01C1" format="2">
  <advance width="442"/>
  <unicode hex="01C1"/>
  <anchor x="222" y="0" name="bottom"/>
  <anchor x="222" y="760" name="top"/>
  <outline>
    <contour>
      <point x="259" y="0" type="line"/>
      <point x="336" y="0" type="line"/>
      <point x="336" y="760" type="line"/>
      <point x="259" y="760" type="line"/>
    </contour>
    <contour>
      <point x="106" y="0" type="line"/>
      <point x="184" y="0" type="line"/>
      <point x="184" y="760" type="line"/>
      <point x="106" y="760" type="line"/>
    </contour>
  </outline>
</glyph>
<glyph name="Aringacute" format="2">
  <advance width="570"/>
  <unicode hex="01FA"/>
  <anchor x="286" y="0" name="bottom"/>
  <anchor x="286" y="958" name="top"/>
  <outline>
    <contour>
      <point x="5" y="0" type="line"/>
      <point x="201" y="0" type="line"/>
      <point x="201" y="53" type="line"/>
      <point x="160" y="53" type="line" smooth="yes"/>
      <point x="157" y="53"/>
      <point x="140" y="67"/>
      <point x="140" y="87" type="curve" smooth="yes"/>
      <point x="140" y="105"/>
      <point x="148" y="132"/>
      <point x="153" y="150" type="curve" smooth="yes"/>
      <point x="165" y="212" type="line"/>
      <point x="335" y="212" type="line"/>
      <point x="354" y="136" type="line" smooth="yes"/>
      <point x="357" y="124"/>
      <point x="361" y="105"/>
      <point x="361" y="86" type="curve" smooth="yes"/>
      <point x="361" y="65"/>
      <point x="341" y="53"/>
      <point x="339" y="53" type="curve" smooth="yes"/>
      <point x="301" y="53" type="line"/>
      <point x="301" y="0" type="line"/>
      <point x="570" y="0" type="line"/>
      <point x="570" y="53" type="line"/>
      <point x="554" y="53" type="line" smooth="yes"/>
      <point x="535" y="53"/>
      <point x="513" y="68"/>
      <point x="499" y="117" type="curve" smooth="yes"/>
      <point x="362" y="611" type="line"/>
      <point x="370" y="629"/>
      <point x="377" y="659"/>
      <point x="377" y="697" type="curve" smooth="yes"/>
      <point x="377" y="768"/>
      <point x="337" y="806"/>
      <point x="290" y="806" type="curve" smooth="yes"/>
      <point x="241" y="806"/>
      <point x="203" y="768"/>
      <point x="203" y="697" type="curve" smooth="yes"/>
      <point x="203" y="656"/>
      <point x="206" y="630"/>
      <point x="217" y="611" type="curve"/>
      <point x="69" y="118" type="line" smooth="yes"/>
      <point x="55" y="64"/>
      <point x="33" y="53"/>
      <point x="9" y="53" type="curve" smooth="yes"/>
      <point x="5" y="53" type="line"/>
    </contour>
    <contour>
      <point x="183" y="273" type="line"/>
      <point x="217" y="420" type="line" smooth="yes"/>
      <point x="229" y="464"/>
      <point x="246" y="519"/>
      <point x="254" y="557" type="curve"/>
      <point x="261" y="517"/>
      <point x="273" y="454"/>
      <point x="282" y="414" type="curve" smooth="yes"/>
      <point x="313" y="273" type="line"/>
    </contour>
    <contour>
      <point x="290" y="641" type="curve" smooth="yes"/>
      <point x="260" y="641"/>
      <point x="251" y="656"/>
      <point x="251" y="697" type="curve" smooth="yes"/>
      <point x="251" y="738"/>
      <point x="268" y="753"/>
      <point x="290" y="753" type="curve" smooth="yes"/>
      <point x="311" y="753"/>
      <point x="327" y="738"/>
      <point x="327" y="697" type="curve" smooth="yes"/>
      <point x="327" y="657"/>
      <point x="314" y="641"/>
    </contour>
    <contour>
      <point x="226" y="830" type="line"/>
      <point x="291" y="830" type="line"/>
      <point x="341" y="859"/>
      <point x="423" y="922"/>
      <point x="443" y="950" type="curve"/>
      <point x="443" y="958" type="line"/>
      <point x="300" y="958" type="line"/>
      <point x="286" y="922"/>
      <point x="247" y="871"/>
      <point x="226" y="840" type="curve"/>
    </contour>
  </outline>
</glyph>
<glyph name="uni021C" format="2">
  <advance width="471"/>
  <unicode hex="021C"/>
  <anchor x="242" y="-114" name="bottom"/>
  <anchor x="217" y="714" name="top"/>
  <outline>
    <contour>
      <point x="50" y="-160" type="line"/>
      <point x="264" y="-106"/>
      <point x="424" y="1"/>
      <point x="424" y="183" type="curve" smooth="yes"/>
      <point x="424" y="312"/>
      <point x="347" y="355"/>
      <point x="260" y="380" type="curve"/>
      <point x="316" y="409"/>
      <point x="424" y="456"/>
      <point x="424" y="553" type="curve" smooth="yes"/>
      <point x="424" y="667"/>
      <point x="330" y="724"/>
      <point x="223" y="724" type="curve" smooth="yes"/>
      <point x="125" y="724"/>
      <point x="47" y="665"/>
      <point x="47" y="593" type="curve" smooth="yes"/>
      <point x="47" y="536"/>
      <point x="75" y="510"/>
      <point x="161" y="510" type="curve"/>
      <point x="161" y="605"/>
      <point x="174" y="663"/>
      <point x="217" y="663" type="curve" smooth="yes"/>
      <point x="251" y="663"/>
      <point x="266" y="614"/>
      <point x="266" y="540" type="curve" smooth="yes"/>
      <point x="266" y="452"/>
      <point x="223" y="415"/>
      <point x="127" y="363" type="curve"/>
      <point x="157" y="309" type="line"/>
      <point x="174" y="320"/>
      <point x="193" y="333"/>
      <point x="216" y="345" type="curve"/>
      <point x="240" y="315"/>
      <point x="248" y="263"/>
      <point x="248" y="189" type="curve" smooth="yes"/>
      <point x="248" y="61"/>
      <point x="159" y="-46"/>
      <point x="50" y="-98" type="curve"/>
    </contour>
  </outline>
</glyph>
<glyph name="uni0220" format="2">
  <advance width="627"/>
  <unicode hex="0220"/>
  <anchor x="313" y="-240" name="bottom"/>
  <anchor x="313" y="714" name="top"/>
  <outline>
    <contour>
      <point x="320" y="-240" type="line"/>
      <point x="600" y="-240" type="line"/>
      <point x="600" y="-187" type="line"/>
      <point x="575" y="-187" type="line" smooth="yes"/>
      <point x="550" y="-187"/>
      <point x="533" y="-176"/>
      <point x="533" y="-123" type="curve" smooth="yes"/>
      <point x="533" y="506" type="line" smooth="yes"/>
      <point x="533" y="659"/>
      <point x="476" y="727"/>
      <point x="373" y="727" type="curve" smooth="yes"/>
      <point x="293" y="727"/>
      <point x="254" y="687"/>
      <point x="232" y="630" type="curve"/>
      <point x="225" y="630" type="line"/>
      <point x="218" y="714" type="line"/>
      <point x="16" y="714" type="line"/>
      <point x="16" y="661" type="line"/>
      <point x="39" y="661" type="line" smooth="yes"/>
      <point x="63" y="661"/>
      <point x="81" y="651"/>
      <point x="81" y="597" type="curve" smooth="yes"/>
      <point x="81" y="121" type="line" smooth="yes"/>
      <point x="81" y="63"/>
      <point x="65" y="53"/>
      <point x="39" y="53" type="curve" smooth="yes"/>
      <point x="16" y="53" type="line"/>
      <point x="16" y="0" type="line"/>
      <point x="294" y="0" type="line"/>
      <point x="294" y="53" type="line"/>
      <point x="268" y="53" type="line" smooth="yes"/>
      <point x="243" y="53"/>
      <point x="228" y="63"/>
      <point x="228" y="121" type="curve" smooth="yes"/>
      <point x="228" y="466" type="line" smooth="yes"/>
      <point x="228" y="569"/>
      <point x="248" y="646"/>
      <point x="309" y="646" type="curve" smooth="yes"/>
      <point x="364" y="646"/>
      <point x="388" y="592"/>
      <point x="388" y="472" type="curve" smooth="yes"/>
      <point x="388" y="-119" type="line" smooth="yes"/>
      <point x="388" y="-177"/>
      <point x="371" y="-187"/>
      <point x="345" y="-187" type="curve" smooth="yes"/>
      <point x="320" y="-187" type="line"/>
    </contour>
  </outline>
</glyph>
<glyph name="uni0223" format="2">
  <advance width="498"/>
  <unicode hex="0223"/>
  <anchor x="249" y="0" name="bottom"/>
  <anchor x="249" y="765" name="top"/>
  <outline>
    <contour>
      <point x="247" y="-10" type="curve" smooth="yes"/>
      <point x="392" y="-10"/>
      <point x="469" y="72"/>
      <point x="469" y="235" type="curve" smooth="yes"/>
      <point x="469" y="362"/>
      <point x="409" y="425"/>
      <point x="351" y="450" type="curve"/>
      <point x="412" y="477"/>
      <point x="450" y="537"/>
      <point x="450" y="602" type="curve" smooth="yes"/>
      <point x="450" y="693"/>
      <point x="395" y="752"/>
      <point x="284" y="765" type="curve"/>
      <point x="294" y="735"/>
      <point x="304" y="687"/>
      <point x="304" y="621" type="curve" smooth="yes"/>
      <point x="304" y="535"/>
      <point x="295" y="475"/>
      <point x="249" y="475" type="curve" smooth="yes"/>
      <point x="203" y="475"/>
      <point x="194" y="535"/>
      <point x="194" y="621" type="curve" smooth="yes"/>
      <point x="194" y="687"/>
      <point x="203" y="735"/>
      <point x="214" y="765" type="curve"/>
      <point x="102" y="752"/>
      <point x="48" y="692"/>
      <point x="48" y="602" type="curve" smooth="yes"/>
      <point x="48" y="531"/>
      <point x="88" y="478"/>
      <point x="148" y="451" type="curve"/>
      <point x="87" y="427"/>
      <point x="29" y="363"/>
      <point x="29" y="235" type="curve" smooth="yes"/>
      <point x="29" y="72"/>
      <point x="112" y="-10"/>
    </contour>
    <contour>
      <point x="249" y="47" type="curve" smooth="yes"/>
      <point x="195" y="47"/>
      <point x="175" y="116"/>
      <point x="175" y="235" type="curve" smooth="yes"/>
      <point x="175" y="359"/>
      <point x="196" y="423"/>
      <point x="248" y="423" type="curve" smooth="yes"/>
      <point x="300" y="423"/>
      <point x="323" y="359"/>
      <point x="323" y="235" type="curve" smooth="yes"/>
      <point x="323" y="116"/>
      <point x="301" y="47"/>
    </contour>
  </outline>
</glyph>
<glyph name="uni0224" format="2">
  <advance width="523"/>
  <unicode hex="0224"/>
  <anchor x="261" y="0" name="bottom"/>
  <anchor x="261" y="714" name="top"/>
  <outline>
    <contour>
      <point x="418" y="-197" type="curve"/>
      <point x="475" y="-193"/>
      <point x="521" y="-159"/>
      <point x="521" y="-74" type="curve" smooth="yes"/>
      <point x="521" y="21"/>
      <point x="461" y="61"/>
      <point x="371" y="61" type="curve" smooth="yes"/>
      <point x="197" y="61" type="line"/>
      <point x="470" y="664" type="line"/>
      <point x="470" y="714" type="line"/>
      <point x="52" y="714" type="line"/>
      <point x="47" y="510" type="line"/>
      <point x="110" y="510" type="line"/>
      <point x="114" y="564" type="line" smooth="yes"/>
      <point x="117" y="617"/>
      <point x="125" y="653"/>
      <point x="174" y="653" type="curve" smooth="yes"/>
      <point x="304" y="653" type="line"/>
      <point x="33" y="49" type="line"/>
      <point x="33" y="0" type="line"/>
      <point x="335" y="0" type="line" smooth="yes"/>
      <point x="390" y="0"/>
      <point x="433" y="-18"/>
      <point x="433" y="-109" type="curve" smooth="yes"/>
      <point x="433" y="-140"/>
      <point x="426" y="-174"/>
    </contour>
  </outline>
</glyph>
<glyph name="uni0238" format="2">
  <advance width="693"/>
  <unicode hex="0238"/>
  <anchor x="347" y="0" name="bottom"/>
  <anchor x="347" y="760" name="top"/>
  <outline>
    <contour>
      <point x="199" y="-10" type="curve" smooth="yes"/>
      <point x="263" y="-10"/>
      <point x="320" y="36"/>
      <point x="347" y="126" type="curve"/>
      <point x="370" y="33"/>
      <point x="427" y="-10"/>
      <point x="494" y="-10" type="curve" smooth="yes"/>
      <point x="622" y="-10"/>
      <point x="667" y="76"/>
      <point x="667" y="269" type="curve" smooth="yes"/>
      <point x="667" y="462"/>
      <point x="620" y="547"/>
      <point x="524" y="547" type="curve" smooth="yes"/>
      <point x="471" y="547"/>
      <point x="438" y="513"/>
      <point x="417" y="467" type="curve"/>
      <point x="415" y="467" type="line"/>
      <point x="417" y="497"/>
      <point x="420" y="552"/>
      <point x="420" y="589" type="curve" smooth="yes"/>
      <point x="420" y="760" type="line"/>
      <point x="213" y="760" type="line"/>
      <point x="213" y="707" type="line"/>
      <point x="221" y="707" type="line" smooth="yes"/>
      <point x="251" y="707"/>
      <point x="277" y="700"/>
      <point x="277" y="644" type="curve" smooth="yes"/>
      <point x="277" y="583" type="line" smooth="yes"/>
      <point x="277" y="544"/>
      <point x="278" y="504"/>
      <point x="280" y="472" type="curve"/>
      <point x="275" y="472" type="line"/>
      <point x="256" y="515"/>
      <point x="226" y="547"/>
      <point x="173" y="547" type="curve" smooth="yes"/>
      <point x="81" y="547"/>
      <point x="27" y="460"/>
      <point x="27" y="267" type="curve" smooth="yes"/>
      <point x="27" y="75"/>
      <point x="75" y="-10"/>
    </contour>
    <contour>
      <point x="220" y="61" type="curve" smooth="yes"/>
      <point x="184" y="61"/>
      <point x="170" y="130"/>
      <point x="170" y="267" type="curve" smooth="yes"/>
      <point x="170" y="404"/>
      <point x="184" y="478"/>
      <point x="221" y="478" type="curve" smooth="yes"/>
      <point x="266" y="478"/>
      <point x="277" y="404"/>
      <point x="277" y="268" type="curve" smooth="yes"/>
      <point x="277" y="135"/>
      <point x="264" y="61"/>
    </contour>
    <contour>
      <point x="474" y="61" type="curve" smooth="yes"/>
      <point x="431" y="61"/>
      <point x="418" y="136"/>
      <point x="418" y="271" type="curve" smooth="yes"/>
      <point x="418" y="409"/>
      <point x="429" y="478"/>
      <point x="473" y="478" type="curve" smooth="yes"/>
      <point x="509" y="478"/>
      <point x="525" y="411"/>
      <point x="525" y="272" type="curve" smooth="yes"/>
      <point x="525" y="136"/>
      <point x="509" y="61"/>
    </contour>
  </outline>
</glyph>
<glyph name="uni0242" format="2">
  <advance width="471"/>
  <unicode hex="0242"/>
  <anchor x="235" y="0" name="bottom"/>
  <anchor x="235" y="536" name="top"/>
  <outline>
    <contour>
      <point x="103" y="0" type="line"/>
      <point x="357" y="0" type="line"/>
      <point x="357" y="53" type="line"/>
      <point x="345" y="53" type="line" smooth="yes"/>
      <point x="332" y="53"/>
      <point x="301" y="61"/>
      <point x="301" y="118" type="curve" smooth="yes"/>
      <point x="301" y="159" type="line"/>
      <point x="319" y="177" type="line" smooth="yes"/>
      <point x="382" y="229"/>
      <point x="433" y="280"/>
      <point x="433" y="371" type="curve" smooth="yes"/>
      <point x="433" y="487"/>
      <point x="360" y="547"/>
      <point x="226" y="547" type="curve" smooth="yes"/>
      <point x="97" y="547"/>
      <point x="47" y="485"/>
      <point x="47" y="417" type="curve" smooth="yes"/>
      <point x="47" y="369"/>
      <point x="75" y="339"/>
      <point x="177" y="339" type="curve"/>
      <point x="177" y="447"/>
      <point x="192" y="489"/>
      <point x="232" y="489" type="curve" smooth="yes"/>
      <point x="260" y="489"/>
      <point x="278" y="459"/>
      <point x="278" y="397" type="curve" smooth="yes"/>
      <point x="278" y="320"/>
      <point x="233" y="278"/>
      <point x="194" y="248" type="curve" smooth="yes"/>
      <point x="157" y="217" type="line"/>
      <point x="157" y="118" type="line" smooth="yes"/>
      <point x="157" y="62"/>
      <point x="123" y="53"/>
      <point x="110" y="53" type="curve" smooth="yes"/>
      <point x="103" y="53" type="line"/>
    </contour>
  </outline>
</glyph>
<glyph name="uni0248" format="2">
  <advance width="312"/>
  <unicode hex="0248"/>
  <anchor x="86" y="-240" name="bottom"/>
  <anchor x="136" y="714" name="top"/>
  <anchor x="278" y="714" name="topright"/>
  <outline>
    <contour>
      <point x="-1" y="324" type="line"/>
      <point x="273" y="324" type="line"/>
      <point x="273" y="386" type="line"/>
      <point x="-1" y="386" type="line"/>
    </contour>
    <component base="J"/>
  </outline>
</glyph>
<glyph name="uni024D" format="2">
  <advance width="406"/>
  <unicode hex="024D"/>
  <anchor x="203" y="0" name="bottom"/>
  <anchor x="203" y="536" name="top"/>
  <anchor x="406" y="536" name="topright"/>
  <outline>
    <contour>
      <point x="1" y="245" type="line"/>
      <point x="275" y="245" type="line"/>
      <point x="275" y="303" type="line"/>
      <point x="1" y="303" type="line"/>
    </contour>
    <component base="r"/>
  </outline>
</glyph>
<glyph name="uni0254" format="2">
  <advance width="400"/>
  <unicode hex="0254"/>
  <anchor x="200" y="0" name="bottom"/>
  <anchor x="200" y="536" name="top"/>
  <outline>
    <contour>
      <point x="173" y="-10" type="curve" smooth="yes"/>
      <point x="286" y="-10"/>
      <point x="369" y="70"/>
      <point x="369" y="276" type="curve" smooth="yes"/>
      <point x="369" y="486"/>
      <point x="297" y="549"/>
      <point x="182" y="549" type="curve" smooth="yes"/>
      <point x="64" y="549"/>
      <point x="27" y="499"/>
      <point x="27" y="439" type="curve" smooth="yes"/>
      <point x="27" y="391"/>
      <point x="62" y="376"/>
      <point x="129" y="376" type="curve"/>
      <point x="130" y="445"/>
      <point x="144" y="479"/>
      <point x="176" y="479" type="curve" smooth="yes"/>
      <point x="215" y="479"/>
      <point x="227" y="422"/>
      <point x="227" y="271" type="curve" smooth="yes"/>
      <point x="227" y="118"/>
      <point x="207" y="52"/>
      <point x="175" y="52" type="curve" smooth="yes"/>
      <point x="137" y="52"/>
      <point x="129" y="95"/>
      <point x="129" y="172" type="curve"/>
      <point x="49" y="172"/>
      <point x="24" y="147"/>
      <point x="24" y="102" type="curve" smooth="yes"/>
      <point x="24" y="46"/>
      <point x="55" y="-10"/>
    </contour>
  </outline>
</glyph>
<glyph name="uni0265" format="2">
  <advance width="499"/>
  <unicode hex="0265"/>
  <anchor x="249" y="-229" name="bottom"/>
  <anchor x="249" y="536" name="top"/>
  <outline>
    <contour>
      <point x="283" y="-229" type="line"/>
      <point x="481" y="-229" type="line"/>
      <point x="481" y="-176" type="line"/>
      <point x="471" y="-176" type="line" smooth="yes"/>
      <point x="460" y="-176"/>
      <point x="425" y="-169"/>
      <point x="425" y="-115" type="curve" smooth="yes"/>
      <point x="425" y="415" type="line" smooth="yes"/>
      <point x="425" y="474"/>
      <point x="446" y="483"/>
      <point x="475" y="483" type="curve" smooth="yes"/>
      <point x="479" y="483" type="line"/>
      <point x="479" y="536" type="line"/>
      <point x="236" y="536" type="line"/>
      <point x="236" y="483" type="line"/>
      <point x="238" y="483" type="line" smooth="yes"/>
      <point x="271" y="483"/>
      <point x="284" y="475"/>
      <point x="284" y="418" type="curve" smooth="yes"/>
      <point x="284" y="227" type="line" smooth="yes"/>
      <point x="284" y="143"/>
      <point x="278" y="72"/>
      <point x="239" y="72" type="curve" smooth="yes"/>
      <point x="209" y="72"/>
      <point x="199" y="121"/>
      <point x="199" y="206" type="curve" smooth="yes"/>
      <point x="199" y="536" type="line"/>
      <point x="11" y="536" type="line"/>
      <point x="11" y="483" type="line"/>
      <point x="15" y="483" type="line" smooth="yes"/>
      <point x="48" y="483"/>
      <point x="57" y="474"/>
      <point x="57" y="413" type="curve" smooth="yes"/>
      <point x="57" y="181" type="line" smooth="yes"/>
      <point x="57" y="45"/>
      <point x="93" y="-13"/>
      <point x="174" y="-13" type="curve" smooth="yes"/>
      <point x="236" y="-13"/>
      <point x="264" y="28"/>
      <point x="282" y="68" type="curve"/>
      <point x="286" y="68" type="line"/>
      <point x="285" y="45"/>
      <point x="283" y="-3"/>
      <point x="283" y="-48" type="curve" smooth="yes"/>
    </contour>
  </outline>
</glyph>
<glyph name="uni0266" format="2">
  <advance width="499"/>
  <unicode hex="0266"/>
  <anchor x="249" y="0" name="bottom"/>
  <anchor x="249" y="766" name="top"/>
  <outline>
    <contour>
      <point x="14" y="0" type="line"/>
      <point x="258" y="0" type="line"/>
      <point x="258" y="53" type="line"/>
      <point x="254" y="53" type="line" smooth="yes"/>
      <point x="223" y="53"/>
      <point x="210" y="61"/>
      <point x="210" y="118" type="curve" smooth="yes"/>
      <point x="210" y="309" type="line" smooth="yes"/>
      <point x="210" y="393"/>
      <point x="215" y="464"/>
      <point x="254" y="464" type="curve" smooth="yes"/>
      <point x="283" y="464"/>
      <point x="295" y="415"/>
      <point x="295" y="330" type="curve" smooth="yes"/>
      <point x="295" y="0" type="line"/>
      <point x="483" y="0" type="line"/>
      <point x="483" y="53" type="line"/>
      <point x="479" y="53" type="line" smooth="yes"/>
      <point x="445" y="53"/>
      <point x="436" y="62"/>
      <point x="436" y="123" type="curve" smooth="yes"/>
      <point x="436" y="355" type="line" smooth="yes"/>
      <point x="436" y="491"/>
      <point x="399" y="549"/>
      <point x="319" y="549" type="curve" smooth="yes"/>
      <point x="256" y="549"/>
      <point x="229" y="508"/>
      <point x="210" y="468" type="curve"/>
      <point x="206" y="468" type="line"/>
      <point x="207" y="489"/>
      <point x="209" y="528"/>
      <point x="209" y="560" type="curve" smooth="yes"/>
      <point x="209" y="603" type="line" smooth="yes"/>
      <point x="209" y="682"/>
      <point x="220" y="708"/>
      <point x="237" y="708" type="curve" smooth="yes"/>
      <point x="256" y="708"/>
      <point x="263" y="680"/>
      <point x="263" y="618" type="curve"/>
      <point x="340" y="618"/>
      <point x="356" y="647"/>
      <point x="356" y="683" type="curve" smooth="yes"/>
      <point x="356" y="722"/>
      <point x="337" y="766"/>
      <point x="229" y="766" type="curve" smooth="yes"/>
      <point x="110" y="766"/>
      <point x="67" y="699"/>
      <point x="67" y="570" type="curve" smooth="yes"/>
      <point x="67" y="121" type="line" smooth="yes"/>
      <point x="67" y="62"/>
      <point x="46" y="53"/>
      <point x="18" y="53" type="curve" smooth="yes"/>
      <point x="14" y="53" type="line"/>
    </contour>
  </outline>
</glyph>
<glyph name="uni026B" format="2">
  <advance width="351"/>
  <unicode hex="026B"/>
  <anchor x="175" y="0" name="bottom"/>
  <anchor x="175" y="760" name="top"/>
  <anchor x="283" y="760" name="topright"/>
  <anchor x="152" y="268" name="center"/>
  <outline>
    <contour>
      <point x="-7" y="288" type="curve"/>
      <point x="54" y="288" type="line"/>
      <point x="54" y="318"/>
      <point x="64" y="341"/>
      <point x="89" y="341" type="curve" smooth="yes"/>
      <point x="145" y="341"/>
      <point x="195" y="280"/>
      <point x="259" y="280" type="curve" smooth="yes"/>
      <point x="336" y="280"/>
      <point x="365" y="350"/>
      <point x="366" y="434" type="curve"/>
      <point x="305" y="434" type="line"/>
      <point x="305" y="405"/>
      <point x="294" y="384"/>
      <point x="269" y="384" type="curve" smooth="yes"/>
      <point x="214" y="384"/>
      <point x="163" y="444"/>
      <point x="100" y="444" type="curve" smooth="yes"/>
      <point x="26" y="444"/>
      <point x="-8" y="373"/>
    </contour>
    <component base="l" xOffset="13"/>
  </outline>
</glyph>
<glyph name="uni027D" format="2">
  <advance width="408"/>
  <unicode hex="027D"/>
  <anchor x="204" y="-240" name="bottom"/>
  <anchor x="204" y="536" name="top"/>
  <outline>
    <contour>
      <point x="198" y="-240" type="curve" smooth="yes"/>
      <point x="249" y="-240"/>
      <point x="281" y="-233"/>
      <point x="304" y="-224" type="curve"/>
      <point x="304" y="-172" type="line"/>
      <point x="290" y="-176"/>
      <point x="276" y="-179"/>
      <point x="257" y="-179" type="curve" smooth="yes"/>
      <point x="220" y="-179"/>
      <point x="204" y="-150"/>
      <point x="204" y="-91" type="curve" smooth="yes"/>
      <point x="204" y="276" type="line" smooth="yes"/>
      <point x="204" y="362"/>
      <point x="224" y="455"/>
      <point x="256" y="455" type="curve" smooth="yes"/>
      <point x="283" y="455"/>
      <point x="289" y="426"/>
      <point x="289" y="371" type="curve"/>
      <point x="351" y="371"/>
      <point x="396" y="398"/>
      <point x="396" y="458" type="curve" smooth="yes"/>
      <point x="396" y="511"/>
      <point x="372" y="547"/>
      <point x="316" y="547" type="curve" smooth="yes"/>
      <point x="260" y="547"/>
      <point x="227" y="509"/>
      <point x="201" y="436" type="curve"/>
      <point x="198" y="436" type="line"/>
      <point x="184" y="536" type="line"/>
      <point x="14" y="536" type="line"/>
      <point x="14" y="483" type="line"/>
      <point x="16" y="483" type="line" smooth="yes"/>
      <point x="49" y="483"/>
      <point x="63" y="474"/>
      <point x="63" y="415" type="curve" smooth="yes"/>
      <point x="63" y="-73" type="line" smooth="yes"/>
      <point x="63" y="-193"/>
      <point x="95" y="-240"/>
    </contour>
  </outline>
</glyph>
<glyph name="uni027E" format="2">
  <advance width="418"/>
  <unicode hex="027E"/>
  <anchor x="210" y="0" name="bottom"/>
  <anchor x="210" y="536" name="top"/>
  <outline>
    <contour>
      <point x="2" y="0" type="line"/>
      <point x="267" y="0" type="line"/>
      <point x="267" y="53" type="line"/>
      <point x="242" y="53" type="line" smooth="yes"/>
      <point x="212" y="53"/>
      <point x="198" y="63"/>
      <point x="198" y="123" type="curve" smooth="yes"/>
      <point x="198" y="370" type="line" smooth="yes"/>
      <point x="198" y="447"/>
      <point x="214" y="484"/>
      <point x="241" y="484" type="curve" smooth="yes"/>
      <point x="274" y="484"/>
      <point x="285" y="445"/>
      <point x="285" y="356" type="curve"/>
      <point x="350" y="356"/>
      <point x="395" y="373"/>
      <point x="395" y="437" type="curve" smooth="yes"/>
      <point x="395" y="492"/>
      <point x="361" y="549"/>
      <point x="246" y="549" type="curve" smooth="yes"/>
      <point x="123" y="549"/>
      <point x="56" y="490"/>
      <point x="56" y="329" type="curve" smooth="yes"/>
      <point x="56" y="126" type="line" smooth="yes"/>
      <point x="56" y="66"/>
      <point x="42" y="53"/>
      <point x="11" y="53" type="curve" smooth="yes"/>
      <point x="2" y="53" type="line"/>
    </contour>
  </outline>
</glyph>
<glyph name="rfishhookreversed" format="2">
  <advance width="418"/>
  <unicode hex="027F"/>
  <anchor x="210" y="-228" name="bottom"/>
  <anchor x="210" y="536" name="top"/>
  <outline>
    <contour>
      <point x="151" y="-228" type="line"/>
      <point x="417" y="-228" type="line"/>
      <point x="417" y="-175" type="line"/>
      <point x="408" y="-175" type="line" smooth="yes"/>
      <point x="375" y="-175"/>
      <point x="362" y="-160"/>
      <point x="362" y="-101" type="curve" smooth="yes"/>
      <point x="362" y="329" type="line" smooth="yes"/>
      <point x="362" y="488"/>
      <point x="295" y="549"/>
      <point x="171" y="549" type="curve" smooth="yes"/>
      <point x="57" y="549"/>
      <point x="24" y="492"/>
      <point x="24" y="437" type="curve" smooth="yes"/>
      <point x="24" y="373"/>
      <point x="67" y="356"/>
      <point x="134" y="356" type="curve"/>
      <point x="134" y="445"/>
      <point x="145" y="484"/>
      <point x="176" y="484" type="curve" smooth="yes"/>
      <point x="205" y="484"/>
      <point x="219" y="447"/>
      <point x="219" y="370" type="curve" smooth="yes"/>
      <point x="219" y="-105" type="line" smooth="yes"/>
      <point x="219" y="-163"/>
      <point x="205" y="-175"/>
      <point x="176" y="-175" type="curve" smooth="yes"/>
      <point x="151" y="-175" type="line"/>
    </contour>
  </outline>
</glyph>
<glyph name="uni0291" format="2">
  <advance width="416"/>
  <unicode hex="0291"/>
  <anchor x="209" y="0" name="bottom"/>
  <anchor x="209" y="536" name="top"/>
  <outline>
    <contour>
      <point x="247" y="-90" type="line"/>
      <point x="250" y="-56"/>
      <point x="257" y="-28"/>
      <point x="264" y="0" type="curve"/>
      <point x="300" y="0" type="line" smooth="yes"/>
      <point x="380" y="0"/>
      <point x="410" y="48"/>
      <point x="410" y="115" type="curve" smooth="yes"/>
      <point x="410" y="172"/>
      <point x="378" y="214"/>
      <point x="331" y="214" type="curve" smooth="yes"/>
      <point x="277" y="214"/>
      <point x="240" y="168"/>
      <point x="212" y="63" type="curve"/>
      <point x="157" y="63" type="line"/>
      <point x="374" y="494" type="line"/>
      <point x="374" y="536" type="line"/>
      <point x="35" y="536" type="line"/>
      <point x="25" y="376" type="line"/>
      <point x="78" y="376" type="line"/>
      <point x="85" y="403" type="line" smooth="yes"/>
      <point x="97" y="458"/>
      <point x="110" y="473"/>
      <point x="142" y="473" type="curve" smooth="yes"/>
      <point x="216" y="473" type="line"/>
      <point x="0" y="40" type="line"/>
      <point x="0" y="0" type="line"/>
      <point x="194" y="0" type="line"/>
      <point x="190" y="-23"/>
      <point x="185" y="-50"/>
      <point x="179" y="-78" type="curve"/>
    </contour>
    <contour>
      <point x="281" y="61" type="line"/>
      <point x="291" y="117"/>
      <point x="306" y="151"/>
      <point x="329" y="151" type="curve" smooth="yes"/>
      <point x="341" y="151"/>
      <point x="350" y="134"/>
      <point x="350" y="114" type="curve" smooth="yes"/>
      <point x="350" y="84"/>
      <point x="339" y="61"/>
      <point x="297" y="61" type="curve" smooth="yes"/>
    </contour>
  </outline>
</glyph>
<glyph name="cstretched" format="2">
  <advance width="400"/>
  <unicode hex="0297"/>
  <anchor x="200" y="-239" name="bottom"/>
  <anchor x="200" y="536" name="top"/>
  <outline>
    <contour>
      <point x="232" y="-239" type="curve" smooth="yes"/>
      <point x="332" y="-239"/>
      <point x="377" y="-187"/>
      <point x="377" y="-145" type="curve" smooth="yes"/>
      <point x="377" y="-127"/>
      <point x="372" y="-111"/>
      <point x="356" y="-101" type="curve"/>
      <point x="335" y="-139"/>
      <point x="311" y="-166"/>
      <point x="267" y="-166" type="curve" smooth="yes"/>
      <point x="209" y="-166"/>
      <point x="172" y="-93"/>
      <point x="172" y="149" type="curve" smooth="yes"/>
      <point x="172" y="431"/>
      <point x="199" y="489"/>
      <point x="230" y="489" type="curve" smooth="yes"/>
      <point x="258" y="489"/>
      <point x="265" y="436"/>
      <point x="265" y="349" type="curve"/>
      <point x="344" y="349"/>
      <point x="380" y="367"/>
      <point x="380" y="426" type="curve" smooth="yes"/>
      <point x="380" y="494"/>
      <point x="344" y="549"/>
      <point x="237" y="549" type="curve" smooth="yes"/>
      <point x="114" y="549"/>
      <point x="29" y="449"/>
      <point x="29" y="150" type="curve" smooth="yes"/>
      <point x="29" y="-128"/>
      <point x="94" y="-239"/>
    </contour>
  </outline>
</glyph>
<glyph name="dzlig" format="2">
  <advance width="793"/>
  <unicode hex="02A3"/>
  <anchor x="397" y="0" name="bottom"/>
  <anchor x="397" y="760" name="top"/>
  <outline>
    <contour>
      <point x="176" y="-10" type="curve" smooth="yes"/>
      <point x="231" y="-10"/>
      <point x="266" y="23"/>
      <point x="288" y="79" type="curve"/>
      <point x="292" y="79" type="line"/>
      <point x="317" y="0" type="line"/>
      <point x="785" y="0" type="line"/>
      <point x="788" y="180" type="line"/>
      <point x="737" y="180" type="line"/>
      <point x="730" y="146" type="line" smooth="yes"/>
      <point x="722" y="82"/>
      <point x="705" y="63"/>
      <point x="666" y="63" type="curve" smooth="yes"/>
      <point x="561" y="63" type="line"/>
      <point x="778" y="494" type="line"/>
      <point x="778" y="536" type="line"/>
      <point x="419" y="536" type="line"/>
      <point x="419" y="760" type="line"/>
      <point x="213" y="760" type="line"/>
      <point x="213" y="707" type="line"/>
      <point x="221" y="707" type="line" smooth="yes"/>
      <point x="251" y="707"/>
      <point x="277" y="700"/>
      <point x="277" y="644" type="curve" smooth="yes"/>
      <point x="277" y="583" type="line" smooth="yes"/>
      <point x="277" y="547"/>
      <point x="281" y="452"/>
      <point x="276" y="472" type="curve" smooth="yes"/>
      <point x="276" y="472" type="line"/>
      <point x="255" y="515"/>
      <point x="226" y="547"/>
      <point x="173" y="547" type="curve" smooth="yes"/>
      <point x="81" y="547"/>
      <point x="27" y="460"/>
      <point x="27" y="267" type="curve" smooth="yes"/>
      <point x="27" y="75"/>
      <point x="81" y="-10"/>
    </contour>
    <contour>
      <point x="220" y="61" type="curve" smooth="yes"/>
      <point x="184" y="61"/>
      <point x="170" y="130"/>
      <point x="170" y="267" type="curve" smooth="yes"/>
      <point x="170" y="404"/>
      <point x="184" y="478"/>
      <point x="221" y="478" type="curve" smooth="yes"/>
      <point x="264" y="478"/>
      <point x="277" y="404"/>
      <point x="277" y="268" type="curve" smooth="yes"/>
      <point x="277" y="135"/>
      <point x="264" y="61"/>
    </contour>
    <contour>
      <point x="419" y="60" type="line"/>
      <point x="419" y="473" type="line"/>
      <point x="619" y="473" type="line"/>
    </contour>
  </outline>
</glyph>
<glyph name="uni02C1" format="2">
  <advance width="259"/>
  <unicode hex="02C1"/>
  <outline>
    <contour>
      <point x="103" y="482" type="line"/>
      <point x="181" y="482" type="line"/>
      <point x="181" y="568" type="line"/>
      <point x="133" y="587"/>
      <point x="111" y="616"/>
      <point x="111" y="659" type="curve" smooth="yes"/>
      <point x="111" y="691"/>
      <point x="120" y="712"/>
      <point x="141" y="712" type="curve" smooth="yes"/>
      <point x="167" y="712"/>
      <point x="178" y="686"/>
      <point x="178" y="640" type="curve"/>
      <point x="224" y="640"/>
      <point x="241" y="654"/>
      <point x="241" y="682" type="curve" smooth="yes"/>
      <point x="241" y="721"/>
      <point x="212" y="760"/>
      <point x="140" y="760" type="curve" smooth="yes"/>
      <point x="55" y="760"/>
      <point x="24" y="716"/>
      <point x="24" y="652" type="curve" smooth="yes"/>
      <point x="24" y="593"/>
      <point x="63" y="562"/>
      <point x="103" y="543" type="curve"/>
    </contour>
  </outline>
</glyph>
<glyph name="uni02FF" format="2">
  <advance width="392"/>
  <unicode hex="02FF"/>
  <outline>
    <contour>
      <point x="185" y="-240" type="curve"/>
      <point x="192" y="-240" type="line"/>
      <point x="192" y="-194" type="line"/>
      <point x="175" y="-173"/>
      <point x="150" y="-152"/>
      <point x="127" y="-135" type="curve"/>
      <point x="352" y="-135" type="line"/>
      <point x="352" y="-87" type="line"/>
      <point x="128" y="-87" type="line"/>
      <point x="151" y="-69"/>
      <point x="175" y="-49"/>
      <point x="192" y="-29" type="curve"/>
      <point x="192" y="18" type="line"/>
      <point x="185" y="18" type="line"/>
      <point x="138" y="-30"/>
      <point x="91" y="-58"/>
      <point x="40" y="-87" type="curve"/>
      <point x="40" y="-136" type="line"/>
      <point x="90" y="-164"/>
      <point x="139" y="-193"/>
    </contour>
  </outline>
</glyph>
<glyph name="ogonekcomb" format="2">
  <unicode hex="0328"/>
  <anchor x="1" y="0" name="_bottom"/>
  <outline>
    <contour>
      <point x="25" y="-240" type="curve" smooth="yes"/>
      <point x="39" y="-240"/>
      <point x="75" y="-234"/>
      <point x="91" y="-224" type="curve"/>
      <point x="91" y="-161" type="line"/>
      <point x="73" y="-166"/>
      <point x="57" y="-169"/>
      <point x="44" y="-169" type="curve" smooth="yes"/>
      <point x="16" y="-169"/>
      <point x="-6" y="-152"/>
      <point x="-6" y="-115" type="curve" smooth="yes"/>
      <point x="-6" y="-52"/>
      <point x="31" y="-13"/>
      <point x="62" y="0" type="curve"/>
      <point x="-5" y="0" type="line"/>
      <point x="-50" y="-14"/>
      <point x="-90" y="-68"/>
      <point x="-90" y="-130" type="curve" smooth="yes"/>
      <point x="-90" y="-206"/>
      <point x="-53" y="-240"/>
    </contour>
  </outline>
</glyph>
<glyph name="bridgeinvertedbelowcomb" format="2">
  <unicode hex="033A"/>
  <anchor x="0" y="0" name="_bottom"/>
  <anchor x="0" y="-226" name="bottom"/>
  <outline>
    <contour>
      <point x="-130" y="-226" type="line"/>
      <point x="130" y="-226" type="line"/>
      <point x="130" y="-72" type="line"/>
      <point x="95" y="-72" type="line"/>
      <point x="95" y="-84" type="line" smooth="yes"/>
      <point x="95" y="-135"/>
      <point x="81" y="-166"/>
      <point x="32" y="-166" type="curve" smooth="yes"/>
      <point x="-32" y="-166" type="line" smooth="yes"/>
      <point x="-80" y="-166"/>
      <point x="-95" y="-138"/>
      <point x="-95" y="-84" type="curve" smooth="yes"/>
      <point x="-95" y="-72" type="line"/>
      <point x="-130" y="-72" type="line"/>
    </contour>
  </outline>
</glyph>
<glyph name="nottildeabovecomb" format="2">
  <unicode hex="034A"/>
  <anchor x="3" y="536" name="_top"/>
  <anchor x="3" y="799" name="top"/>
  <outline>
    <contour>
      <point x="-12" y="570" type="line"/>
      <point x="9" y="625" type="line"/>
      <point x="24" y="615"/>
      <point x="41" y="610"/>
      <point x="60" y="610" type="curve" smooth="yes"/>
      <point x="116" y="610"/>
      <point x="154" y="672"/>
      <point x="156" y="753" type="curve"/>
      <point x="117" y="753" type="line"/>
      <point x="115" y="726"/>
      <point x="96" y="700"/>
      <point x="80" y="700" type="curve" smooth="yes"/>
      <point x="70" y="700"/>
      <point x="61" y="705"/>
      <point x="50" y="712" type="curve"/>
      <point x="70" y="772" type="line"/>
      <point x="23" y="799" type="line"/>
      <point x="1" y="742" type="line"/>
      <point x="-16" y="750"/>
      <point x="-35" y="759"/>
      <point x="-54" y="759" type="curve" smooth="yes"/>
      <point x="-113" y="759"/>
      <point x="-149" y="695"/>
      <point x="-152" y="616" type="curve"/>
      <point x="-113" y="616" type="line"/>
      <point x="-110" y="643"/>
      <point x="-93" y="669"/>
      <point x="-75" y="669" type="curve" smooth="yes"/>
      <point x="-64" y="669"/>
      <point x="-52" y="661"/>
      <point x="-40" y="654" type="curve"/>
      <point x="-61" y="598" type="line"/>
    </contour>
  </outline>
</glyph>
<glyph name="arrowleftrightbelowcomb" format="2">
  <unicode hex="034D"/>
  <anchor x="-2" y="0" name="_bottom"/>
  <anchor x="-2" y="-218" name="bottom"/>
  <outline>
    <contour>
      <point x="-40" y="-218" type="line"/>
      <point x="-40" y="-163" type="line"/>
      <point x="38" y="-163" type="line"/>
      <point x="38" y="-218" type="line"/>
      <point x="103" y="-127" type="line"/>
      <point x="38" y="-36" type="line"/>
      <point x="38" y="-91" type="line"/>
      <point x="-40" y="-91" type="line"/>
      <point x="-40" y="-36" type="line"/>
      <point x="-105" y="-127" type="line"/>
    </contour>
  </outline>
</glyph>
<glyph name="arrowheadrightheadupbelowcomb" format="2">
  <unicode hex="0356"/>
  <anchor x="0" y="0" name="_bottom"/>
  <anchor x="0" y="-240" name="bottom"/>
  <outline>
    <contour>
      <point x="-4" y="-240" type="line"/>
      <point x="34" y="-240" type="line"/>
      <point x="47" y="-215"/>
      <point x="60" y="-180"/>
      <point x="69" y="-146" type="curve"/>
      <point x="80" y="-185"/>
      <point x="96" y="-223"/>
      <point x="105" y="-240" type="curve"/>
      <point x="141" y="-240" type="line"/>
      <point x="141" y="-230" type="line"/>
      <point x="116" y="-164"/>
      <point x="97" y="-109"/>
      <point x="92" y="-48" type="curve"/>
      <point x="49" y="-48" type="line"/>
      <point x="39" y="-108"/>
      <point x="24" y="-165"/>
      <point x="-4" y="-230" type="curve"/>
    </contour>
    <contour>
      <point x="-141" y="-240" type="line"/>
      <point x="-134" y="-240" type="line"/>
      <point x="-87" y="-203"/>
      <point x="-53" y="-178"/>
      <point x="-11" y="-169" type="curve"/>
      <point x="-11" y="-111" type="line"/>
      <point x="-54" y="-96"/>
      <point x="-86" y="-76"/>
      <point x="-134" y="-40" type="curve"/>
      <point x="-141" y="-40" type="line"/>
      <point x="-141" y="-91" type="line"/>
      <point x="-124" y="-108"/>
      <point x="-98" y="-127"/>
      <point x="-74" y="-140" type="curve"/>
      <point x="-101" y="-154"/>
      <point x="-129" y="-177"/>
      <point x="-141" y="-189" type="curve"/>
    </contour>
  </outline>
</glyph>
<glyph name="archaicsampi" format="2">
  <advance width="438"/>
  <unicode hex="0373"/>
  <anchor x="220" y="-240" name="bottom"/>
  <anchor x="220" y="536" name="top"/>
  <outline>
    <contour>
      <point x="170" y="-240" type="curve"/>
      <point x="312" y="-240" type="line"/>
      <point x="305" y="-216"/>
      <point x="294" y="-136"/>
      <point x="294" y="-28" type="curve" smooth="yes"/>
      <point x="294" y="462" type="line"/>
      <point x="304" y="462" type="line" smooth="yes"/>
      <point x="343" y="462"/>
      <point x="366" y="439"/>
      <point x="368" y="385" type="curve" smooth="yes"/>
      <point x="370" y="345" type="line"/>
      <point x="428" y="345" type="line"/>
      <point x="428" y="536" type="line"/>
      <point x="121" y="536" type="line" smooth="yes"/>
      <point x="54" y="536"/>
      <point x="4" y="491"/>
      <point x="4" y="362" type="curve" smooth="yes"/>
      <point x="4" y="347" type="line"/>
      <point x="59" y="347" type="line"/>
      <point x="59" y="423"/>
      <point x="80" y="462"/>
      <point x="135" y="462" type="curve" smooth="yes"/>
      <point x="153" y="462" type="line"/>
      <point x="153" y="-15" type="line" smooth="yes"/>
      <point x="153" y="-134"/>
      <point x="163" y="-204"/>
    </contour>
  </outline>
</glyph>
<glyph name="Delta" format="2">
  <advance width="556"/>
  <unicode hex="0394"/>
  <anchor x="279" y="0" name="bottom"/>
  <anchor x="279" y="714" name="top"/>
  <outline>
    <contour>
      <point x="45" y="0" type="line"/>
      <point x="510" y="0" type="line"/>
      <point x="510" y="71" type="line"/>
      <point x="348" y="714" type="line"/>
      <point x="214" y="714" type="line"/>
      <point x="45" y="64" type="line"/>
    </contour>
    <contour>
      <point x="121" y="78" type="line"/>
      <point x="213" y="468" type="line" smooth="yes"/>
      <point x="228" y="530"/>
      <point x="239" y="577"/>
      <point x="248" y="622" type="curve"/>
      <point x="255" y="577"/>
      <point x="267" y="514"/>
      <point x="282" y="455" type="curve" smooth="yes"/>
      <point x="375" y="78" type="line"/>
    </contour>
  </outline>
</glyph>
<glyph name="Pi" format="2">
  <advance width="610"/>
  <unicode hex="03A0"/>
  <anchor x="305" y="0" name="bottom"/>
  <anchor x="305" y="714" name="top"/>
  <outline>
    <contour>
      <point x="16" y="0" type="line"/>
      <point x="279" y="0" type="line"/>
      <point x="279" y="53" type="line"/>
      <point x="265" y="53" type="line" smooth="yes"/>
      <point x="241" y="53"/>
      <point x="228" y="60"/>
      <point x="228" y="118" type="curve" smooth="yes"/>
      <point x="228" y="653" type="line"/>
      <point x="384" y="653" type="line"/>
      <point x="384" y="118" type="line" smooth="yes"/>
      <point x="384" y="60"/>
      <point x="368" y="53"/>
      <point x="343" y="53" type="curve" smooth="yes"/>
      <point x="331" y="53" type="line"/>
      <point x="331" y="0" type="line"/>
      <point x="596" y="0" type="line"/>
      <point x="596" y="53" type="line"/>
      <point x="571" y="53" type="line" smooth="yes"/>
      <point x="547" y="53"/>
      <point x="529" y="59"/>
      <point x="529" y="113" type="curve" smooth="yes"/>
      <point x="529" y="596" type="line" smooth="yes"/>
      <point x="529" y="654"/>
      <point x="545" y="661"/>
      <point x="570" y="661" type="curve" smooth="yes"/>
      <point x="596" y="661" type="line"/>
      <point x="596" y="714" type="line"/>
      <point x="16" y="714" type="line"/>
      <point x="16" y="661" type="line"/>
      <point x="39" y="661" type="line" smooth="yes"/>
      <point x="64" y="661"/>
      <point x="81" y="654"/>
      <point x="81" y="600" type="curve" smooth="yes"/>
      <point x="81" y="118" type="line" smooth="yes"/>
      <point x="81" y="60"/>
      <point x="65" y="53"/>
      <point x="39" y="53" type="curve" smooth="yes"/>
      <point x="16" y="53" type="line"/>
    </contour>
  </outline>
</glyph>
<glyph name="iota" format="2">
  <advance width="314"/>
  <unicode hex="03B9"/>
  <anchor x="158" y="0" name="bottom"/>
  <anchor x="158" y="536" name="top"/>
  <outline>
    <contour>
      <point x="198" y="-10" type="curve" smooth="yes"/>
      <point x="250" y="-10"/>
      <point x="289" y="5"/>
      <point x="305" y="15" type="curve"/>
      <point x="305" y="78" type="line"/>
      <point x="291" y="74"/>
      <point x="271" y="69"/>
      <point x="252" y="69" type="curve" smooth="yes"/>
      <point x="217" y="69"/>
      <point x="204" y="97"/>
      <point x="204" y="163" type="curve" smooth="yes"/>
      <point x="204" y="536" type="line"/>
      <point x="64" y="536" type="line"/>
      <point x="64" y="145" type="line" smooth="yes"/>
      <point x="64" y="30"/>
      <point x="115" y="-10"/>
    </contour>
  </outline>
</glyph>
<glyph name="sigma1" format="2">
  <advance width="384"/>
  <unicode hex="03C2"/>
  <anchor x="193" y="-204" name="bottom"/>
  <anchor x="193" y="536" name="top"/>
  <outline>
    <contour>
      <point x="208" y="-204" type="line"/>
      <point x="324" y="-187"/>
      <point x="379" y="-130"/>
      <point x="379" y="-26" type="curve" smooth="yes"/>
      <point x="379" y="56"/>
      <point x="343" y="92"/>
      <point x="273" y="122" type="curve" smooth="yes"/>
      <point x="205" y="148"/>
      <point x="170" y="174"/>
      <point x="170" y="295" type="curve" smooth="yes"/>
      <point x="170" y="426"/>
      <point x="184" y="489"/>
      <point x="222" y="489" type="curve" smooth="yes"/>
      <point x="250" y="489"/>
      <point x="259" y="447"/>
      <point x="259" y="366" type="curve"/>
      <point x="347" y="366"/>
      <point x="375" y="390"/>
      <point x="375" y="437" type="curve" smooth="yes"/>
      <point x="375" y="506"/>
      <point x="339" y="549"/>
      <point x="219" y="549" type="curve" smooth="yes"/>
      <point x="94" y="549"/>
      <point x="29" y="462"/>
      <point x="29" y="270" type="curve" smooth="yes"/>
      <point x="29" y="106"/>
      <point x="86" y="48"/>
      <point x="200" y="8" type="curve" smooth="yes"/>
      <point x="242" y="-5"/>
      <point x="277" y="-21"/>
      <point x="277" y="-69" type="curve" smooth="yes"/>
      <point x="277" y="-112"/>
      <point x="246" y="-135"/>
      <point x="208" y="-149" type="curve"/>
    </contour>
  </outline>
</glyph>
<glyph name="psi" format="2">
  <advance width="531"/>
  <unicode hex="03C8"/>
  <anchor x="266" y="-240" name="bottom"/>
  <anchor x="266" y="760" name="top"/>
  <outline>
    <contour>
      <point x="287" y="-240" type="line"/>
      <point x="330" y="-240" type="line"/>
      <point x="330" y="-8" type="line"/>
      <point x="457" y="22"/>
      <point x="501" y="158"/>
      <point x="501" y="330" type="curve" smooth="yes"/>
      <point x="501" y="498"/>
      <point x="468" y="545"/>
      <point x="426" y="545" type="curve" smooth="yes"/>
      <point x="392" y="545"/>
      <point x="372" y="517"/>
      <point x="372" y="472" type="curve"/>
      <point x="402" y="462"/>
      <point x="436" y="414"/>
      <point x="436" y="293" type="curve" smooth="yes"/>
      <point x="436" y="168"/>
      <point x="394" y="73"/>
      <point x="330" y="61" type="curve"/>
      <point x="330" y="760" type="line"/>
      <point x="287" y="760" type="line"/>
      <point x="287" y="62" type="line"/>
      <point x="223" y="67"/>
      <point x="200" y="133"/>
      <point x="200" y="246" type="curve" smooth="yes"/>
      <point x="200" y="536" type="line"/>
      <point x="20" y="536" type="line"/>
      <point x="20" y="483" type="line"/>
      <point x="25" y="482" type="line" smooth="yes"/>
      <point x="53" y="478"/>
      <point x="59" y="472"/>
      <point x="59" y="421" type="curve" smooth="yes"/>
      <point x="59" y="245" type="line" smooth="yes"/>
      <point x="59" y="81"/>
      <point x="142" y="-6"/>
      <point x="287" y="-10" type="curve"/>
    </contour>
  </outline>
</glyph>
<glyph name="omega" format="2">
  <advance width="596"/>
  <unicode hex="03C9"/>
  <anchor x="299" y="0" name="bottom"/>
  <anchor x="299" y="536" name="top"/>
  <outline>
    <contour>
      <point x="184" y="-10" type="curve" smooth="yes"/>
      <point x="249" y="-10"/>
      <point x="281" y="38"/>
      <point x="296" y="98" type="curve"/>
      <point x="310" y="36"/>
      <point x="346" y="-10"/>
      <point x="413" y="-10" type="curve" smooth="yes"/>
      <point x="514" y="-10"/>
      <point x="565" y="81"/>
      <point x="565" y="249" type="curve" smooth="yes"/>
      <point x="565" y="378"/>
      <point x="522" y="481"/>
      <point x="457" y="553" type="curve"/>
      <point x="388" y="511" type="line"/>
      <point x="412" y="436"/>
      <point x="423" y="365"/>
      <point x="423" y="243" type="curve" smooth="yes"/>
      <point x="423" y="113"/>
      <point x="401" y="63"/>
      <point x="375" y="63" type="curve" smooth="yes"/>
      <point x="358" y="63"/>
      <point x="342" y="97"/>
      <point x="332" y="161" type="curve"/>
      <point x="350" y="224"/>
      <point x="354" y="256"/>
      <point x="354" y="296" type="curve" smooth="yes"/>
      <point x="354" y="354"/>
      <point x="337" y="380"/>
      <point x="297" y="380" type="curve"/>
      <point x="258" y="380"/>
      <point x="241" y="354"/>
      <point x="241" y="296" type="curve" smooth="yes"/>
      <point x="241" y="256"/>
      <point x="244" y="221"/>
      <point x="262" y="159" type="curve"/>
      <point x="255" y="95"/>
      <point x="236" y="63"/>
      <point x="220" y="63" type="curve" smooth="yes"/>
      <point x="195" y="63"/>
      <point x="172" y="113"/>
      <point x="172" y="243" type="curve" smooth="yes"/>
      <point x="172" y="366"/>
      <point x="183" y="436"/>
      <point x="208" y="511" type="curve"/>
      <point x="140" y="553" type="line"/>
      <point x="73" y="481"/>
      <point x="29" y="378"/>
      <point x="29" y="249" type="curve" smooth="yes"/>
      <point x="29" y="81"/>
      <point x="80" y="-10"/>
    </contour>
  </outline>
</glyph>
<glyph name="uni03DA" format="2">
  <advance width="518"/>
  <unicode hex="03DA"/>
  <anchor x="260" y="0" name="bottom"/>
  <anchor x="260" y="714" name="top"/>
  <outline>
    <contour>
      <point x="163" y="0" type="line"/>
      <point x="443" y="0" type="line"/>
      <point x="443" y="53" type="line"/>
      <point x="415" y="53" type="line" smooth="yes"/>
      <point x="388" y="53"/>
      <point x="376" y="63"/>
      <point x="376" y="121" type="curve" smooth="yes"/>
      <point x="376" y="216" type="line"/>
      <point x="344" y="216" type="line" smooth="yes"/>
      <point x="259" y="216"/>
      <point x="203" y="290"/>
      <point x="203" y="439" type="curve" smooth="yes"/>
      <point x="203" y="580"/>
      <point x="227" y="660"/>
      <point x="300" y="660" type="curve" smooth="yes"/>
      <point x="363" y="660"/>
      <point x="381" y="596"/>
      <point x="381" y="523" type="curve"/>
      <point x="457" y="523"/>
      <point x="493" y="555"/>
      <point x="493" y="607" type="curve" smooth="yes"/>
      <point x="493" y="671"/>
      <point x="434" y="724"/>
      <point x="315" y="724" type="curve" smooth="yes"/>
      <point x="142" y="724"/>
      <point x="51" y="608"/>
      <point x="51" y="430" type="curve" smooth="yes"/>
      <point x="51" y="270"/>
      <point x="119" y="176"/>
      <point x="229" y="157" type="curve"/>
      <point x="229" y="121" type="line" smooth="yes"/>
      <point x="229" y="63"/>
      <point x="218" y="53"/>
      <point x="191" y="53" type="curve" smooth="yes"/>
      <point x="163" y="53" type="line"/>
    </contour>
  </outline>
</glyph>
<glyph name="uni03DC" format="2">
  <advance width="467"/>
  <unicode hex="03DC"/>
  <anchor x="234" y="0" name="bottom"/>
  <anchor x="234" y="714" name="top"/>
  <outline>
    <contour>
      <point x="16" y="0" type="line"/>
      <point x="308" y="0" type="line"/>
      <point x="308" y="53" type="line"/>
      <point x="266" y="53" type="line" smooth="yes"/>
      <point x="236" y="53"/>
      <point x="227" y="68"/>
      <point x="227" y="110" type="curve" smooth="yes"/>
      <point x="227" y="320" type="line"/>
      <point x="279" y="320" type="line" smooth="yes"/>
      <point x="324" y="320"/>
      <point x="332" y="296"/>
      <point x="341" y="232" type="curve"/>
      <point x="399" y="232" type="line"/>
      <point x="395" y="381" type="line"/>
      <point x="227" y="381" type="line"/>
      <point x="227" y="653" type="line"/>
      <point x="338" y="653" type="line" smooth="yes"/>
      <point x="356" y="653"/>
      <point x="377" y="631"/>
      <point x="382" y="578" type="curve" smooth="yes"/>
      <point x="387" y="530" type="line"/>
      <point x="447" y="530" type="line"/>
      <point x="442" y="714" type="line"/>
      <point x="16" y="714" type="line"/>
      <point x="16" y="661" type="line"/>
      <point x="51" y="661" type="line" smooth="yes"/>
      <point x="69" y="661"/>
      <point x="81" y="648"/>
      <point x="81" y="605" type="curve" smooth="yes"/>
      <point x="81" y="107" type="line" smooth="yes"/>
      <point x="81" y="65"/>
      <point x="71" y="53"/>
      <point x="41" y="53" type="curve" smooth="yes"/>
      <point x="16" y="53" type="line"/>
    </contour>
  </outline>
</glyph>
<glyph name="uni03E1" format="2">
  <advance width="356"/>
  <unicode hex="03E1"/>
  <anchor x="178" y="-240" name="bottom"/>
  <anchor x="178" y="547" name="top"/>
  <outline>
    <contour>
      <point x="177" y="-240" type="line"/>
      <point x="265" y="-149"/>
      <point x="331" y="-15"/>
      <point x="331" y="137" type="curve" smooth="yes"/>
      <point x="331" y="388"/>
      <point x="223" y="532"/>
      <point x="13" y="547" type="curve"/>
      <point x="13" y="485" type="line"/>
      <point x="72" y="468"/>
      <point x="128" y="419"/>
      <point x="160" y="327" type="curve"/>
      <point x="32" y="270" type="line"/>
      <point x="48" y="212" type="line"/>
      <point x="179" y="269" type="line"/>
      <point x="185" y="240"/>
      <point x="188" y="210"/>
      <point x="191" y="180" type="curve"/>
      <point x="67" y="126" type="line"/>
      <point x="81" y="68" type="line"/>
      <point x="193" y="116" type="line"/>
      <point x="194" y="99"/>
      <point x="195" y="84"/>
      <point x="195" y="66" type="curve" smooth="yes"/>
      <point x="195" y="-31"/>
      <point x="172" y="-134"/>
      <point x="136" y="-209" type="curve"/>
    </contour>
  </outline>
</glyph>
<glyph name="uni03FB" format="2">
  <advance width="586"/>
  <unicode hex="03FB"/>
  <anchor x="294" y="-240" name="bottom"/>
  <anchor x="294" y="536" name="top"/>
  <outline>
    <contour>
      <point x="129" y="-240" type="curve" smooth="yes"/>
      <point x="166" y="-240"/>
      <point x="195" y="-205"/>
      <point x="195" y="-144" type="curve"/>
      <point x="136" y="-144"/>
      <point x="108" y="-101"/>
      <point x="108" y="5" type="curve" smooth="yes"/>
      <point x="108" y="421" type="line"/>
      <point x="111" y="421" type="line"/>
      <point x="223" y="183" type="line"/>
      <point x="264" y="183" type="line"/>
      <point x="368" y="433" type="line"/>
      <point x="370" y="433" type="line"/>
      <point x="370" y="136" type="line" smooth="yes"/>
      <point x="370" y="42"/>
      <point x="395" y="-10"/>
      <point x="481" y="-10" type="curve" smooth="yes"/>
      <point x="518" y="-10"/>
      <point x="543" y="-4"/>
      <point x="566" y="3" type="curve"/>
      <point x="566" y="55" type="line"/>
      <point x="553" y="49"/>
      <point x="543" y="47"/>
      <point x="533" y="47" type="curve" smooth="yes"/>
      <point x="512" y="47"/>
      <point x="500" y="74"/>
      <point x="500" y="135" type="curve" smooth="yes"/>
      <point x="500" y="418" type="line" smooth="yes"/>
      <point x="500" y="468"/>
      <point x="507" y="483"/>
      <point x="529" y="483" type="curve" smooth="yes"/>
      <point x="544" y="483" type="line"/>
      <point x="544" y="536" type="line"/>
      <point x="371" y="536" type="line"/>
      <point x="294" y="320" type="line"/>
      <point x="219" y="536" type="line"/>
      <point x="10" y="536" type="line"/>
      <point x="10" y="483" type="line"/>
      <point x="29" y="483" type="line" smooth="yes"/>
      <point x="50" y="483"/>
      <point x="58" y="470"/>
      <point x="58" y="422" type="curve" smooth="yes"/>
      <point x="58" y="255" type="line" smooth="yes"/>
      <point x="58" y="68"/>
      <point x="50" y="-22"/>
      <point x="50" y="-102" type="curve" smooth="yes"/>
      <point x="50" y="-195"/>
      <point x="77" y="-240"/>
    </contour>
  </outline>
</glyph>
<glyph name="afii10026" format="2">
  <advance width="605"/>
  <unicode hex="0418"/>
  <anchor x="302" y="0" name="bottom"/>
  <anchor x="302" y="714" name="top"/>
  <outline>
    <contour>
      <point x="16" y="0" type="line"/>
      <point x="276" y="0" type="line"/>
      <point x="276" y="53" type="line"/>
      <point x="261" y="53" type="line" smooth="yes"/>
      <point x="235" y="53"/>
      <point x="228" y="64"/>
      <point x="228" y="111" type="curve" smooth="yes"/>
      <point x="228" y="124" type="line"/>
      <point x="377" y="475" type="line"/>
      <point x="377" y="118" type="line" smooth="yes"/>
      <point x="377" y="64"/>
      <point x="369" y="53"/>
      <point x="344" y="53" type="curve" smooth="yes"/>
      <point x="329" y="53" type="line"/>
      <point x="329" y="0" type="line"/>
      <point x="589" y="0" type="line"/>
      <point x="589" y="53" type="line"/>
      <point x="559" y="53" type="line" smooth="yes"/>
      <point x="535" y="53"/>
      <point x="524" y="63"/>
      <point x="524" y="113" type="curve" smooth="yes"/>
      <point x="524" y="596" type="line" smooth="yes"/>
      <point x="524" y="650"/>
      <point x="534" y="661"/>
      <point x="559" y="661" type="curve" smooth="yes"/>
      <point x="589" y="661" type="line"/>
      <point x="589" y="714" type="line"/>
      <point x="329" y="714" type="line"/>
      <point x="329" y="661" type="line"/>
      <point x="344" y="661" type="line" smooth="yes"/>
      <point x="369" y="661"/>
      <point x="377" y="650"/>
      <point x="377" y="601" type="curve" smooth="yes"/>
      <point x="377" y="589" type="line"/>
      <point x="228" y="232" type="line"/>
      <point x="228" y="596" type="line"/>
      <point x="228" y="650"/>
      <point x="235" y="661"/>
      <point x="261" y="661" type="curve" smooth="yes"/>
      <point x="276" y="661" type="line"/>
      <point x="276" y="714" type="line"/>
      <point x="16" y="714" type="line"/>
      <point x="16" y="661" type="line"/>
      <point x="46" y="661" type="line" smooth="yes"/>
      <point x="72" y="661"/>
      <point x="81" y="650"/>
      <point x="81" y="600" type="curve" smooth="yes"/>
      <point x="81" y="118" type="line" smooth="yes"/>
      <point x="81" y="64"/>
      <point x="72" y="53"/>
      <point x="46" y="53" type="curve" smooth="yes"/>
      <point x="16" y="53" type="line"/>
    </contour>
  </outline>
</glyph>
<glyph name="afii10029" format="2">
  <advance width="538"/>
  <unicode hex="041B"/>
  <anchor x="270" y="0" name="bottom"/>
  <anchor x="270" y="714" name="top"/>
  <outline>
    <contour>
      <point x="68" y="-7" type="curve" smooth="yes"/>
      <point x="116" y="-7"/>
      <point x="159" y="31"/>
      <point x="187" y="151" type="curve" smooth="yes"/>
      <point x="214" y="283"/>
      <point x="232" y="495"/>
      <point x="236" y="661" type="curve"/>
      <point x="313" y="661" type="line"/>
      <point x="313" y="118" type="line" smooth="yes"/>
      <point x="313" y="60"/>
      <point x="304" y="53"/>
      <point x="278" y="53" type="curve" smooth="yes"/>
      <point x="252" y="53" type="line"/>
      <point x="252" y="0" type="line"/>
      <point x="521" y="0" type="line"/>
      <point x="521" y="53" type="line"/>
      <point x="493" y="53" type="line" smooth="yes"/>
      <point x="470" y="53"/>
      <point x="458" y="59"/>
      <point x="458" y="112" type="curve" smooth="yes"/>
      <point x="458" y="596" type="line" smooth="yes"/>
      <point x="458" y="654"/>
      <point x="468" y="661"/>
      <point x="493" y="661" type="curve" smooth="yes"/>
      <point x="522" y="661" type="line"/>
      <point x="522" y="714" type="line"/>
      <point x="109" y="714" type="line"/>
      <point x="109" y="661" type="line"/>
      <point x="120" y="661" type="line" smooth="yes"/>
      <point x="153" y="661"/>
      <point x="179" y="656"/>
      <point x="179" y="617" type="curve" smooth="yes"/>
      <point x="179" y="574"/>
      <point x="163" y="349"/>
      <point x="141" y="218" type="curve" smooth="yes"/>
      <point x="123" y="116"/>
      <point x="102" y="88"/>
      <point x="71" y="88" type="curve" smooth="yes"/>
      <point x="52" y="88"/>
      <point x="38" y="109"/>
      <point x="38" y="135" type="curve"/>
      <point x="21" y="135"/>
      <point x="-1" y="115"/>
      <point x="-1" y="71" type="curve" smooth="yes"/>
      <point x="-1" y="24"/>
      <point x="26" y="-7"/>
    </contour>
  </outline>
</glyph>
<glyph name="afii10041" format="2">
  <advance width="576"/>
  <unicode hex="0427"/>
  <anchor x="289" y="0" name="bottom"/>
  <anchor x="289" y="714" name="top"/>
  <outline>
    <contour>
      <point x="291" y="0" type="line"/>
      <point x="563" y="0" type="line"/>
      <point x="563" y="53" type="line"/>
      <point x="534" y="53" type="line" smooth="yes"/>
      <point x="508" y="53"/>
      <point x="496" y="62"/>
      <point x="496" y="120" type="curve" smooth="yes"/>
      <point x="496" y="594" type="line" smooth="yes"/>
      <point x="496" y="650"/>
      <point x="509" y="661"/>
      <point x="534" y="661" type="curve" smooth="yes"/>
      <point x="563" y="661" type="line"/>
      <point x="563" y="714" type="line"/>
      <point x="308" y="714" type="line"/>
      <point x="308" y="661" type="line"/>
      <point x="312" y="661" type="line" smooth="yes"/>
      <point x="339" y="661"/>
      <point x="349" y="650"/>
      <point x="349" y="594" type="curve" smooth="yes"/>
      <point x="349" y="354" type="line"/>
      <point x="339" y="334"/>
      <point x="317" y="326"/>
      <point x="293" y="326" type="curve" smooth="yes"/>
      <point x="232" y="326"/>
      <point x="214" y="359"/>
      <point x="214" y="468" type="curve" smooth="yes"/>
      <point x="214" y="594" type="line" smooth="yes"/>
      <point x="214" y="650"/>
      <point x="225" y="661"/>
      <point x="252" y="661" type="curve" smooth="yes"/>
      <point x="257" y="661" type="line"/>
      <point x="257" y="714" type="line"/>
      <point x="13" y="714" type="line"/>
      <point x="13" y="661" type="line"/>
      <point x="30" y="661" type="line"/>
      <point x="56" y="661"/>
      <point x="65" y="650"/>
      <point x="65" y="594" type="curve" smooth="yes"/>
      <point x="65" y="462" type="line" smooth="yes"/>
      <point x="65" y="297"/>
      <point x="140" y="248"/>
      <point x="237" y="248" type="curve" smooth="yes"/>
      <point x="300" y="248"/>
      <point x="336" y="267"/>
      <point x="349" y="285" type="curve"/>
      <point x="349" y="119" type="line" smooth="yes"/>
      <point x="349" y="63"/>
      <point x="339" y="53"/>
      <point x="312" y="53" type="curve" smooth="yes"/>
      <point x="291" y="53" type="line"/>
    </contour>
  </outline>
</glyph>
<glyph name="afii10048" format="2">
  <advance width="833"/>
  <unicode hex="042E"/>
  <anchor x="416" y="0" name="bottom"/>
  <anchor x="416" y="714" name="top"/>
  <outline>
    <contour>
      <point x="544" y="-10" type="curve" smooth="yes"/>
      <point x="702" y="-10"/>
      <point x="794" y="140"/>
      <point x="794" y="358" type="curve" smooth="yes"/>
      <point x="794" y="577"/>
      <point x="702" y="725"/>
      <point x="545" y="725" type="curve" smooth="yes"/>
      <point x="389" y="725"/>
      <point x="306" y="596"/>
      <point x="294" y="404" type="curve"/>
      <point x="228" y="404" type="line"/>
      <point x="228" y="605" type="line" smooth="yes"/>
      <point x="228" y="648"/>
      <point x="235" y="661"/>
      <point x="252" y="661" type="curve" smooth="yes"/>
      <point x="279" y="661" type="line"/>
      <point x="279" y="714" type="line"/>
      <point x="16" y="714" type="line"/>
      <point x="16" y="661" type="line"/>
      <point x="47" y="661" type="line" smooth="yes"/>
      <point x="65" y="661"/>
      <point x="81" y="648"/>
      <point x="81" y="602" type="curve" smooth="yes"/>
      <point x="81" y="111" type="line" smooth="yes"/>
      <point x="81" y="71"/>
      <point x="70" y="53"/>
      <point x="54" y="53" type="curve" smooth="yes"/>
      <point x="16" y="53" type="line"/>
      <point x="16" y="0" type="line"/>
      <point x="279" y="0" type="line"/>
      <point x="279" y="53" type="line"/>
      <point x="252" y="53" type="line" smooth="yes"/>
      <point x="235" y="53"/>
      <point x="228" y="71"/>
      <point x="228" y="111" type="curve" smooth="yes"/>
      <point x="228" y="343" type="line"/>
      <point x="293" y="343" type="line"/>
      <point x="298" y="133"/>
      <point x="382" y="-10"/>
    </contour>
    <contour>
      <point x="544" y="55" type="curve" smooth="yes"/>
      <point x="473" y="55"/>
      <point x="445" y="170"/>
      <point x="445" y="358" type="curve" smooth="yes"/>
      <point x="445" y="546"/>
      <point x="473" y="660"/>
      <point x="545" y="660" type="curve" smooth="yes"/>
      <point x="614" y="660"/>
      <point x="642" y="546"/>
      <point x="642" y="358" type="curve" smooth="yes"/>
      <point x="642" y="170"/>
      <point x="614" y="55"/>
    </contour>
  </outline>
</glyph>
<glyph name="afii10072" format="2">
  <advance width="681"/>
  <unicode hex="0436"/>
  <anchor x="340" y="0" name="bottom"/>
  <anchor x="340" y="536" name="top"/>
  <outline>
    <contour>
      <point x="-6" y="0" type="line"/>
      <point x="39" y="0" type="line" smooth="yes"/>
      <point x="123" y="0"/>
      <point x="166" y="16"/>
      <point x="197" y="100" type="curve" smooth="yes"/>
      <point x="230" y="191" type="line" smooth="yes"/>
      <point x="248" y="244"/>
      <point x="263" y="252"/>
      <point x="275" y="252" type="curve"/>
      <point x="275" y="120" type="line" smooth="yes"/>
      <point x="275" y="67"/>
      <point x="268" y="53"/>
      <point x="243" y="53" type="curve" smooth="yes"/>
      <point x="234" y="53" type="line"/>
      <point x="234" y="0" type="line"/>
      <point x="446" y="0" type="line"/>
      <point x="446" y="53" type="line"/>
      <point x="439" y="53" type="line" smooth="yes"/>
      <point x="415" y="53"/>
      <point x="407" y="67"/>
      <point x="407" y="120" type="curve" smooth="yes"/>
      <point x="407" y="252" type="line"/>
      <point x="419" y="252"/>
      <point x="432" y="244"/>
      <point x="451" y="191" type="curve" smooth="yes"/>
      <point x="485" y="100" type="line" smooth="yes"/>
      <point x="516" y="16"/>
      <point x="559" y="0"/>
      <point x="643" y="0" type="curve" smooth="yes"/>
      <point x="687" y="0" type="line"/>
      <point x="687" y="53" type="line"/>
      <point x="679" y="53" type="line" smooth="yes"/>
      <point x="656" y="53"/>
      <point x="647" y="61"/>
      <point x="624" y="118" type="curve" smooth="yes"/>
      <point x="583" y="213" type="line" smooth="yes"/>
      <point x="558" y="275"/>
      <point x="522" y="291"/>
      <point x="483" y="296" type="curve"/>
      <point x="501" y="312"/>
      <point x="519" y="342"/>
      <point x="541" y="389" type="curve" smooth="yes"/>
      <point x="564" y="436"/>
      <point x="576" y="450"/>
      <point x="595" y="450" type="curve" smooth="yes"/>
      <point x="616" y="450"/>
      <point x="625" y="431"/>
      <point x="626" y="404" type="curve"/>
      <point x="654" y="408"/>
      <point x="676" y="433"/>
      <point x="676" y="471" type="curve" smooth="yes"/>
      <point x="676" y="508"/>
      <point x="658" y="542"/>
      <point x="611" y="542" type="curve" smooth="yes"/>
      <point x="551" y="542"/>
      <point x="528" y="496"/>
      <point x="498" y="428" type="curve" smooth="yes"/>
      <point x="474" y="377"/>
      <point x="462" y="344"/>
      <point x="451" y="328" type="curve" smooth="yes"/>
      <point x="441" y="313"/>
      <point x="427" y="305"/>
      <point x="407" y="305" type="curve"/>
      <point x="407" y="418" type="line" smooth="yes"/>
      <point x="407" y="471"/>
      <point x="417" y="483"/>
      <point x="439" y="483" type="curve" smooth="yes"/>
      <point x="446" y="483" type="line"/>
      <point x="446" y="536" type="line"/>
      <point x="234" y="536" type="line"/>
      <point x="234" y="483" type="line"/>
      <point x="243" y="483" type="line" smooth="yes"/>
      <point x="265" y="483"/>
      <point x="275" y="471"/>
      <point x="275" y="416" type="curve" smooth="yes"/>
      <point x="275" y="305" type="line"/>
      <point x="256" y="305"/>
      <point x="240" y="313"/>
      <point x="230" y="328" type="curve" smooth="yes"/>
      <point x="220" y="344"/>
      <point x="206" y="377"/>
      <point x="184" y="428" type="curve" smooth="yes"/>
      <point x="154" y="496"/>
      <point x="131" y="542"/>
      <point x="71" y="542" type="curve" smooth="yes"/>
      <point x="24" y="542"/>
      <point x="6" y="508"/>
      <point x="6" y="471" type="curve" smooth="yes"/>
      <point x="6" y="433"/>
      <point x="28" y="408"/>
      <point x="56" y="404" type="curve"/>
      <point x="57" y="431"/>
      <point x="68" y="450"/>
      <point x="86" y="450" type="curve" smooth="yes"/>
      <point x="106" y="450"/>
      <point x="118" y="436"/>
      <point x="141" y="389" type="curve" smooth="yes"/>
      <point x="163" y="342"/>
      <point x="181" y="312"/>
      <point x="199" y="296" type="curve"/>
      <point x="160" y="291"/>
      <point x="124" y="275"/>
      <point x="99" y="213" type="curve" smooth="yes"/>
      <point x="58" y="118" type="line" smooth="yes"/>
      <point x="34" y="61"/>
      <point x="26" y="53"/>
      <point x="3" y="53" type="curve" smooth="yes"/>
      <point x="-6" y="53" type="line"/>
    </contour>
  </outline>
</glyph>
<glyph name="afii10073" format="2">
  <advance width="412"/>
  <unicode hex="0437"/>
  <anchor x="202" y="0" name="bottom"/>
  <anchor x="202" y="536" name="top"/>
  <outline>
    <contour>
      <point x="199" y="-10" type="curve" smooth="yes"/>
      <point x="322" y="-10"/>
      <point x="383" y="52"/>
      <point x="383" y="147" type="curve" smooth="yes"/>
      <point x="383" y="236"/>
      <point x="344" y="277"/>
      <point x="294" y="292" type="curve"/>
      <point x="294" y="297" type="line"/>
      <point x="338" y="310"/>
      <point x="371" y="339"/>
      <point x="371" y="394" type="curve" smooth="yes"/>
      <point x="371" y="514"/>
      <point x="307" y="548"/>
      <point x="184" y="548" type="curve" smooth="yes"/>
      <point x="81" y="548"/>
      <point x="39" y="501"/>
      <point x="39" y="444" type="curve" smooth="yes"/>
      <point x="39" y="407"/>
      <point x="59" y="380"/>
      <point x="147" y="380" type="curve"/>
      <point x="147" y="448"/>
      <point x="158" y="490"/>
      <point x="186" y="490" type="curve" smooth="yes"/>
      <point x="214" y="490"/>
      <point x="229" y="456"/>
      <point x="229" y="404" type="curve" smooth="yes"/>
      <point x="229" y="346"/>
      <point x="206" y="314"/>
      <point x="166" y="314" type="curve" smooth="yes"/>
      <point x="122" y="314" type="line"/>
      <point x="122" y="250" type="line"/>
      <point x="175" y="250" type="line" smooth="yes"/>
      <point x="214" y="250"/>
      <point x="242" y="218"/>
      <point x="242" y="158" type="curve" smooth="yes"/>
      <point x="242" y="94"/>
      <point x="217" y="61"/>
      <point x="165" y="61" type="curve" smooth="yes"/>
      <point x="101" y="61"/>
      <point x="65" y="106"/>
      <point x="45" y="145" type="curve"/>
      <point x="34" y="137"/>
      <point x="20" y="123"/>
      <point x="20" y="102" type="curve" smooth="yes"/>
      <point x="20" y="48"/>
      <point x="67" y="-10"/>
    </contour>
  </outline>
</glyph>
<glyph name="afii10078" format="2">
  <advance width="603"/>
  <unicode hex="043C"/>
  <anchor x="302" y="0" name="bottom"/>
  <anchor x="302" y="536" name="top"/>
  <outline>
    <contour>
      <point x="11" y="0" type="line"/>
      <point x="166" y="0" type="line"/>
      <point x="166" y="53" type="line"/>
      <point x="154" y="53" type="line" smooth="yes"/>
      <point x="124" y="53"/>
      <point x="114" y="65"/>
      <point x="114" y="124" type="curve"/>
      <point x="114" y="409" type="line"/>
      <point x="119" y="409" type="line"/>
      <point x="225" y="0" type="line"/>
      <point x="289" y="0" type="line"/>
      <point x="398" y="409" type="line"/>
      <point x="403" y="409" type="line"/>
      <point x="403" y="124" type="line" smooth="yes"/>
      <point x="403" y="65"/>
      <point x="389" y="53"/>
      <point x="358" y="53" type="curve" smooth="yes"/>
      <point x="347" y="53" type="line"/>
      <point x="347" y="0" type="line"/>
      <point x="592" y="0" type="line"/>
      <point x="592" y="53" type="line"/>
      <point x="586" y="53" type="line" smooth="yes"/>
      <point x="547" y="53"/>
      <point x="534" y="65"/>
      <point x="534" y="124" type="curve" smooth="yes"/>
      <point x="534" y="412" type="line" smooth="yes"/>
      <point x="534" y="471"/>
      <point x="549" y="483"/>
      <point x="586" y="483" type="curve" smooth="yes"/>
      <point x="592" y="483" type="line"/>
      <point x="592" y="536" type="line"/>
      <point x="386" y="536" type="line"/>
      <point x="293" y="205" type="line"/>
      <point x="221" y="536" type="line"/>
      <point x="11" y="536" type="line"/>
      <point x="11" y="483" type="line"/>
      <point x="19" y="483" type="line" smooth="yes"/>
      <point x="43" y="483"/>
      <point x="62" y="472"/>
      <point x="62" y="414" type="curve" smooth="yes"/>
      <point x="62" y="121" type="line" smooth="yes"/>
      <point x="62" y="65"/>
      <point x="47" y="53"/>
      <point x="23" y="53" type="curve" smooth="yes"/>
      <point x="11" y="53" type="line"/>
    </contour>
  </outline>
</glyph>
<glyph name="afii10099" format="2">
  <advance width="492"/>
  <unicode hex="0452"/>
  <anchor x="247" y="-240" name="bottom"/>
  <anchor x="247" y="760" name="top"/>
  <outline>
    <contour>
      <point x="221" y="-240" type="line"/>
      <point x="238" y="-240" type="line" smooth="yes"/>
      <point x="352" y="-240"/>
      <point x="437" y="-187"/>
      <point x="436" y="-10" type="curve" smooth="yes"/>
      <point x="436" y="325" type="line"/>
      <point x="436" y="459"/>
      <point x="392" y="518"/>
      <point x="319" y="518" type="curve" smooth="yes"/>
      <point x="266" y="518"/>
      <point x="235" y="485"/>
      <point x="212" y="436" type="curve"/>
      <point x="206" y="436" type="line"/>
      <point x="208" y="454"/>
      <point x="211" y="495"/>
      <point x="211" y="528" type="curve" smooth="yes"/>
      <point x="211" y="579" type="line"/>
      <point x="312" y="579" type="line"/>
      <point x="312" y="631" type="line"/>
      <point x="211" y="631" type="line"/>
      <point x="211" y="760" type="line"/>
      <point x="13" y="760" type="line"/>
      <point x="13" y="707" type="line"/>
      <point x="23" y="707" type="line" smooth="yes"/>
      <point x="49" y="707"/>
      <point x="69" y="696"/>
      <point x="69" y="646" type="curve" smooth="yes"/>
      <point x="69" y="631" type="line"/>
      <point x="7" y="631" type="line"/>
      <point x="7" y="579" type="line"/>
      <point x="69" y="579" type="line"/>
      <point x="69" y="121" type="line" smooth="yes"/>
      <point x="69" y="62"/>
      <point x="51" y="53"/>
      <point x="22" y="53" type="curve" smooth="yes"/>
      <point x="14" y="53" type="line"/>
      <point x="14" y="0" type="line"/>
      <point x="258" y="0" type="line"/>
      <point x="258" y="53" type="line"/>
      <point x="251" y="53" type="line"/>
      <point x="220" y="53"/>
      <point x="210" y="61"/>
      <point x="210" y="118" type="curve" smooth="yes"/>
      <point x="210" y="278" type="line" smooth="yes"/>
      <point x="210" y="361"/>
      <point x="215" y="434"/>
      <point x="254" y="434" type="curve" smooth="yes"/>
      <point x="283" y="434"/>
      <point x="295" y="384"/>
      <point x="295" y="299" type="curve" smooth="yes"/>
      <point x="295" y="0" type="line" smooth="yes"/>
      <point x="295" y="-138"/>
      <point x="271" y="-179"/>
      <point x="225" y="-179" type="curve" smooth="yes"/>
      <point x="221" y="-179" type="line"/>
    </contour>
  </outline>
</glyph>
<glyph name="afii10193" format="2">
  <advance width="500"/>
  <unicode hex="045F"/>
  <anchor x="250" y="-210" name="bottom"/>
  <anchor x="250" y="536" name="top"/>
  <outline>
    <contour>
      <point x="223" y="-210" type="curve"/>
      <point x="280" y="-210" type="line"/>
      <point x="280" y="-55"/>
      <point x="287" y="0"/>
      <point x="364" y="0" type="curve"/>
      <point x="492" y="0" type="line"/>
      <point x="492" y="53" type="line"/>
      <point x="482" y="53" type="line" smooth="yes"/>
      <point x="456" y="53"/>
      <point x="440" y="65"/>
      <point x="440" y="117" type="curve" smooth="yes"/>
      <point x="440" y="418" type="line" smooth="yes"/>
      <point x="440" y="472"/>
      <point x="455" y="483"/>
      <point x="482" y="483" type="curve" smooth="yes"/>
      <point x="492" y="483" type="line"/>
      <point x="492" y="536" type="line"/>
      <point x="260" y="536" type="line"/>
      <point x="260" y="483" type="line"/>
      <point x="264" y="483" type="line" smooth="yes"/>
      <point x="287" y="483"/>
      <point x="298" y="472"/>
      <point x="298" y="418" type="curve" smooth="yes"/>
      <point x="298" y="65" type="line"/>
      <point x="205" y="65" type="line"/>
      <point x="205" y="418" type="line" smooth="yes"/>
      <point x="205" y="472"/>
      <point x="214" y="483"/>
      <point x="238" y="483" type="curve" smooth="yes"/>
      <point x="241" y="483" type="line"/>
      <point x="241" y="536" type="line"/>
      <point x="9" y="536" type="line"/>
      <point x="9" y="483" type="line"/>
      <point x="18" y="483" type="line" smooth="yes"/>
      <point x="45" y="483"/>
      <point x="63" y="469"/>
      <point x="63" y="418" type="curve" smooth="yes"/>
      <point x="63" y="118" type="line" smooth="yes"/>
      <point x="63" y="66"/>
      <point x="45" y="53"/>
      <point x="18" y="53" type="curve" smooth="yes"/>
      <point x="9" y="53" type="line"/>
      <point x="9" y="0" type="line"/>
      <point x="139" y="0" type="line" smooth="yes"/>
      <point x="213" y="0"/>
      <point x="223" y="-55"/>
    </contour>
  </outline>
</glyph>
<glyph name="uni046D" format="2">
  <advance width="874"/>
  <unicode hex="046D"/>
  <anchor x="438" y="0" name="bottom"/>
  <anchor x="438" y="536" name="top"/>
  <outline>
    <contour>
      <point x="10" y="0" type="line"/>
      <point x="196" y="0" type="line"/>
      <point x="196" y="243" type="line"/>
      <point x="340" y="243" type="line"/>
      <point x="321" y="229"/>
      <point x="304" y="207"/>
      <point x="295" y="180" type="curve" smooth="yes"/>
      <point x="274" y="118" type="line" smooth="yes"/>
      <point x="255" y="66"/>
      <point x="244" y="52"/>
      <point x="222" y="52" type="curve" smooth="yes"/>
      <point x="219" y="52" type="line"/>
      <point x="219" y="-2" type="line"/>
      <point x="259" y="-2" type="line" smooth="yes"/>
      <point x="324" y="-2"/>
      <point x="375" y="16"/>
      <point x="404" y="98" type="curve" smooth="yes"/>
      <point x="436" y="190" type="line" smooth="yes"/>
      <point x="451" y="237"/>
      <point x="458" y="250"/>
      <point x="476" y="250" type="curve"/>
      <point x="476" y="117" type="line" smooth="yes"/>
      <point x="476" y="67"/>
      <point x="465" y="51"/>
      <point x="443" y="52" type="curve" smooth="yes"/>
      <point x="436" y="52" type="line"/>
      <point x="436" y="-2" type="line"/>
      <point x="659" y="-2" type="line"/>
      <point x="659" y="52" type="line"/>
      <point x="652" y="52" type="line" smooth="yes"/>
      <point x="626" y="52"/>
      <point x="618" y="66"/>
      <point x="618" y="117" type="curve" smooth="yes"/>
      <point x="618" y="250" type="line"/>
      <point x="632" y="250"/>
      <point x="643" y="238"/>
      <point x="658" y="190" type="curve" smooth="yes"/>
      <point x="688" y="98" type="line" smooth="yes"/>
      <point x="715" y="16"/>
      <point x="768" y="-2"/>
      <point x="835" y="-2" type="curve" smooth="yes"/>
      <point x="875" y="-2" type="line"/>
      <point x="875" y="52" type="line"/>
      <point x="871" y="52" type="line" smooth="yes"/>
      <point x="847" y="52"/>
      <point x="840" y="67"/>
      <point x="819" y="118" type="curve" smooth="yes"/>
      <point x="781" y="209" type="line" smooth="yes"/>
      <point x="758" y="270"/>
      <point x="734" y="297"/>
      <point x="644" y="301" type="curve"/>
      <point x="777" y="491" type="line"/>
      <point x="777" y="537" type="line"/>
      <point x="327" y="537" type="line"/>
      <point x="327" y="487" type="line"/>
      <point x="465" y="300" type="line"/>
      <point x="196" y="300" type="line"/>
      <point x="196" y="418" type="line" smooth="yes"/>
      <point x="196" y="474"/>
      <point x="226" y="483"/>
      <point x="234" y="483" type="curve" smooth="yes"/>
      <point x="243" y="483" type="line"/>
      <point x="243" y="536" type="line"/>
      <point x="10" y="536" type="line"/>
      <point x="10" y="483" type="line"/>
      <point x="17" y="483" type="line" smooth="yes"/>
      <point x="30" y="483"/>
      <point x="62" y="476"/>
      <point x="62" y="419" type="curve" smooth="yes"/>
      <point x="62" y="118" type="line" smooth="yes"/>
      <point x="62" y="61"/>
      <point x="30" y="53"/>
      <point x="17" y="53" type="curve" smooth="yes"/>
      <point x="10" y="53" type="line"/>
    </contour>
    <contour>
      <point x="588" y="319" type="line"/>
      <point x="493" y="476" type="line"/>
      <point x="685" y="476" type="line"/>
      <point x="592" y="319" type="line"/>
    </contour>
  </outline>
</glyph>
<glyph name="uni048A" format="2">
  <advance width="622"/>
  <unicode hex="048A"/>
  <anchor x="312" y="0" name="bottom"/>
  <anchor x="312" y="919" name="top"/>
  <outline>
    <contour>
      <point x="474" y="-210" type="line"/>
      <point x="564" y="-210" type="line"/>
      <point x="609" y="34" type="line"/>
      <point x="609" y="53" type="line"/>
      <point x="539" y="53" type="line"/>
      <point x="543" y="4" type="line"/>
    </contour>
    <component base="afii10026"/>
    <component base="cyrillicbreve" xOffset="132" yOffset="165"/>
  </outline>
</glyph>
<glyph name="uni0495" format="2">
  <advance width="481"/>
  <unicode hex="0495"/>
  <anchor x="240" y="-240" name="bottom"/>
  <anchor x="240" y="536" name="top"/>
  <outline>
    <contour>
      <point x="244" y="-240" type="curve" smooth="yes"/>
      <point x="368" y="-240"/>
      <point x="457" y="-168"/>
      <point x="457" y="44" type="curve" smooth="yes"/>
      <point x="457" y="227"/>
      <point x="388" y="304"/>
      <point x="273" y="304" type="curve" smooth="yes"/>
      <point x="244" y="304"/>
      <point x="220" y="299"/>
      <point x="205" y="294" type="curve"/>
      <point x="205" y="476" type="line"/>
      <point x="248" y="476" type="line" smooth="yes"/>
      <point x="289" y="476"/>
      <point x="298" y="450"/>
      <point x="305" y="404" type="curve" smooth="yes"/>
      <point x="309" y="360" type="line"/>
      <point x="371" y="360" type="line"/>
      <point x="371" y="536" type="line"/>
      <point x="10" y="536" type="line"/>
      <point x="10" y="483" type="line"/>
      <point x="17" y="483" type="line" smooth="yes"/>
      <point x="45" y="483"/>
      <point x="62" y="472"/>
      <point x="62" y="416" type="curve" smooth="yes"/>
      <point x="62" y="118" type="line" smooth="yes"/>
      <point x="62" y="65"/>
      <point x="52" y="53"/>
      <point x="17" y="53" type="curve" smooth="yes"/>
      <point x="10" y="53" type="line"/>
      <point x="10" y="0" type="line"/>
      <point x="259" y="0" type="line"/>
      <point x="259" y="53" type="line"/>
      <point x="243" y="53" type="line" smooth="yes"/>
      <point x="219" y="53"/>
      <point x="205" y="65"/>
      <point x="205" y="118" type="curve" smooth="yes"/>
      <point x="205" y="236" type="line"/>
      <point x="215" y="240"/>
      <point x="227" y="243"/>
      <point x="241" y="243" type="curve" smooth="yes"/>
      <point x="290" y="243"/>
      <point x="314" y="190"/>
      <point x="314" y="41" type="curve" smooth="yes"/>
      <point x="314" y="-122"/>
      <point x="298" y="-177"/>
      <point x="250" y="-177" type="curve" smooth="yes"/>
      <point x="210" y="-177"/>
      <point x="196" y="-139"/>
      <point x="196" y="-68" type="curve"/>
      <point x="128" y="-68"/>
      <point x="111" y="-96"/>
      <point x="111" y="-133" type="curve" smooth="yes"/>
      <point x="111" y="-190"/>
      <point x="153" y="-240"/>
    </contour>
  </outline>
</glyph>
<glyph name="uni049A" format="2">
  <advance width="575"/>
  <unicode hex="049A"/>
  <anchor x="287" y="0" name="bottom"/>
  <anchor x="287" y="714" name="top"/>
  <outline>
    <contour>
      <point x="518" y="-210" type="curve"/>
      <point x="564" y="-210" type="line"/>
      <point x="564" y="53" type="line"/>
      <point x="540" y="53" type="line" smooth="yes"/>
      <point x="502" y="53"/>
      <point x="481" y="80"/>
      <point x="465" y="138" type="curve" smooth="yes"/>
      <point x="418" y="270" type="line" smooth="yes"/>
      <point x="392" y="347"/>
      <point x="350" y="374"/>
      <point x="306" y="382" type="curve"/>
      <point x="331" y="406"/>
      <point x="348" y="441"/>
      <point x="381" y="524" type="curve" smooth="yes"/>
      <point x="412" y="604"/>
      <point x="421" y="635"/>
      <point x="451" y="635" type="curve" smooth="yes"/>
      <point x="474" y="635"/>
      <point x="485" y="611"/>
      <point x="490" y="583" type="curve"/>
      <point x="514" y="590"/>
      <point x="525" y="613"/>
      <point x="525" y="648" type="curve" smooth="yes"/>
      <point x="525" y="691"/>
      <point x="499" y="720"/>
      <point x="460" y="720" type="curve" smooth="yes"/>
      <point x="409" y="720"/>
      <point x="381" y="672"/>
      <point x="340" y="557" type="curve" smooth="yes"/>
      <point x="314" y="486"/>
      <point x="287" y="434"/>
      <point x="275" y="416" type="curve" smooth="yes"/>
      <point x="257" y="394"/>
      <point x="239" y="386"/>
      <point x="212" y="386" type="curve"/>
      <point x="212" y="596" type="line" smooth="yes"/>
      <point x="212" y="654"/>
      <point x="222" y="661"/>
      <point x="249" y="661" type="curve" smooth="yes"/>
      <point x="281" y="661" type="line"/>
      <point x="281" y="714" type="line"/>
      <point x="15" y="714" type="line"/>
      <point x="15" y="661" type="line"/>
      <point x="47" y="661" type="line" smooth="yes"/>
      <point x="73" y="661"/>
      <point x="81" y="654"/>
      <point x="81" y="600" type="curve" smooth="yes"/>
      <point x="81" y="113" type="line" smooth="yes"/>
      <point x="81" y="59"/>
      <point x="73" y="53"/>
      <point x="47" y="53" type="curve" smooth="yes"/>
      <point x="15" y="53" type="line"/>
      <point x="15" y="0" type="line"/>
      <point x="281" y="0" type="line"/>
      <point x="281" y="53" type="line"/>
      <point x="249" y="53" type="line" smooth="yes"/>
      <point x="222" y="53"/>
      <point x="212" y="60"/>
      <point x="212" y="118" type="curve" smooth="yes"/>
      <point x="212" y="331" type="line"/>
      <point x="234" y="331"/>
      <point x="252" y="320"/>
      <point x="273" y="268" type="curve" smooth="yes"/>
      <point x="340" y="94" type="line" smooth="yes"/>
      <point x="360" y="42"/>
      <point x="393" y="18"/>
      <point x="445" y="5" type="curve" smooth="yes"/>
      <point x="506" y="-16"/>
      <point x="515" y="-47"/>
    </contour>
  </outline>
</glyph>
<glyph name="uni04A1" format="2">
  <advance width="557"/>
  <unicode hex="04A1"/>
  <anchor x="278" y="0" name="bottom"/>
  <anchor x="278" y="536" name="top"/>
  <outline>
    <contour>
      <point x="85" y="0" type="line"/>
      <point x="338" y="0" type="line"/>
      <point x="338" y="53" type="line"/>
      <point x="327" y="53" type="line" smooth="yes"/>
      <point x="299" y="53"/>
      <point x="282" y="68"/>
      <point x="282" y="123" type="curve" smooth="yes"/>
      <point x="282" y="252" type="line"/>
      <point x="294" y="252"/>
      <point x="308" y="244"/>
      <point x="326" y="191" type="curve" smooth="yes"/>
      <point x="360" y="100" type="line" smooth="yes"/>
      <point x="391" y="14"/>
      <point x="434" y="0"/>
      <point x="518" y="0" type="curve" smooth="yes"/>
      <point x="562" y="0" type="line"/>
      <point x="562" y="53" type="line"/>
      <point x="554" y="53" type="line" smooth="yes"/>
      <point x="530" y="53"/>
      <point x="522" y="61"/>
      <point x="499" y="118" type="curve" smooth="yes"/>
      <point x="458" y="213" type="line" smooth="yes"/>
      <point x="433" y="275"/>
      <point x="399" y="291"/>
      <point x="358" y="296" type="curve"/>
      <point x="378" y="312"/>
      <point x="393" y="341"/>
      <point x="417" y="392" type="curve" smooth="yes"/>
      <point x="443" y="447"/>
      <point x="456" y="468"/>
      <point x="476" y="468" type="curve" smooth="yes"/>
      <point x="492" y="468"/>
      <point x="498" y="450"/>
      <point x="501" y="420" type="curve"/>
      <point x="529" y="423"/>
      <point x="551" y="441"/>
      <point x="551" y="478" type="curve" smooth="yes"/>
      <point x="551" y="515"/>
      <point x="529" y="542"/>
      <point x="487" y="542" type="curve" smooth="yes"/>
      <point x="421" y="542"/>
      <point x="403" y="496"/>
      <point x="373" y="428" type="curve" smooth="yes"/>
      <point x="351" y="377"/>
      <point x="339" y="344"/>
      <point x="327" y="328" type="curve" smooth="yes"/>
      <point x="317" y="313"/>
      <point x="303" y="305"/>
      <point x="282" y="305" type="curve"/>
      <point x="282" y="420" type="line" smooth="yes"/>
      <point x="282" y="475"/>
      <point x="311" y="483"/>
      <point x="330" y="483" type="curve" smooth="yes"/>
      <point x="332" y="483" type="line"/>
      <point x="332" y="536" type="line"/>
      <point x="11" y="536" type="line"/>
      <point x="8" y="366" type="line"/>
      <point x="69" y="366" type="line"/>
      <point x="72" y="399" type="line" smooth="yes"/>
      <point x="78" y="456"/>
      <point x="86" y="474"/>
      <point x="126" y="474" type="curve" smooth="yes"/>
      <point x="141" y="474" type="line"/>
      <point x="141" y="123" type="line" smooth="yes"/>
      <point x="141" y="68"/>
      <point x="121" y="53"/>
      <point x="94" y="53" type="curve" smooth="yes"/>
      <point x="85" y="53" type="line"/>
    </contour>
  </outline>
</glyph>
<glyph name="uni04A8" format="2">
  <advance width="657"/>
  <unicode hex="04A8"/>
  <anchor x="329" y="0" name="bottom"/>
  <anchor x="329" y="714" name="top"/>
  <outline>
    <contour>
      <point x="551" y="-47" type="curve" smooth="yes"/>
      <point x="612" y="-47"/>
      <point x="635" y="-15"/>
      <point x="635" y="19" type="curve" smooth="yes"/>
      <point x="635" y="38"/>
      <point x="625" y="51"/>
      <point x="619" y="58" type="curve"/>
      <point x="606" y="36"/>
      <point x="589" y="24"/>
      <point x="562" y="24" type="curve" smooth="yes"/>
      <point x="543" y="24"/>
      <point x="512" y="32"/>
      <point x="493" y="44" type="curve"/>
      <point x="560" y="100"/>
      <point x="606" y="205"/>
      <point x="606" y="330" type="curve" smooth="yes"/>
      <point x="606" y="499"/>
      <point x="532" y="584"/>
      <point x="441" y="584" type="curve" smooth="yes"/>
      <point x="340" y="584"/>
      <point x="270" y="491"/>
      <point x="270" y="330" type="curve" smooth="yes"/>
      <point x="270" y="211"/>
      <point x="301" y="124"/>
      <point x="358" y="55" type="curve"/>
      <point x="353" y="54"/>
      <point x="344" y="52"/>
      <point x="338" y="52" type="curve" smooth="yes"/>
      <point x="231" y="52"/>
      <point x="190" y="160"/>
      <point x="190" y="358" type="curve" smooth="yes"/>
      <point x="190" y="556"/>
      <point x="239" y="663"/>
      <point x="356" y="663" type="curve" smooth="yes"/>
      <point x="397" y="663"/>
      <point x="429" y="650"/>
      <point x="447" y="636" type="curve"/>
      <point x="456" y="644"/>
      <point x="465" y="653"/>
      <point x="465" y="674" type="curve" smooth="yes"/>
      <point x="465" y="707"/>
      <point x="419" y="725"/>
      <point x="346" y="725" type="curve" smooth="yes"/>
      <point x="130" y="725"/>
      <point x="39" y="578"/>
      <point x="39" y="359" type="curve" smooth="yes"/>
      <point x="39" y="129"/>
      <point x="125" y="-10"/>
      <point x="326" y="-10" type="curve" smooth="yes"/>
      <point x="361" y="-10"/>
      <point x="377" y="-3"/>
      <point x="406" y="4" type="curve"/>
      <point x="446" y="-23"/>
      <point x="492" y="-47"/>
    </contour>
    <contour>
      <point x="438" y="94" type="curve"/>
      <point x="418" y="144"/>
      <point x="402" y="205"/>
      <point x="402" y="328" type="curve" smooth="yes"/>
      <point x="402" y="465"/>
      <point x="415" y="521"/>
      <point x="439" y="521" type="curve" smooth="yes"/>
      <point x="463" y="521"/>
      <point x="477" y="469"/>
      <point x="477" y="334" type="curve" smooth="yes"/>
      <point x="477" y="207"/>
      <point x="460" y="142"/>
    </contour>
  </outline>
</glyph>
<glyph name="uni04A9" format="2">
  <advance width="549"/>
  <unicode hex="04A9"/>
  <anchor x="275" y="0" name="bottom"/>
  <anchor x="275" y="536" name="top"/>
  <outline>
    <contour>
      <point x="470" y="-30" type="curve" smooth="yes"/>
      <point x="518" y="-30"/>
      <point x="536" y="-5"/>
      <point x="536" y="22" type="curve" smooth="yes"/>
      <point x="536" y="34"/>
      <point x="529" y="46"/>
      <point x="524" y="54" type="curve"/>
      <point x="514" y="41"/>
      <point x="503" y="33"/>
      <point x="479" y="33" type="curve" smooth="yes"/>
      <point x="459" y="33"/>
      <point x="440" y="36"/>
      <point x="422" y="43" type="curve"/>
      <point x="468" y="85"/>
      <point x="497" y="155"/>
      <point x="497" y="243" type="curve" smooth="yes"/>
      <point x="497" y="365"/>
      <point x="444" y="424"/>
      <point x="352" y="424" type="curve" smooth="yes"/>
      <point x="260" y="424"/>
      <point x="211" y="365"/>
      <point x="211" y="241" type="curve" smooth="yes"/>
      <point x="211" y="160"/>
      <point x="238" y="98"/>
      <point x="283" y="52" type="curve"/>
      <point x="280" y="51"/>
      <point x="272" y="51"/>
      <point x="268" y="51" type="curve" smooth="yes"/>
      <point x="206" y="51"/>
      <point x="160" y="110"/>
      <point x="160" y="269" type="curve" smooth="yes"/>
      <point x="160" y="420"/>
      <point x="196" y="483"/>
      <point x="270" y="483" type="curve" smooth="yes"/>
      <point x="303" y="483"/>
      <point x="328" y="473"/>
      <point x="339" y="464" type="curve"/>
      <point x="344" y="469"/>
      <point x="352" y="483"/>
      <point x="352" y="494" type="curve" smooth="yes"/>
      <point x="352" y="525"/>
      <point x="332" y="546"/>
      <point x="258" y="546" type="curve" smooth="yes"/>
      <point x="104" y="546"/>
      <point x="29" y="444"/>
      <point x="29" y="265" type="curve" smooth="yes"/>
      <point x="29" y="78"/>
      <point x="111" y="-10"/>
      <point x="248" y="-10" type="curve" smooth="yes"/>
      <point x="295" y="-10"/>
      <point x="332" y="-2"/>
      <point x="354" y="7" type="curve"/>
      <point x="393" y="-14"/>
      <point x="430" y="-30"/>
    </contour>
    <contour>
      <point x="357" y="78" type="curve"/>
      <point x="339" y="110"/>
      <point x="320" y="161"/>
      <point x="320" y="244" type="curve" smooth="yes"/>
      <point x="320" y="342"/>
      <point x="336" y="374"/>
      <point x="354" y="374" type="curve" smooth="yes"/>
      <point x="374" y="374"/>
      <point x="389" y="345"/>
      <point x="389" y="248" type="curve" smooth="yes"/>
      <point x="389" y="166"/>
      <point x="370" y="107"/>
    </contour>
  </outline>
</glyph>
<glyph name="uni04B2" format="2">
  <advance width="568"/>
  <unicode hex="04B2"/>
  <anchor x="285" y="0" name="bottom"/>
  <anchor x="285" y="714" name="top"/>
  <outline>
    <contour>
      <point x="512" y="-210" type="curve"/>
      <point x="559" y="-210" type="line"/>
      <point x="559" y="53" type="line"/>
      <point x="550" y="53" type="line" smooth="yes"/>
      <point x="538" y="53"/>
      <point x="512" y="66"/>
      <point x="493" y="106" type="curve" smooth="yes"/>
      <point x="359" y="388" type="line"/>
      <point x="464" y="589" type="line" smooth="yes"/>
      <point x="493" y="644"/>
      <point x="508" y="661"/>
      <point x="535" y="661" type="curve" smooth="yes"/>
      <point x="542" y="661" type="line"/>
      <point x="542" y="714" type="line"/>
      <point x="366" y="714" type="line"/>
      <point x="366" y="661" type="line"/>
      <point x="369" y="661" type="line" smooth="yes"/>
      <point x="392" y="661"/>
      <point x="408" y="656"/>
      <point x="408" y="632" type="curve" smooth="yes"/>
      <point x="408" y="614"/>
      <point x="396" y="590"/>
      <point x="388" y="571" type="curve" smooth="yes"/>
      <point x="330" y="445" type="line"/>
      <point x="274" y="573" type="line" smooth="yes"/>
      <point x="264" y="593"/>
      <point x="253" y="617"/>
      <point x="253" y="631" type="curve" smooth="yes"/>
      <point x="253" y="647"/>
      <point x="261" y="661"/>
      <point x="295" y="661" type="curve" smooth="yes"/>
      <point x="300" y="661" type="line"/>
      <point x="300" y="714" type="line"/>
      <point x="26" y="714" type="line"/>
      <point x="26" y="661" type="line"/>
      <point x="38" y="661" type="line" smooth="yes"/>
      <point x="75" y="661"/>
      <point x="83" y="645"/>
      <point x="99" y="608" type="curve" smooth="yes"/>
      <point x="219" y="353" type="line"/>
      <point x="88" y="121" type="line" smooth="yes"/>
      <point x="64" y="77"/>
      <point x="47" y="53"/>
      <point x="12" y="53" type="curve" smooth="yes"/>
      <point x="8" y="53" type="line"/>
      <point x="8" y="0" type="line"/>
      <point x="198" y="0" type="line"/>
      <point x="198" y="53" type="line"/>
      <point x="194" y="53" type="line" smooth="yes"/>
      <point x="163" y="53"/>
      <point x="154" y="65"/>
      <point x="154" y="87" type="curve" smooth="yes"/>
      <point x="154" y="108"/>
      <point x="163" y="131"/>
      <point x="173" y="152" type="curve" smooth="yes"/>
      <point x="249" y="297" type="line"/>
      <point x="313" y="155" type="line" smooth="yes"/>
      <point x="331" y="111"/>
      <point x="336" y="101"/>
      <point x="336" y="86" type="curve" smooth="yes"/>
      <point x="336" y="64"/>
      <point x="321" y="53"/>
      <point x="292" y="53" type="curve" smooth="yes"/>
      <point x="289" y="53" type="line"/>
      <point x="289" y="0" type="line"/>
      <point x="438" y="0" type="line"/>
      <point x="498" y="0"/>
      <point x="507" y="-40"/>
    </contour>
  </outline>
</glyph>
<glyph name="uni04B9" format="2">
  <advance width="489"/>
  <unicode hex="04B9"/>
  <anchor x="244" y="0" name="bottom"/>
  <anchor x="244" y="536" name="top"/>
  <outline>
    <contour>
      <point x="174" y="102" type="line"/>
      <point x="262" y="-67" type="line"/>
      <point x="305" y="360" type="line"/>
      <point x="217" y="529" type="line"/>
    </contour>
    <component base="afii10089"/>
  </outline>
</glyph>
<glyph name="uni04BC" format="2">
  <advance width="644"/>
  <unicode hex="04BC"/>
  <anchor x="369" y="0" name="bottom"/>
  <anchor x="369" y="714" name="top"/>
  <outline>
    <contour>
      <point x="400" y="-10" type="curve" smooth="yes"/>
      <point x="505" y="-10"/>
      <point x="593" y="48"/>
      <point x="593" y="110" type="curve" smooth="yes"/>
      <point x="593" y="129"/>
      <point x="589" y="139"/>
      <point x="584" y="147" type="curve"/>
      <point x="544" y="102"/>
      <point x="494" y="65"/>
      <point x="435" y="65" type="curve" smooth="yes"/>
      <point x="346" y="65"/>
      <point x="294" y="145"/>
      <point x="288" y="335" type="curve"/>
      <point x="604" y="335" type="line"/>
      <point x="604" y="362" type="line" smooth="yes"/>
      <point x="604" y="587"/>
      <point x="547" y="725"/>
      <point x="382" y="725" type="curve" smooth="yes"/>
      <point x="240" y="725"/>
      <point x="150" y="596"/>
      <point x="140" y="392" type="curve"/>
      <point x="105" y="392"/>
      <point x="85" y="408"/>
      <point x="85" y="456" type="curve" smooth="yes"/>
      <point x="85" y="477"/>
      <point x="88" y="491"/>
      <point x="93" y="505" type="curve"/>
      <point x="87" y="511"/>
      <point x="76" y="518"/>
      <point x="63" y="518" type="curve" smooth="yes"/>
      <point x="32" y="518"/>
      <point x="8" y="497"/>
      <point x="8" y="447" type="curve" smooth="yes"/>
      <point x="8" y="372"/>
      <point x="53" y="335"/>
      <point x="138" y="337" type="curve"/>
      <point x="145" y="129"/>
      <point x="231" y="-10"/>
    </contour>
    <contour>
      <point x="290" y="392" type="line"/>
      <point x="292" y="575"/>
      <point x="324" y="660"/>
      <point x="375" y="660" type="curve" smooth="yes"/>
      <point x="429" y="660"/>
      <point x="450" y="566"/>
      <point x="452" y="392" type="curve"/>
    </contour>
  </outline>
</glyph>
<glyph name="uni04BF" format="2">
  <advance width="545"/>
  <unicode hex="04BF"/>
  <anchor x="349" y="-210" name="bottom"/>
  <anchor x="336" y="536" name="top"/>
  <outline>
    <contour>
      <point x="321" y="-210" type="curve"/>
      <point x="379" y="-210" type="line"/>
      <point x="379" y="-65"/>
      <point x="381" y="-23"/>
      <point x="429" y="2" type="curve"/>
      <point x="482" y="21"/>
      <point x="504" y="66"/>
      <point x="504" y="105" type="curve" smooth="yes"/>
      <point x="504" y="128"/>
      <point x="490" y="142"/>
      <point x="472" y="148" type="curve"/>
      <point x="457" y="100"/>
      <point x="429" y="62"/>
      <point x="379" y="62" type="curve" smooth="yes"/>
      <point x="316" y="62"/>
      <point x="286" y="122"/>
      <point x="284" y="259" type="curve"/>
      <point x="518" y="259" type="line"/>
      <point x="518" y="307" type="line" smooth="yes"/>
      <point x="518" y="465"/>
      <point x="449" y="549"/>
      <point x="334" y="549" type="curve" smooth="yes"/>
      <point x="224" y="549"/>
      <point x="157" y="471"/>
      <point x="144" y="320" type="curve"/>
      <point x="105" y="321"/>
      <point x="89" y="334"/>
      <point x="89" y="383" type="curve" smooth="yes"/>
      <point x="89" y="405"/>
      <point x="91" y="420"/>
      <point x="96" y="433" type="curve"/>
      <point x="91" y="440"/>
      <point x="69" y="444"/>
      <point x="60" y="444" type="curve" smooth="yes"/>
      <point x="36" y="444"/>
      <point x="7" y="425"/>
      <point x="7" y="369" type="curve" smooth="yes"/>
      <point x="7" y="290"/>
      <point x="68" y="258"/>
      <point x="142" y="259" type="curve"/>
      <point x="143" y="125"/>
      <point x="186" y="36"/>
      <point x="270" y="4" type="curve"/>
      <point x="320" y="-19"/>
      <point x="321" y="-65"/>
    </contour>
    <contour>
      <point x="285" y="320" type="line"/>
      <point x="285" y="427"/>
      <point x="307" y="486"/>
      <point x="339" y="486" type="curve" smooth="yes"/>
      <point x="365" y="486"/>
      <point x="379" y="422"/>
      <point x="379" y="320" type="curve"/>
    </contour>
  </outline>
</glyph>
<glyph name="uni04C3" format="2">
  <advance width="567"/>
  <unicode hex="04C3"/>
  <anchor x="283" y="-248" name="bottom"/>
  <anchor x="283" y="714" name="top"/>
  <outline>
    <contour>
      <point x="301" y="-248" type="curve" smooth="yes"/>
      <point x="460" y="-248"/>
      <point x="537" y="-130"/>
      <point x="537" y="83" type="curve" smooth="yes"/>
      <point x="537" y="271"/>
      <point x="490" y="376"/>
      <point x="330" y="387" type="curve"/>
      <point x="356" y="413"/>
      <point x="377" y="454"/>
      <point x="405" y="524" type="curve" smooth="yes"/>
      <point x="436" y="604"/>
      <point x="443" y="635"/>
      <point x="473" y="635" type="curve" smooth="yes"/>
      <point x="498" y="635"/>
      <point x="507" y="611"/>
      <point x="512" y="583" type="curve"/>
      <point x="536" y="590"/>
      <point x="547" y="613"/>
      <point x="547" y="648" type="curve" smooth="yes"/>
      <point x="547" y="691"/>
      <point x="523" y="720"/>
      <point x="480" y="720" type="curve" smooth="yes"/>
      <point x="427" y="720"/>
      <point x="395" y="672"/>
      <point x="354" y="557" type="curve" smooth="yes"/>
      <point x="328" y="486"/>
      <point x="302" y="434"/>
      <point x="288" y="416" type="curve" smooth="yes"/>
      <point x="271" y="393"/>
      <point x="254" y="386"/>
      <point x="227" y="386" type="curve"/>
      <point x="227" y="596" type="line" smooth="yes"/>
      <point x="227" y="654"/>
      <point x="237" y="661"/>
      <point x="264" y="661" type="curve" smooth="yes"/>
      <point x="296" y="661" type="line"/>
      <point x="296" y="714" type="line"/>
      <point x="15" y="714" type="line"/>
      <point x="15" y="661" type="line"/>
      <point x="47" y="661" type="line" smooth="yes"/>
      <point x="73" y="661"/>
      <point x="81" y="654"/>
      <point x="81" y="600" type="curve" smooth="yes"/>
      <point x="81" y="113" type="line" smooth="yes"/>
      <point x="81" y="59"/>
      <point x="73" y="53"/>
      <point x="47" y="53" type="curve" smooth="yes"/>
      <point x="15" y="53" type="line"/>
      <point x="15" y="0" type="line"/>
      <point x="296" y="0" type="line"/>
      <point x="296" y="53" type="line"/>
      <point x="264" y="53" type="line" smooth="yes"/>
      <point x="237" y="53"/>
      <point x="227" y="60"/>
      <point x="227" y="118" type="curve" smooth="yes"/>
      <point x="227" y="326" type="line"/>
      <point x="234" y="329"/>
      <point x="253" y="333"/>
      <point x="266" y="333" type="curve" smooth="yes"/>
      <point x="357" y="333"/>
      <point x="379" y="245"/>
      <point x="379" y="84" type="curve" smooth="yes"/>
      <point x="379" y="-101"/>
      <point x="364" y="-186"/>
      <point x="303" y="-186" type="curve" smooth="yes"/>
      <point x="254" y="-186"/>
      <point x="242" y="-139"/>
      <point x="236" y="-66" type="curve"/>
      <point x="177" y="-66"/>
      <point x="151" y="-96"/>
      <point x="151" y="-136" type="curve" smooth="yes"/>
      <point x="151" y="-202"/>
      <point x="197" y="-248"/>
    </contour>
  </outline>
</glyph>
<glyph name="uni0507" format="2">
  <advance width="408"/>
  <unicode hex="0507"/>
  <anchor x="204" y="0" name="bottom"/>
  <anchor x="204" y="536" name="top"/>
  <outline>
    <contour>
      <point x="356" y="-203" type="line"/>
      <point x="400" y="-203" type="line"/>
      <point x="400" y="54" type="line"/>
      <point x="391" y="54" type="line" smooth="yes"/>
      <point x="362" y="54"/>
      <point x="346" y="72"/>
      <point x="346" y="123" type="curve" smooth="yes"/>
      <point x="346" y="154" type="line" smooth="yes"/>
      <point x="346" y="233"/>
      <point x="308" y="267"/>
      <point x="234" y="284" type="curve"/>
      <point x="234" y="289" type="line"/>
      <point x="300" y="306"/>
      <point x="336" y="351"/>
      <point x="336" y="419" type="curve" smooth="yes"/>
      <point x="336" y="500"/>
      <point x="277" y="548"/>
      <point x="165" y="548" type="curve" smooth="yes"/>
      <point x="35" y="548"/>
      <point x="3" y="491"/>
      <point x="3" y="444" type="curve" smooth="yes"/>
      <point x="3" y="405"/>
      <point x="20" y="380"/>
      <point x="94" y="380" type="curve"/>
      <point x="94" y="440"/>
      <point x="99" y="492"/>
      <point x="147" y="492" type="curve" smooth="yes"/>
      <point x="182" y="492"/>
      <point x="195" y="455"/>
      <point x="195" y="409" type="curve" smooth="yes"/>
      <point x="195" y="356"/>
      <point x="180" y="315"/>
      <point x="118" y="315" type="curve" smooth="yes"/>
      <point x="87" y="315" type="line"/>
      <point x="87" y="252" type="line"/>
      <point x="120" y="252" type="line" smooth="yes"/>
      <point x="182" y="252"/>
      <point x="204" y="222"/>
      <point x="204" y="153" type="curve" smooth="yes"/>
      <point x="204" y="0" type="line"/>
      <point x="277" y="0" type="line" smooth="yes"/>
      <point x="328" y="0"/>
      <point x="341" y="-26"/>
      <point x="351" y="-136" type="curve" smooth="yes"/>
    </contour>
  </outline>
</glyph>
<glyph name="uni0511" format="2">
  <advance width="412"/>
  <unicode hex="0511"/>
  <anchor x="207" y="0" name="bottom"/>
  <anchor x="207" y="536" name="top"/>
  <outline>
    <contour>
      <point x="204" y="-10" type="curve" smooth="yes"/>
      <point x="337" y="-10"/>
      <point x="383" y="48"/>
      <point x="383" y="102" type="curve" smooth="yes"/>
      <point x="383" y="123"/>
      <point x="370" y="137"/>
      <point x="359" y="145" type="curve"/>
      <point x="338" y="106"/>
      <point x="302" y="61"/>
      <point x="239" y="61" type="curve" smooth="yes"/>
      <point x="186" y="61"/>
      <point x="162" y="94"/>
      <point x="162" y="158" type="curve" smooth="yes"/>
      <point x="162" y="218"/>
      <point x="189" y="250"/>
      <point x="229" y="250" type="curve" smooth="yes"/>
      <point x="281" y="250" type="line"/>
      <point x="281" y="314" type="line"/>
      <point x="237" y="314" type="line" smooth="yes"/>
      <point x="197" y="314"/>
      <point x="174" y="346"/>
      <point x="174" y="404" type="curve" smooth="yes"/>
      <point x="174" y="456"/>
      <point x="189" y="490"/>
      <point x="215" y="490" type="curve" smooth="yes"/>
      <point x="245" y="490"/>
      <point x="257" y="455"/>
      <point x="257" y="387" type="curve"/>
      <point x="344" y="387"/>
      <point x="364" y="414"/>
      <point x="364" y="451" type="curve" smooth="yes"/>
      <point x="364" y="503"/>
      <point x="338" y="548"/>
      <point x="216" y="548" type="curve" smooth="yes"/>
      <point x="101" y="548"/>
      <point x="33" y="491"/>
      <point x="33" y="403" type="curve" smooth="yes"/>
      <point x="33" y="338"/>
      <point x="70" y="301"/>
      <point x="120" y="286" type="curve"/>
      <point x="120" y="281" type="line"/>
      <point x="65" y="267"/>
      <point x="21" y="229"/>
      <point x="21" y="147" type="curve" smooth="yes"/>
      <point x="21" y="52"/>
      <point x="81" y="-10"/>
    </contour>
  </outline>
</glyph>
<glyph name="uni0522" format="2">
  <advance width="851"/>
  <unicode hex="0522"/>
  <anchor x="426" y="-248" name="bottom"/>
  <anchor x="426" y="714" name="top"/>
  <outline>
    <contour>
      <point x="586" y="-248" type="curve" smooth="yes"/>
      <point x="745" y="-248"/>
      <point x="822" y="-130"/>
      <point x="822" y="83" type="curve" smooth="yes"/>
      <point x="822" y="278"/>
      <point x="776" y="395"/>
      <point x="586" y="395" type="curve" smooth="yes"/>
      <point x="565" y="395"/>
      <point x="537" y="389"/>
      <point x="526" y="386" type="curve"/>
      <point x="526" y="602" type="line" smooth="yes"/>
      <point x="526" y="648"/>
      <point x="536" y="661"/>
      <point x="553" y="661" type="curve" smooth="yes"/>
      <point x="591" y="661" type="line"/>
      <point x="591" y="714" type="line"/>
      <point x="328" y="714" type="line"/>
      <point x="328" y="661" type="line"/>
      <point x="351" y="661" type="line" smooth="yes"/>
      <point x="372" y="661"/>
      <point x="379" y="648"/>
      <point x="379" y="602" type="curve" smooth="yes"/>
      <point x="379" y="404" type="line"/>
      <point x="228" y="404" type="line"/>
      <point x="228" y="605" type="line" smooth="yes"/>
      <point x="228" y="648"/>
      <point x="235" y="661"/>
      <point x="252" y="661" type="curve" smooth="yes"/>
      <point x="279" y="661" type="line"/>
      <point x="279" y="714" type="line"/>
      <point x="16" y="714" type="line"/>
      <point x="16" y="661" type="line"/>
      <point x="47" y="661" type="line" smooth="yes"/>
      <point x="65" y="661"/>
      <point x="81" y="648"/>
      <point x="81" y="602" type="curve" smooth="yes"/>
      <point x="81" y="111" type="line" smooth="yes"/>
      <point x="81" y="71"/>
      <point x="70" y="53"/>
      <point x="54" y="53" type="curve" smooth="yes"/>
      <point x="16" y="53" type="line"/>
      <point x="16" y="0" type="line"/>
      <point x="279" y="0" type="line"/>
      <point x="279" y="53" type="line"/>
      <point x="252" y="53" type="line" smooth="yes"/>
      <point x="235" y="53"/>
      <point x="228" y="71"/>
      <point x="228" y="111" type="curve" smooth="yes"/>
      <point x="228" y="343" type="line"/>
      <point x="379" y="343" type="line"/>
      <point x="379" y="115" type="line" smooth="yes"/>
      <point x="379" y="71"/>
      <point x="371" y="53"/>
      <point x="352" y="53" type="curve" smooth="yes"/>
      <point x="328" y="53" type="line"/>
      <point x="328" y="0" type="line"/>
      <point x="591" y="0" type="line"/>
      <point x="591" y="53" type="line"/>
      <point x="553" y="53" type="line" smooth="yes"/>
      <point x="537" y="53"/>
      <point x="526" y="70"/>
      <point x="526" y="111" type="curve" smooth="yes"/>
      <point x="526" y="326" type="line"/>
      <point x="532" y="329"/>
      <point x="539" y="333"/>
      <point x="551" y="333" type="curve" smooth="yes"/>
      <point x="642" y="333"/>
      <point x="664" y="245"/>
      <point x="664" y="84" type="curve" smooth="yes"/>
      <point x="664" y="-101"/>
      <point x="647" y="-186"/>
      <point x="588" y="-186" type="curve" smooth="yes"/>
      <point x="537" y="-186"/>
      <point x="525" y="-139"/>
      <point x="521" y="-66" type="curve"/>
      <point x="460" y="-66"/>
      <point x="434" y="-96"/>
      <point x="434" y="-136" type="curve" smooth="yes"/>
      <point x="434" y="-202"/>
      <point x="482" y="-248"/>
    </contour>
  </outline>
</glyph>
<glyph name="uni0529" format="2">
  <advance width="501"/>
  <unicode hex="0529"/>
  <anchor x="250" y="-240" name="bottom"/>
  <anchor x="250" y="536" name="top"/>
  <outline>
    <contour>
      <point x="-11" y="-240" type="line"/>
      <point x="4" y="-240" type="line" smooth="yes"/>
      <point x="121" y="-240"/>
      <point x="204" y="-187"/>
      <point x="204" y="-8" type="curve" smooth="yes"/>
      <point x="204" y="246" type="line"/>
      <point x="304" y="246" type="line"/>
      <point x="304" y="118" type="line" smooth="yes"/>
      <point x="304" y="64"/>
      <point x="296" y="53"/>
      <point x="270" y="53" type="curve" smooth="yes"/>
      <point x="268" y="53" type="line"/>
      <point x="268" y="0" type="line"/>
      <point x="499" y="0" type="line"/>
      <point x="499" y="53" type="line"/>
      <point x="492" y="53" type="line" smooth="yes"/>
      <point x="464" y="53"/>
      <point x="445" y="67"/>
      <point x="445" y="118" type="curve" smooth="yes"/>
      <point x="445" y="418" type="line" smooth="yes"/>
      <point x="445" y="472"/>
      <point x="464" y="483"/>
      <point x="492" y="483" type="curve" smooth="yes"/>
      <point x="499" y="483" type="line"/>
      <point x="499" y="536" type="line"/>
      <point x="268" y="536" type="line"/>
      <point x="268" y="483" type="line"/>
      <point x="270" y="483" type="line" smooth="yes"/>
      <point x="296" y="483"/>
      <point x="304" y="471"/>
      <point x="304" y="419" type="curve" smooth="yes"/>
      <point x="304" y="303" type="line"/>
      <point x="204" y="303" type="line"/>
      <point x="204" y="418" type="line" smooth="yes"/>
      <point x="204" y="472"/>
      <point x="214" y="483"/>
      <point x="236" y="483" type="curve" smooth="yes"/>
      <point x="241" y="483" type="line"/>
      <point x="241" y="536" type="line"/>
      <point x="10" y="536" type="line"/>
      <point x="10" y="483" type="line"/>
      <point x="19" y="483" type="line" smooth="yes"/>
      <point x="46" y="483"/>
      <point x="62" y="471"/>
      <point x="62" y="419" type="curve" smooth="yes"/>
      <point x="62" y="-20" type="line" smooth="yes"/>
      <point x="62" y="-143"/>
      <point x="38" y="-179"/>
      <point x="-7" y="-179" type="curve" smooth="yes"/>
      <point x="-11" y="-179" type="line"/>
    </contour>
  </outline>
</glyph>
<glyph name="uni1AB2" format="2">
  <unicode hex="1AB2"/>
  <anchor x="-1" y="536" name="_top"/>
  <anchor x="-1" y="753" name="top"/>
  <outline>
    <contour>
      <point x="82" y="657" type="curve" smooth="yes"/>
      <point x="136" y="657"/>
      <point x="172" y="681"/>
      <point x="172" y="705" type="curve" smooth="yes"/>
      <point x="172" y="733"/>
      <point x="137" y="754"/>
      <point x="83" y="754" type="curve" smooth="yes"/>
      <point x="51" y="754"/>
      <point x="24" y="749"/>
      <point x="1" y="741" type="curve"/>
      <point x="-21" y="754"/>
      <point x="-46" y="753"/>
      <point x="-80" y="753" type="curve" smooth="yes"/>
      <point x="-136" y="753"/>
      <point x="-172" y="731"/>
      <point x="-172" y="706" type="curve" smooth="yes"/>
      <point x="-172" y="676"/>
      <point x="-136" y="657"/>
      <point x="-83" y="657" type="curve" smooth="yes"/>
      <point x="-52" y="657"/>
      <point x="-24" y="662"/>
      <point x="-1" y="672" type="curve"/>
      <point x="21" y="660"/>
      <point x="47" y="657"/>
    </contour>
    <contour>
      <point x="-76" y="697" type="curve" smooth="yes"/>
      <point x="-101" y="697"/>
      <point x="-110" y="701"/>
      <point x="-110" y="704" type="curve"/>
      <point x="-110" y="709"/>
      <point x="-99" y="715"/>
      <point x="-77" y="715" type="curve" smooth="yes"/>
      <point x="-57" y="715"/>
      <point x="-28" y="714"/>
      <point x="-41" y="704" type="curve" smooth="yes"/>
      <point x="-29" y="697"/>
      <point x="-59" y="697"/>
    </contour>
    <contour>
      <point x="77" y="696" type="curve" smooth="yes"/>
      <point x="57" y="696"/>
      <point x="28" y="697"/>
      <point x="42" y="707" type="curve" smooth="yes"/>
      <point x="29" y="711"/>
      <point x="60" y="713"/>
      <point x="77" y="713" type="curve" smooth="yes"/>
      <point x="98" y="713"/>
      <point x="111" y="710"/>
      <point x="111" y="707" type="curve"/>
      <point x="111" y="702"/>
      <point x="99" y="696"/>
    </contour>
  </outline>
</glyph>
<glyph name="uni1AB6" format="2">
  <unicode hex="1AB6"/>
  <anchor x="-1" y="0" name="_bottom"/>
  <anchor x="-1" y="-197" name="bottom"/>
  <outline>
    <contour>
      <point x="-82" y="-197" type="curve" smooth="yes"/>
      <point x="-38" y="-197"/>
      <point x="-23" y="-127"/>
      <point x="1" y="-127" type="curve" smooth="yes"/>
      <point x="24" y="-127"/>
      <point x="45" y="-197"/>
      <point x="84" y="-197" type="curve" smooth="yes"/>
      <point x="134" y="-197"/>
      <point x="149" y="-127"/>
      <point x="156" y="-127" type="curve" smooth="yes"/>
      <point x="165" y="-127"/>
      <point x="167" y="-158"/>
      <point x="168" y="-190" type="curve"/>
      <point x="223" y="-190" type="line"/>
      <point x="223" y="-114"/>
      <point x="197" y="-61"/>
      <point x="153" y="-61" type="curve" smooth="yes"/>
      <point x="106" y="-61"/>
      <point x="93" y="-131"/>
      <point x="80" y="-131" type="curve" smooth="yes"/>
      <point x="71" y="-131"/>
      <point x="49" y="-61"/>
      <point x="0" y="-61" type="curve" smooth="yes"/>
      <point x="-48" y="-61"/>
      <point x="-72" y="-131"/>
      <point x="-79" y="-131" type="curve" smooth="yes"/>
      <point x="-92" y="-131"/>
      <point x="-107" y="-61"/>
      <point x="-154" y="-61" type="curve" smooth="yes"/>
      <point x="-196" y="-61"/>
      <point x="-224" y="-114"/>
      <point x="-224" y="-190" type="curve"/>
      <point x="-169" y="-190" type="line"/>
      <point x="-166" y="-158"/>
      <point x="-164" y="-127"/>
      <point x="-154" y="-127" type="curve" smooth="yes"/>
      <point x="-147" y="-127"/>
      <point x="-127" y="-197"/>
    </contour>
  </outline>
</glyph>
<glyph name="uni1AB7" format="2">
  <unicode hex="1AB7"/>
  <anchor x="-127" y="0" name="_bottom"/>
  <anchor x="-127" y="-245" name="bottom"/>
  <outline>
    <contour>
      <point x="-126" y="-245" type="curve" smooth="yes"/>
      <point x="-99" y="-245"/>
      <point x="-67" y="-221"/>
      <point x="-67" y="-198" type="curve" smooth="yes"/>
      <point x="-67" y="-191"/>
      <point x="-69" y="-176"/>
      <point x="-73" y="-171" type="curve"/>
      <point x="-78" y="-174"/>
      <point x="-86" y="-178"/>
      <point x="-96" y="-178" type="curve" smooth="yes"/>
      <point x="-110" y="-178"/>
      <point x="-120" y="-171"/>
      <point x="-120" y="-141" type="curve" smooth="yes"/>
      <point x="-120" y="-40" type="line"/>
      <point x="-184" y="-40" type="line"/>
      <point x="-184" y="-152" type="line" smooth="yes"/>
      <point x="-184" y="-222"/>
      <point x="-159" y="-245"/>
    </contour>
  </outline>
</glyph>
<glyph name="uni1C87" format="2">
  <advance width="508"/>
  <unicode hex="1C87"/>
  <anchor x="254" y="0" name="bottom"/>
  <anchor x="254" y="760" name="top"/>
  <outline>
    <contour>
      <point x="74" y="0" type="line"/>
      <point x="333" y="0" type="line" smooth="yes"/>
      <point x="446" y="0"/>
      <point x="501" y="65"/>
      <point x="501" y="155" type="curve" smooth="yes"/>
      <point x="501" y="282"/>
      <point x="424" y="305"/>
      <point x="332" y="305" type="curve" smooth="yes"/>
      <point x="268" y="305" type="line"/>
      <point x="268" y="547" type="line"/>
      <point x="291" y="547" type="line" smooth="yes"/>
      <point x="332" y="547"/>
      <point x="340" y="532"/>
      <point x="346" y="494" type="curve" smooth="yes"/>
      <point x="349" y="465" type="line"/>
      <point x="398" y="465" type="line"/>
      <point x="395" y="607" type="line"/>
      <point x="268" y="607" type="line"/>
      <point x="268" y="642" type="line" smooth="yes"/>
      <point x="268" y="699"/>
      <point x="288" y="707"/>
      <point x="311" y="707" type="curve" smooth="yes"/>
      <point x="321" y="707" type="line"/>
      <point x="321" y="760" type="line"/>
      <point x="74" y="760" type="line"/>
      <point x="74" y="707" type="line"/>
      <point x="83" y="707" type="line" smooth="yes"/>
      <point x="107" y="707"/>
      <point x="127" y="699"/>
      <point x="127" y="641" type="curve" smooth="yes"/>
      <point x="127" y="607" type="line"/>
      <point x="0" y="607" type="line"/>
      <point x="-3" y="465" type="line"/>
      <point x="46" y="465" type="line"/>
      <point x="49" y="494" type="line" smooth="yes"/>
      <point x="53" y="532"/>
      <point x="62" y="547"/>
      <point x="102" y="547" type="curve" smooth="yes"/>
      <point x="127" y="547" type="line"/>
      <point x="127" y="118" type="line" smooth="yes"/>
      <point x="127" y="66"/>
      <point x="117" y="53"/>
      <point x="81" y="53" type="curve" smooth="yes"/>
      <point x="74" y="53" type="line"/>
    </contour>
    <contour>
      <point x="268" y="57" type="line"/>
      <point x="268" y="246" type="line"/>
      <point x="288" y="246" type="line" smooth="yes"/>
      <point x="331" y="246"/>
      <point x="357" y="222"/>
      <point x="357" y="158" type="curve" smooth="yes"/>
      <point x="357" y="88"/>
      <point x="338" y="57"/>
      <point x="290" y="57" type="curve" smooth="yes"/>
    </contour>
  </outline>
</glyph>
<glyph name="uni1D0C" format="2">
  <advance width="399"/>
  <unicode hex="1D0C"/>
  <anchor x="199" y="0" name="bottom"/>
  <anchor x="199" y="536" name="top"/>
  <outline>
    <contour>
      <point x="9" y="0" type="line"/>
      <point x="391" y="0" type="line"/>
      <point x="395" y="182" type="line"/>
      <point x="355" y="182" type="line"/>
      <point x="342" y="124" type="line" smooth="yes"/>
      <point x="329" y="86"/>
      <point x="314" y="61"/>
      <point x="284" y="61" type="curve" smooth="yes"/>
      <point x="200" y="61" type="line"/>
      <point x="200" y="260" type="line"/>
      <point x="284" y="323" type="line"/>
      <point x="283" y="390" type="line"/>
      <point x="200" y="329" type="line"/>
      <point x="200" y="438" type="line" smooth="yes"/>
      <point x="200" y="469"/>
      <point x="206" y="481"/>
      <point x="226" y="481" type="curve" smooth="yes"/>
      <point x="253" y="481" type="line"/>
      <point x="253" y="536" type="line"/>
      <point x="9" y="536" type="line"/>
      <point x="9" y="481" type="line"/>
      <point x="36" y="481" type="line" smooth="yes"/>
      <point x="51" y="481"/>
      <point x="62" y="469"/>
      <point x="62" y="436" type="curve" smooth="yes"/>
      <point x="62" y="251" type="line"/>
      <point x="14" y="214" type="line"/>
      <point x="13" y="147" type="line"/>
      <point x="62" y="183" type="line"/>
      <point x="62" y="104" type="line" smooth="yes"/>
      <point x="62" y="73"/>
      <point x="53" y="54"/>
      <point x="33" y="54" type="curve" smooth="yes"/>
      <point x="9" y="54" type="line"/>
    </contour>
  </outline>
</glyph>
<glyph name="uni1D19" format="2">
  <advance width="460"/>
  <unicode hex="1D19"/>
  <anchor x="230" y="0" name="bottom"/>
  <anchor x="230" y="536" name="top"/>
  <outline>
    <contour>
      <point x="11" y="0" type="line"/>
      <point x="52" y="0" type="line" smooth="yes"/>
      <point x="131" y="0"/>
      <point x="171" y="10"/>
      <point x="191" y="68" type="curve" smooth="yes"/>
      <point x="248" y="225" type="line"/>
      <point x="268" y="225" type="line"/>
      <point x="268" y="104" type="line" smooth="yes"/>
      <point x="268" y="66"/>
      <point x="263" y="54"/>
      <point x="238" y="54" type="curve" smooth="yes"/>
      <point x="228" y="54" type="line"/>
      <point x="228" y="0" type="line"/>
      <point x="456" y="0" type="line"/>
      <point x="456" y="54" type="line"/>
      <point x="440" y="54" type="line" smooth="yes"/>
      <point x="418" y="54"/>
      <point x="404" y="66"/>
      <point x="404" y="104" type="curve" smooth="yes"/>
      <point x="404" y="432" type="line" smooth="yes"/>
      <point x="404" y="469"/>
      <point x="412" y="481"/>
      <point x="434" y="481" type="curve" smooth="yes"/>
      <point x="456" y="481" type="line"/>
      <point x="456" y="536" type="line"/>
      <point x="229" y="536" type="line" smooth="yes"/>
      <point x="97" y="536"/>
      <point x="49" y="477"/>
      <point x="49" y="391" type="curve" smooth="yes"/>
      <point x="49" y="309"/>
      <point x="89" y="272"/>
      <point x="127" y="257" type="curve"/>
      <point x="66" y="108" type="line"/>
      <point x="50" y="73"/>
      <point x="35" y="54"/>
      <point x="11" y="54" type="curve"/>
    </contour>
    <contour>
      <point x="249" y="281" type="line" smooth="yes"/>
      <point x="210" y="281"/>
      <point x="194" y="316"/>
      <point x="194" y="384" type="curve" smooth="yes"/>
      <point x="194" y="456"/>
      <point x="215" y="482"/>
      <point x="250" y="482" type="curve" smooth="yes"/>
      <point x="268" y="482" type="line"/>
      <point x="268" y="281" type="line"/>
    </contour>
  </outline>
</glyph>
<glyph name="uni1D26" format="2">
  <advance width="386"/>
  <unicode hex="1D26"/>
  <outline>
    <contour>
      <point x="9" y="0" type="line"/>
      <point x="269" y="0" type="line"/>
      <point x="269" y="54" type="line"/>
      <point x="232" y="54" type="line" smooth="yes"/>
      <point x="213" y="54"/>
      <point x="202" y="67"/>
      <point x="202" y="102" type="curve" smooth="yes"/>
      <point x="202" y="477" type="line"/>
      <point x="262" y="477" type="line" smooth="yes"/>
      <point x="296" y="477"/>
      <point x="314" y="459"/>
      <point x="321" y="418" type="curve" smooth="yes"/>
      <point x="328" y="370" type="line"/>
      <point x="381" y="370" type="line"/>
      <point x="378" y="536" type="line"/>
      <point x="9" y="536" type="line"/>
      <point x="9" y="481" type="line"/>
      <point x="33" y="481" type="line" smooth="yes"/>
      <point x="50" y="481"/>
      <point x="64" y="469"/>
      <point x="64" y="432" type="curve" smooth="yes"/>
      <point x="64" y="104" type="line" smooth="yes"/>
      <point x="64" y="67"/>
      <point x="52" y="54"/>
      <point x="33" y="54" type="curve" smooth="yes"/>
      <point x="9" y="54" type="line"/>
    </contour>
  </outline>
</glyph>
<glyph name="uni1D28" format="2">
  <advance width="505"/>
  <unicode hex="1D28"/>
  <outline>
    <contour>
      <point x="9" y="0" type="line"/>
      <point x="240" y="0" type="line"/>
      <point x="240" y="54" type="line"/>
      <point x="222" y="54" type="line" smooth="yes"/>
      <point x="204" y="54"/>
      <point x="199" y="69"/>
      <point x="199" y="103" type="curve" smooth="yes"/>
      <point x="199" y="474" type="line"/>
      <point x="304" y="474" type="line"/>
      <point x="304" y="106" type="line" smooth="yes"/>
      <point x="304" y="69"/>
      <point x="301" y="54"/>
      <point x="278" y="54" type="curve" smooth="yes"/>
      <point x="264" y="54" type="line"/>
      <point x="264" y="0" type="line"/>
      <point x="495" y="0" type="line"/>
      <point x="495" y="54" type="line"/>
      <point x="467" y="54" type="line" smooth="yes"/>
      <point x="448" y="54"/>
      <point x="443" y="68"/>
      <point x="443" y="103" type="curve" smooth="yes"/>
      <point x="443" y="432" type="line" smooth="yes"/>
      <point x="443" y="466"/>
      <point x="447" y="481"/>
      <point x="467" y="481" type="curve" smooth="yes"/>
      <point x="495" y="481" type="line"/>
      <point x="495" y="536" type="line"/>
      <point x="9" y="536" type="line"/>
      <point x="9" y="481" type="line"/>
      <point x="30" y="481" type="line" smooth="yes"/>
      <point x="51" y="481"/>
      <point x="64" y="466"/>
      <point x="64" y="431" type="curve" smooth="yes"/>
      <point x="64" y="103" type="line" smooth="yes"/>
      <point x="64" y="69"/>
      <point x="57" y="54"/>
      <point x="37" y="54" type="curve" smooth="yes"/>
      <point x="9" y="54" type="line"/>
    </contour>
  </outline>
</glyph>
<glyph name="uni1D74" format="2">
  <advance width="372"/>
  <unicode hex="1D74"/>
  <outline>
    <contour>
      <point x="176" y="-10" type="curve" smooth="yes"/>
      <point x="289" y="-10"/>
      <point x="346" y="57"/>
      <point x="346" y="161" type="curve" smooth="yes"/>
      <point x="346" y="181"/>
      <point x="345" y="197"/>
      <point x="343" y="212" type="curve"/>
      <point x="376" y="236"/>
      <point x="389" y="288"/>
      <point x="390" y="344" type="curve"/>
      <point x="332" y="344" type="line"/>
      <point x="332" y="308"/>
      <point x="323" y="286"/>
      <point x="303" y="283" type="curve"/>
      <point x="282" y="304"/>
      <point x="250" y="318"/>
      <point x="215" y="333" type="curve" smooth="yes"/>
      <point x="147" y="366"/>
      <point x="130" y="383"/>
      <point x="130" y="429" type="curve" smooth="yes"/>
      <point x="130" y="467"/>
      <point x="151" y="489"/>
      <point x="181" y="489" type="curve" smooth="yes"/>
      <point x="220" y="489"/>
      <point x="249" y="454"/>
      <point x="249" y="388" type="curve"/>
      <point x="307" y="388"/>
      <point x="330" y="410"/>
      <point x="330" y="453" type="curve" smooth="yes"/>
      <point x="330" y="502"/>
      <point x="293" y="548"/>
      <point x="193" y="548" type="curve" smooth="yes"/>
      <point x="90" y="548"/>
      <point x="23" y="495"/>
      <point x="23" y="390" type="curve" smooth="yes"/>
      <point x="23" y="366"/>
      <point x="24" y="349"/>
      <point x="25" y="331" type="curve"/>
      <point x="0" y="308"/>
      <point x="-11" y="259"/>
      <point x="-12" y="205" type="curve"/>
      <point x="46" y="205" type="line"/>
      <point x="46" y="231"/>
      <point x="53" y="258"/>
      <point x="70" y="258" type="curve" smooth="yes"/>
      <point x="76" y="258"/>
      <point x="87" y="242"/>
      <point x="153" y="212" type="curve" smooth="yes"/>
      <point x="214" y="183"/>
      <point x="241" y="163"/>
      <point x="241" y="120" type="curve" smooth="yes"/>
      <point x="241" y="80"/>
      <point x="225" y="49"/>
      <point x="178" y="49" type="curve" smooth="yes"/>
      <point x="130" y="49"/>
      <point x="95" y="91"/>
      <point x="95" y="175" type="curve"/>
      <point x="52" y="175"/>
      <point x="18" y="155"/>
      <point x="18" y="102" type="curve" smooth="yes"/>
      <point x="18" y="36"/>
      <point x="55" y="-10"/>
    </contour>
  </outline>
</glyph>
<glyph name="uni1D80" format="2">
  <advance width="488"/>
  <unicode hex="1D80"/>
  <anchor x="245" y="760" name="top"/>
  <anchor x="462" y="760" name="topright"/>
  <anchor x="245" y="0" name="bottom"/>
  <outline>
    <contour>
      <point x="333" y="-204" type="curve" smooth="yes"/>
      <point x="389" y="-204"/>
      <point x="421" y="-144"/>
      <point x="421" y="-34" type="curve" smooth="yes"/>
      <point x="421" y="104" type="line"/>
      <point x="367" y="104" type="line"/>
      <point x="367" y="-37" type="line" smooth="yes"/>
      <point x="367" y="-95"/>
      <point x="351" y="-117"/>
      <point x="320" y="-117" type="curve" smooth="yes"/>
      <point x="304" y="-117"/>
      <point x="294" y="-110"/>
      <point x="284" y="-101" type="curve"/>
      <point x="278" y="-110"/>
      <point x="275" y="-123"/>
      <point x="275" y="-139" type="curve" smooth="yes"/>
      <point x="275" y="-181"/>
      <point x="297" y="-204"/>
    </contour>
    <component base="b"/>
  </outline>
</glyph>
<glyph name="snakebelow" format="2">
  <unicode hex="1DC2"/>
  <anchor x="-3" y="0" name="_bottom"/>
  <anchor x="-3" y="-212" name="bottom"/>
  <outline>
    <contour>
      <point x="32" y="-212" type="curve"/>
      <point x="32" y="-188" type="line"/>
      <point x="9" y="-187"/>
      <point x="0" y="-184"/>
      <point x="0" y="-179" type="curve" smooth="yes"/>
      <point x="0" y="-170"/>
      <point x="33" y="-170"/>
      <point x="33" y="-148" type="curve" smooth="yes"/>
      <point x="33" y="-125"/>
      <point x="0" y="-126"/>
      <point x="0" y="-118" type="curve" smooth="yes"/>
      <point x="0" y="-107"/>
      <point x="37" y="-104"/>
      <point x="37" y="-72" type="curve" smooth="yes"/>
      <point x="37" y="-52"/>
      <point x="25" y="-42"/>
      <point x="-1" y="-42" type="curve" smooth="yes"/>
      <point x="-15" y="-42"/>
      <point x="-34" y="-50"/>
      <point x="-43" y="-55" type="curve"/>
      <point x="-39" y="-82" type="line"/>
      <point x="-29" y="-75"/>
      <point x="-18" y="-72"/>
      <point x="-9" y="-72" type="curve" smooth="yes"/>
      <point x="4" y="-72"/>
      <point x="9" y="-75"/>
      <point x="9" y="-80" type="curve" smooth="yes"/>
      <point x="9" y="-91"/>
      <point x="-31" y="-99"/>
      <point x="-31" y="-119" type="curve" smooth="yes"/>
      <point x="-31" y="-140"/>
      <point x="6" y="-137"/>
      <point x="6" y="-148" type="curve" smooth="yes"/>
      <point x="6" y="-156"/>
      <point x="-31" y="-160"/>
      <point x="-31" y="-181" type="curve" smooth="yes"/>
      <point x="-31" y="-202"/>
      <point x="-11" y="-212"/>
    </contour>
  </outline>
</glyph>
<glyph name="gravemacron" format="2">
  <unicode hex="1DC5"/>
  <anchor x="-5" y="536" name="_top"/>
  <anchor x="-5" y="740" name="top"/>
  <outline>
    <contour>
      <point x="-19" y="604" type="line"/>
      <point x="111" y="604" type="line"/>
      <point x="111" y="675" type="line"/>
      <point x="-3" y="675" type="line"/>
      <point x="-92" y="740" type="line"/>
      <point x="-120" y="678" type="line"/>
    </contour>
  </outline>
</glyph>
<glyph name="graveacutegrave" format="2">
  <unicode hex="1DC8"/>
  <anchor x="1" y="536" name="_top"/>
  <anchor x="1" y="733" name="top"/>
  <outline>
    <contour>
      <point x="-51" y="588" type="line"/>
      <point x="46" y="653" type="line"/>
      <point x="133" y="591" type="line"/>
      <point x="163" y="654" type="line"/>
      <point x="52" y="733" type="line"/>
      <point x="-47" y="666" type="line"/>
      <point x="-134" y="732" type="line"/>
      <point x="-163" y="668" type="line"/>
    </contour>
  </outline>
</glyph>
<glyph name="uni1E28" format="2">
  <advance width="605"/>
  <unicode hex="1E28"/>
  <anchor x="302" y="-237" name="bottom"/>
  <anchor x="302" y="714" name="top"/>
  <outline>
    <contour>
      <point x="150" y="-237" type="curve" smooth="yes"/>
      <point x="213" y="-237"/>
      <point x="259" y="-197"/>
      <point x="259" y="-128" type="curve" smooth="yes"/>
      <point x="259" y="-73"/>
      <point x="223" y="-41"/>
      <point x="176" y="-36" type="curve"/>
      <point x="183" y="0" type="line"/>
      <point x="294" y="0" type="line"/>
      <point x="294" y="53" type="line"/>
      <point x="248" y="53" type="line" smooth="yes"/>
      <point x="235" y="53"/>
      <point x="228" y="60"/>
      <point x="228" y="118" type="curve" smooth="yes"/>
      <point x="228" y="343" type="line"/>
      <point x="379" y="343" type="line"/>
      <point x="379" y="118" type="line" smooth="yes"/>
      <point x="379" y="60"/>
      <point x="372" y="53"/>
      <point x="360" y="53" type="curve" smooth="yes"/>
      <point x="313" y="53" type="line"/>
      <point x="313" y="0" type="line"/>
      <point x="591" y="0" type="line"/>
      <point x="591" y="53" type="line"/>
      <point x="545" y="53" type="line" smooth="yes"/>
      <point x="535" y="53"/>
      <point x="526" y="59"/>
      <point x="526" y="113" type="curve" smooth="yes"/>
      <point x="526" y="596" type="line" smooth="yes"/>
      <point x="526" y="654"/>
      <point x="534" y="661"/>
      <point x="545" y="661" type="curve" smooth="yes"/>
      <point x="591" y="661" type="line"/>
      <point x="591" y="714" type="line"/>
      <point x="313" y="714" type="line"/>
      <point x="313" y="661" type="line"/>
      <point x="360" y="661" type="line" smooth="yes"/>
      <point x="372" y="661"/>
      <point x="379" y="654"/>
      <point x="379" y="596" type="curve" smooth="yes"/>
      <point x="379" y="404" type="line"/>
      <point x="228" y="404" type="line"/>
      <point x="228" y="596" type="line" smooth="yes"/>
      <point x="228" y="654"/>
      <point x="235" y="661"/>
      <point x="248" y="661" type="curve" smooth="yes"/>
      <point x="294" y="661" type="line"/>
      <point x="294" y="714" type="line"/>
      <point x="16" y="714" type="line"/>
      <point x="16" y="661" type="line"/>
      <point x="61" y="661" type="line" smooth="yes"/>
      <point x="72" y="661"/>
      <point x="81" y="654"/>
      <point x="81" y="600" type="curve" smooth="yes"/>
      <point x="81" y="118" type="line" smooth="yes"/>
      <point x="81" y="60"/>
      <point x="72" y="53"/>
      <point x="61" y="53" type="curve" smooth="yes"/>
      <point x="16" y="53" type="line"/>
      <point x="16" y="0" type="line"/>
      <point x="135" y="0" type="line"/>
      <point x="121" y="-79" type="line"/>
      <point x="153" y="-84"/>
      <point x="176" y="-91"/>
      <point x="176" y="-130" type="curve" smooth="yes"/>
      <point x="176" y="-167"/>
      <point x="160" y="-177"/>
      <point x="132" y="-177" type="curve" smooth="yes"/>
      <point x="119" y="-177"/>
      <point x="100" y="-174"/>
      <point x="82" y="-169" type="curve"/>
      <point x="82" y="-226" type="line"/>
      <point x="100" y="-233"/>
      <point x="135" y="-237"/>
    </contour>
  </outline>
</glyph>
<glyph name="ll.middleWelsh" format="2">
  <advance width="547"/>
  <unicode hex="1EFB"/>
  <anchor x="263" y="0" name="bottom"/>
  <anchor x="263" y="760" name="top"/>
  <outline>
    <contour>
      <point x="13" y="0" type="line"/>
      <point x="510" y="0" type="line"/>
      <point x="510" y="53" type="line"/>
      <point x="502" y="53" type="line" smooth="yes"/>
      <point x="475" y="53"/>
      <point x="458" y="66"/>
      <point x="458" y="124" type="curve" smooth="yes"/>
      <point x="458" y="535" type="line"/>
      <point x="532" y="535" type="line"/>
      <point x="532" y="589" type="line"/>
      <point x="458" y="589" type="line"/>
      <point x="458" y="760" type="line"/>
      <point x="262" y="760" type="line"/>
      <point x="262" y="707" type="line"/>
      <point x="270" y="707" type="line" smooth="yes"/>
      <point x="281" y="707"/>
      <point x="316" y="700"/>
      <point x="316" y="646" type="curve" smooth="yes"/>
      <point x="316" y="589" type="line"/>
      <point x="209" y="589" type="line"/>
      <point x="209" y="760" type="line"/>
      <point x="13" y="760" type="line"/>
      <point x="13" y="707" type="line"/>
      <point x="23" y="707" type="line" smooth="yes"/>
      <point x="34" y="707"/>
      <point x="67" y="700"/>
      <point x="67" y="646" type="curve" smooth="yes"/>
      <point x="67" y="589" type="line"/>
      <point x="4" y="589" type="line"/>
      <point x="4" y="535" type="line"/>
      <point x="67" y="535" type="line"/>
      <point x="67" y="124" type="line" smooth="yes"/>
      <point x="67" y="66"/>
      <point x="50" y="53"/>
      <point x="23" y="53" type="curve" smooth="yes"/>
      <point x="13" y="53" type="line"/>
    </contour>
    <contour>
      <point x="254" y="53" type="line" smooth="yes"/>
      <point x="228" y="53"/>
      <point x="209" y="66"/>
      <point x="209" y="124" type="curve" smooth="yes"/>
      <point x="209" y="535" type="line"/>
      <point x="316" y="535" type="line"/>
      <point x="316" y="124" type="line" smooth="yes"/>
      <point x="316" y="66"/>
      <point x="297" y="53"/>
      <point x="270" y="53" type="curve" smooth="yes"/>
    </contour>
  </outline>
</glyph>
<glyph name="yloop" format="2">
  <advance width="426"/>
  <unicode hex="1EFF"/>
  <anchor x="213" y="-241" name="bottom"/>
  <anchor x="213" y="536" name="top"/>
  <outline>
    <contour>
      <point x="91" y="-241" type="curve" smooth="yes"/>
      <point x="181" y="-241"/>
      <point x="217" y="-159"/>
      <point x="246" y="-54" type="curve" smooth="yes"/>
      <point x="366" y="411" type="line" smooth="yes"/>
      <point x="382" y="467"/>
      <point x="389" y="483"/>
      <point x="426" y="483" type="curve"/>
      <point x="426" y="536" type="line"/>
      <point x="266" y="536" type="line"/>
      <point x="266" y="483" type="line"/>
      <point x="296" y="483"/>
      <point x="310" y="477"/>
      <point x="310" y="449" type="curve" smooth="yes"/>
      <point x="310" y="432"/>
      <point x="306" y="415"/>
      <point x="302" y="396" type="curve" smooth="yes"/>
      <point x="265" y="218" type="line" smooth="yes"/>
      <point x="256" y="186"/>
      <point x="251" y="149"/>
      <point x="250" y="125" type="curve"/>
      <point x="247" y="125" type="line"/>
      <point x="246" y="153"/>
      <point x="241" y="189"/>
      <point x="235" y="220" type="curve" smooth="yes"/>
      <point x="194" y="402" type="line" smooth="yes"/>
      <point x="190" y="418"/>
      <point x="187" y="437"/>
      <point x="187" y="449" type="curve" smooth="yes"/>
      <point x="187" y="476"/>
      <point x="199" y="483"/>
      <point x="232" y="483" type="curve"/>
      <point x="232" y="536" type="line"/>
      <point x="-1" y="536" type="line"/>
      <point x="-1" y="483" type="line"/>
      <point x="24" y="483"/>
      <point x="33" y="477"/>
      <point x="44" y="436" type="curve" smooth="yes"/>
      <point x="173" y="-10" type="line"/>
      <point x="173" y="-28" type="line"/>
      <point x="152" y="-14"/>
      <point x="127" y="-1"/>
      <point x="93" y="-1" type="curve" smooth="yes"/>
      <point x="27" y="-1"/>
      <point x="-9" y="-50"/>
      <point x="-9" y="-122" type="curve" smooth="yes"/>
      <point x="-9" y="-197"/>
      <point x="32" y="-241"/>
    </contour>
    <contour>
      <point x="90" y="-168" type="curve" smooth="yes"/>
      <point x="69" y="-168"/>
      <point x="53" y="-151"/>
      <point x="53" y="-119" type="curve" smooth="yes"/>
      <point x="53" y="-87"/>
      <point x="67" y="-64"/>
      <point x="93" y="-64" type="curve" smooth="yes"/>
      <point x="115" y="-64"/>
      <point x="134" y="-74"/>
      <point x="151" y="-86" type="curve"/>
      <point x="145" y="-106" type="line" smooth="yes"/>
      <point x="134" y="-151"/>
      <point x="115" y="-168"/>
    </contour>
  </outline>
</glyph>
<glyph name="quadrupleprime" format="2">
  <advance width="752"/>
  <unicode hex="2057"/>
  <outline>
    <contour>
      <point x="534" y="479" type="line"/>
      <point x="613" y="479" type="line"/>
      <point x="732" y="714" type="line"/>
      <point x="576" y="714" type="line"/>
    </contour>
    <contour>
      <point x="20" y="479" type="line"/>
      <point x="101" y="479" type="line"/>
      <point x="218" y="714" type="line"/>
      <point x="62" y="714" type="line"/>
    </contour>
    <contour>
      <point x="191" y="479" type="line"/>
      <point x="270" y="479" type="line"/>
      <point x="389" y="714" type="line"/>
      <point x="233" y="714" type="line"/>
    </contour>
    <contour>
      <point x="363" y="479" type="line"/>
      <point x="443" y="479" type="line"/>
      <point x="560" y="714" type="line"/>
      <point x="405" y="714" type="line"/>
    </contour>
  </outline>
</glyph>
<glyph name="sevensuperior" format="2">
  <advance width="288"/>
  <unicode hex="2077"/>
  <outline>
    <contour>
      <point x="50" y="387" type="line"/>
      <point x="144" y="387" type="line"/>
      <point x="263" y="758" type="line"/>
      <point x="263" y="814" type="line"/>
      <point x="20" y="814" type="line"/>
      <point x="18" y="670" type="line"/>
      <point x="56" y="670" type="line"/>
      <point x="60" y="702" type="line"/>
      <point x="61" y="722"/>
      <point x="68" y="731"/>
      <point x="83" y="731" type="curve"/>
      <point x="203" y="731" type="line"/>
    </contour>
  </outline>
</glyph>
<glyph name="uni20B0" format="2">
  <advance width="501"/>
  <unicode hex="20B0"/>
  <outline>
    <contour>
      <point x="298" y="-240" type="curve" smooth="yes"/>
      <point x="390" y="-240"/>
      <point x="462" y="-171"/>
      <point x="462" y="-40" type="curve" smooth="yes"/>
      <point x="462" y="64"/>
      <point x="403" y="177"/>
      <point x="372" y="289" type="curve"/>
      <point x="417" y="387"/>
      <point x="451" y="471"/>
      <point x="451" y="559" type="curve" smooth="yes"/>
      <point x="451" y="661"/>
      <point x="411" y="725"/>
      <point x="326" y="725" type="curve" smooth="yes"/>
      <point x="236" y="725"/>
      <point x="180" y="663"/>
      <point x="180" y="533" type="curve" smooth="yes"/>
      <point x="180" y="444"/>
      <point x="207" y="357"/>
      <point x="254" y="224" type="curve"/>
      <point x="230" y="135" type="line"/>
      <point x="147" y="327" type="line"/>
      <point x="4" y="0" type="line"/>
      <point x="74" y="0" type="line"/>
      <point x="128" y="149" type="line"/>
      <point x="207" y="-19" type="line"/>
      <point x="285" y="159" type="line"/>
      <point x="309" y="59"/>
      <point x="342" y="-28"/>
      <point x="342" y="-93" type="curve" smooth="yes"/>
      <point x="342" y="-146"/>
      <point x="327" y="-180"/>
      <point x="300" y="-180" type="curve" smooth="yes"/>
      <point x="263" y="-180"/>
      <point x="253" y="-134"/>
      <point x="253" y="-57" type="curve"/>
      <point x="201" y="-57"/>
      <point x="159" y="-70"/>
      <point x="159" y="-127" type="curve" smooth="yes"/>
      <point x="159" y="-198"/>
      <point x="209" y="-240"/>
    </contour>
    <contour>
      <point x="335" y="363" type="curve"/>
      <point x="312" y="443"/>
      <point x="302" y="515"/>
      <point x="302" y="572" type="curve" smooth="yes"/>
      <point x="302" y="632"/>
      <point x="312" y="664"/>
      <point x="335" y="664" type="curve" smooth="yes"/>
      <point x="356" y="664"/>
      <point x="367" y="638"/>
      <point x="367" y="569" type="curve" smooth="yes"/>
      <point x="367" y="523"/>
      <point x="361" y="454"/>
    </contour>
  </outline>
</glyph>
<glyph name="ruble" format="2">
  <advance width="427"/>
  <unicode hex="20BD"/>
  <outline>
    <contour>
      <point x="11" y="0" type="line"/>
      <point x="299" y="0" type="line"/>
      <point x="299" y="53" type="line"/>
      <point x="225" y="53" type="line" smooth="yes"/>
      <point x="214" y="53"/>
      <point x="203" y="61"/>
      <point x="203" y="121" type="curve" smooth="yes"/>
      <point x="203" y="176" type="line"/>
      <point x="285" y="176" type="line"/>
      <point x="285" y="234" type="line"/>
      <point x="203" y="234" type="line"/>
      <point x="203" y="308" type="line"/>
      <point x="212" y="308" type="line" smooth="yes"/>
      <point x="365" y="308"/>
      <point x="415" y="409"/>
      <point x="415" y="519" type="curve" smooth="yes"/>
      <point x="415" y="638"/>
      <point x="353" y="714"/>
      <point x="207" y="714" type="curve" smooth="yes"/>
      <point x="11" y="714" type="line"/>
      <point x="11" y="661" type="line"/>
      <point x="38" y="661" type="line" smooth="yes"/>
      <point x="51" y="661"/>
      <point x="58" y="654"/>
      <point x="58" y="600" type="curve" smooth="yes"/>
      <point x="58" y="234" type="line"/>
      <point x="9" y="234" type="line"/>
      <point x="9" y="176" type="line"/>
      <point x="58" y="176" type="line"/>
      <point x="58" y="118" type="line" smooth="yes"/>
      <point x="58" y="60"/>
      <point x="50" y="53"/>
      <point x="38" y="53" type="curve" smooth="yes"/>
      <point x="11" y="53" type="line"/>
    </contour>
    <contour>
      <point x="203" y="367" type="line"/>
      <point x="203" y="655" type="line"/>
      <point x="215" y="655" type="line" smooth="yes"/>
      <point x="252" y="655"/>
      <point x="266" y="611"/>
      <point x="266" y="515" type="curve" smooth="yes"/>
      <point x="266" y="409"/>
      <point x="254" y="367"/>
      <point x="211" y="367" type="curve" smooth="yes"/>
    </contour>
  </outline>
</glyph>
<glyph name="uni20BF" format="2">
  <advance width="397"/>
  <unicode hex="20BF"/>
  <outline>
    <contour>
      <point x="20" y="0" type="line"/>
      <point x="220" y="0" type="line" smooth="yes"/>
      <point x="323" y="0"/>
      <point x="377" y="64"/>
      <point x="377" y="190" type="curve" smooth="yes"/>
      <point x="377" y="305"/>
      <point x="338" y="361"/>
      <point x="276" y="376" type="curve"/>
      <point x="276" y="381" type="line"/>
      <point x="326" y="403"/>
      <point x="363" y="445"/>
      <point x="363" y="540" type="curve" smooth="yes"/>
      <point x="363" y="659"/>
      <point x="303" y="714"/>
      <point x="206" y="714" type="curve" smooth="yes"/>
      <point x="20" y="714" type="line"/>
      <point x="20" y="661" type="line"/>
      <point x="39" y="661" type="line" smooth="yes"/>
      <point x="61" y="661"/>
      <point x="67" y="651"/>
      <point x="67" y="601" type="curve" smooth="yes"/>
      <point x="67" y="114" type="line" smooth="yes"/>
      <point x="67" y="70"/>
      <point x="63" y="53"/>
      <point x="39" y="53" type="curve" smooth="yes"/>
      <point x="20" y="53" type="line"/>
    </contour>
    <contour>
      <point x="128" y="-80" type="line"/>
      <point x="179" y="-80" type="line"/>
      <point x="179" y="48" type="line"/>
      <point x="128" y="48" type="line"/>
    </contour>
    <contour>
      <point x="213" y="-80" type="line"/>
      <point x="264" y="-80" type="line"/>
      <point x="264" y="48" type="line"/>
      <point x="213" y="48" type="line"/>
    </contour>
    <contour>
      <point x="178" y="61" type="line"/>
      <point x="178" y="344" type="line"/>
      <point x="204" y="344" type="line" smooth="yes"/>
      <point x="242" y="344"/>
      <point x="260" y="293"/>
      <point x="260" y="199" type="curve" smooth="yes"/>
      <point x="260" y="96"/>
      <point x="238" y="61"/>
      <point x="202" y="61" type="curve" smooth="yes"/>
    </contour>
    <contour>
      <point x="178" y="405" type="line"/>
      <point x="178" y="653" type="line"/>
      <point x="196" y="653" type="line" smooth="yes"/>
      <point x="224" y="653"/>
      <point x="246" y="627"/>
      <point x="246" y="531" type="curve" smooth="yes"/>
      <point x="246" y="441"/>
      <point x="226" y="405"/>
      <point x="189" y="405" type="curve" smooth="yes"/>
    </contour>
    <contour>
      <point x="128" y="685" type="line"/>
      <point x="179" y="685" type="line"/>
      <point x="179" y="780" type="line"/>
      <point x="128" y="780" type="line"/>
    </contour>
    <contour>
      <point x="213" y="685" type="line"/>
      <point x="264" y="685" type="line"/>
      <point x="264" y="780" type="line"/>
      <point x="213" y="780" type="line"/>
    </contour>
  </outline>
</glyph>
<glyph name="afii61248" format="2">
  <advance width="618"/>
  <unicode hex="2105"/>
  <outline>
    <contour>
      <point x="145" y="0" type="line"/>
      <point x="207" y="0" type="line"/>
      <point x="450" y="714" type="line"/>
      <point x="388" y="714" type="line"/>
    </contour>
    <contour>
      <point x="454" y="-10" type="curve" smooth="yes"/>
      <point x="548" y="-10"/>
      <point x="597" y="46"/>
      <point x="597" y="160" type="curve"/>
      <point x="597" y="274"/>
      <point x="543" y="329"/>
      <point x="454" y="329" type="curve" smooth="yes"/>
      <point x="359" y="329"/>
      <point x="311" y="274"/>
      <point x="311" y="160" type="curve" smooth="yes"/>
      <point x="311" y="46"/>
      <point x="363" y="-10"/>
    </contour>
    <contour>
      <point x="455" y="39" type="curve" smooth="yes"/>
      <point x="421" y="39"/>
      <point x="411" y="81"/>
      <point x="411" y="160" type="curve"/>
      <point x="411" y="238"/>
      <point x="421" y="278"/>
      <point x="454" y="278" type="curve" smooth="yes"/>
      <point x="485" y="278"/>
      <point x="497" y="238"/>
      <point x="497" y="160" type="curve" smooth="yes"/>
      <point x="497" y="81"/>
      <point x="484" y="39"/>
    </contour>
    <contour>
      <point x="164" y="381" type="curve" smooth="yes"/>
      <point x="234" y="381"/>
      <point x="269" y="417"/>
      <point x="269" y="455" type="curve" smooth="yes"/>
      <point x="269" y="471"/>
      <point x="263" y="485"/>
      <point x="259" y="490" type="curve"/>
      <point x="246" y="466"/>
      <point x="221" y="438"/>
      <point x="185" y="438" type="curve" smooth="yes"/>
      <point x="141" y="438"/>
      <point x="121" y="476"/>
      <point x="121" y="552" type="curve" smooth="yes"/>
      <point x="121" y="650"/>
      <point x="139" y="669"/>
      <point x="166" y="669" type="curve" smooth="yes"/>
      <point x="190" y="669"/>
      <point x="195" y="624"/>
      <point x="195" y="586" type="curve"/>
      <point x="246" y="586"/>
      <point x="269" y="611"/>
      <point x="269" y="643" type="curve" smooth="yes"/>
      <point x="269" y="690"/>
      <point x="233" y="720"/>
      <point x="159" y="720" type="curve" smooth="yes"/>
      <point x="79" y="720"/>
      <point x="22" y="671"/>
      <point x="22" y="551" type="curve" smooth="yes"/>
      <point x="22" y="434"/>
      <point x="79" y="381"/>
    </contour>
  </outline>
</glyph>
<glyph name="planckconstant" format="2">
  <advance width="527"/>
  <unicode hex="210E"/>
  <outline>
    <contour>
      <point x="384" y="-10" type="curve" smooth="yes"/>
      <point x="438" y="-10"/>
      <point x="484" y="16"/>
      <point x="515" y="47" type="curve"/>
      <point x="502" y="88" type="line"/>
      <point x="486" y="73"/>
      <point x="469" y="65"/>
      <point x="457" y="65" type="curve" smooth="yes"/>
      <point x="440" y="65"/>
      <point x="432" y="78"/>
      <point x="432" y="105" type="curve" smooth="yes"/>
      <point x="432" y="134"/>
      <point x="444" y="176"/>
      <point x="449" y="223" type="curve" smooth="yes"/>
      <point x="460" y="298" type="line" smooth="yes"/>
      <point x="467" y="349"/>
      <point x="477" y="386"/>
      <point x="477" y="425" type="curve" smooth="yes"/>
      <point x="477" y="499"/>
      <point x="444" y="549"/>
      <point x="380" y="549" type="curve" smooth="yes"/>
      <point x="306" y="549"/>
      <point x="259" y="490"/>
      <point x="231" y="421" type="curve"/>
      <point x="223" y="421" type="line"/>
      <point x="235" y="477"/>
      <point x="244" y="521"/>
      <point x="251" y="576" type="curve" smooth="yes"/>
      <point x="280" y="760" type="line"/>
      <point x="77" y="760" type="line"/>
      <point x="69" y="709" type="line"/>
      <point x="76" y="709" type="line" smooth="yes"/>
      <point x="109" y="709"/>
      <point x="126" y="693"/>
      <point x="126" y="662" type="curve" smooth="yes"/>
      <point x="126" y="653"/>
      <point x="123" y="638"/>
      <point x="120" y="609" type="curve" smooth="yes"/>
      <point x="27" y="0" type="line"/>
      <point x="165" y="0" type="line"/>
      <point x="203" y="256" type="line" smooth="yes"/>
      <point x="209" y="292"/>
      <point x="221" y="345"/>
      <point x="237" y="388" type="curve" smooth="yes"/>
      <point x="252" y="431"/>
      <point x="281" y="464"/>
      <point x="309" y="464" type="curve" smooth="yes"/>
      <point x="324" y="464"/>
      <point x="334" y="447"/>
      <point x="334" y="417" type="curve" smooth="yes"/>
      <point x="334" y="395"/>
      <point x="330" y="362"/>
      <point x="324" y="326" type="curve" smooth="yes"/>
      <point x="309" y="231" type="line" smooth="yes"/>
      <point x="300" y="178"/>
      <point x="290" y="128"/>
      <point x="290" y="93" type="curve" smooth="yes"/>
      <point x="290" y="31"/>
      <point x="323" y="-10"/>
    </contour>
  </outline>
</glyph>
<glyph name="planckconstantovertwopi" format="2">
  <advance width="527"/>
  <unicode hex="210F"/>
  <outline>
    <contour>
      <point x="384" y="-10" type="curve" smooth="yes"/>
      <point x="438" y="-10"/>
      <point x="484" y="16"/>
      <point x="515" y="47" type="curve"/>
      <point x="502" y="88" type="line"/>
      <point x="486" y="73"/>
      <point x="469" y="65"/>
      <point x="457" y="65" type="curve" smooth="yes"/>
      <point x="440" y="65"/>
      <point x="432" y="78"/>
      <point x="432" y="105" type="curve" smooth="yes"/>
      <point x="432" y="135"/>
      <point x="446" y="177"/>
      <point x="449" y="228" type="curve" smooth="yes"/>
      <point x="459" y="297" type="line" smooth="yes"/>
      <point x="467" y="348"/>
      <point x="477" y="384"/>
      <point x="477" y="425" type="curve" smooth="yes"/>
      <point x="477" y="499"/>
      <point x="444" y="549"/>
      <point x="380" y="549" type="curve" smooth="yes"/>
      <point x="306" y="549"/>
      <point x="259" y="490"/>
      <point x="231" y="421" type="curve"/>
      <point x="223" y="421" type="line"/>
      <point x="234" y="472"/>
      <point x="241" y="517"/>
      <point x="254" y="580" type="curve"/>
      <point x="337" y="627" type="line"/>
      <point x="344" y="699" type="line"/>
      <point x="265" y="652" type="line"/>
      <point x="280" y="760" type="line"/>
      <point x="77" y="760" type="line"/>
      <point x="69" y="709" type="line"/>
      <point x="76" y="709" type="line" smooth="yes"/>
      <point x="109" y="709"/>
      <point x="126" y="693"/>
      <point x="126" y="662" type="curve" smooth="yes"/>
      <point x="126" y="653"/>
      <point x="123" y="638"/>
      <point x="120" y="614" type="curve" smooth="yes"/>
      <point x="118" y="586" type="line"/>
      <point x="48" y="543" type="line"/>
      <point x="39" y="475" type="line"/>
      <point x="106" y="515" type="line"/>
      <point x="27" y="0" type="line"/>
      <point x="165" y="0" type="line"/>
      <point x="203" y="256" type="line" smooth="yes"/>
      <point x="209" y="292"/>
      <point x="221" y="345"/>
      <point x="237" y="387" type="curve" smooth="yes"/>
      <point x="252" y="431"/>
      <point x="282" y="464"/>
      <point x="309" y="464" type="curve" smooth="yes"/>
      <point x="324" y="464"/>
      <point x="334" y="447"/>
      <point x="334" y="417" type="curve" smooth="yes"/>
      <point x="334" y="395"/>
      <point x="330" y="365"/>
      <point x="324" y="332" type="curve" smooth="yes"/>
      <point x="309" y="231" type="line" smooth="yes"/>
      <point x="300" y="176"/>
      <point x="290" y="128"/>
      <point x="290" y="93" type="curve" smooth="yes"/>
      <point x="290" y="31"/>
      <point x="323" y="-10"/>
    </contour>
  </outline>
</glyph>
<glyph name="Ifraktur" format="2">
  <advance width="559"/>
  <unicode hex="2111"/>
  <outline>
    <contour>
      <point x="209" y="-8" type="curve" smooth="yes"/>
      <point x="238" y="-8"/>
      <point x="265" y="-4"/>
      <point x="337" y="45" type="curve" smooth="yes"/>
      <point x="445" y="119"/>
      <point x="471" y="177"/>
      <point x="471" y="254" type="curve" smooth="yes"/>
      <point x="471" y="329"/>
      <point x="446" y="484"/>
      <point x="446" y="509" type="curve" smooth="yes"/>
      <point x="446" y="532"/>
      <point x="468" y="556"/>
      <point x="514" y="591" type="curve"/>
      <point x="502" y="608" type="line"/>
      <point x="469" y="587"/>
      <point x="355" y="503"/>
      <point x="355" y="474" type="curve" smooth="yes"/>
      <point x="355" y="421"/>
      <point x="376" y="319"/>
      <point x="376" y="229" type="curve" smooth="yes"/>
      <point x="376" y="134"/>
      <point x="356" y="48"/>
      <point x="256" y="48" type="curve" smooth="yes"/>
      <point x="177" y="48"/>
      <point x="161" y="162"/>
      <point x="153" y="162" type="curve" smooth="yes"/>
      <point x="149" y="162"/>
      <point x="141" y="151"/>
      <point x="136" y="145" type="curve" smooth="yes"/>
      <point x="32" y="21" type="line"/>
      <point x="48" y="5" type="line"/>
      <point x="97" y="48" type="line"/>
      <point x="115" y="32"/>
      <point x="176" y="-8"/>
    </contour>
    <contour>
      <point x="51" y="498" type="line"/>
      <point x="67" y="546"/>
      <point x="123" y="628"/>
      <point x="196" y="628" type="curve" smooth="yes"/>
      <point x="253" y="628"/>
      <point x="351" y="575"/>
      <point x="376" y="575" type="curve" smooth="yes"/>
      <point x="394" y="575"/>
      <point x="444" y="612"/>
      <point x="540" y="685" type="curve"/>
      <point x="527" y="703" type="line"/>
      <point x="509" y="690"/>
      <point x="461" y="647"/>
      <point x="425" y="647" type="curve" smooth="yes"/>
      <point x="374" y="647"/>
      <point x="275" y="720"/>
      <point x="206" y="720" type="curve" smooth="yes"/>
      <point x="109" y="720"/>
      <point x="39" y="536"/>
      <point x="32" y="506" type="curve"/>
    </contour>
  </outline>
</glyph>
